<svg width="81" height="81" viewBox="0 0 81 81" fill="none" xmlns="http://www.w3.org/2000/svg">
<path fill-rule="evenodd" clip-rule="evenodd" d="M69.9888 36.8234L73.644 33.1454L62.5869 22.0883L44.1767 40.4986L62.5869 58.9117L73.644 47.8547L62.5869 36.8234L58.9117 40.5215L66.2879 47.8776L62.5869 51.5786L51.5098 40.5215L62.5869 29.4444L69.9888 36.8234Z" fill="#3FBA95"/>
<path fill-rule="evenodd" clip-rule="evenodd" d="M73.6439 40.5214L77.3449 44.1766L81 40.4985L77.3449 36.8233L73.6439 40.5214Z" fill="#3FBA95"/>
<path fill-rule="evenodd" clip-rule="evenodd" d="M36.8005 11.0341L33.1225 7.35602L22.0883 18.4102L40.5215 36.8233L58.9117 18.4102L47.8776 7.35602L36.8005 18.4331L40.4986 22.0882L47.8776 14.7322L51.5556 18.4331L40.4986 29.4902L29.4444 18.4331L36.8005 11.0341Z" fill="#4FC6EB"/>
<path fill-rule="evenodd" clip-rule="evenodd" d="M40.4986 7.35608L44.1766 3.65513L40.4986 0L36.8005 3.65513L40.4986 7.35608Z" fill="#4FC6EB"/>
<path fill-rule="evenodd" clip-rule="evenodd" d="M11.0112 44.1767L7.3561 47.8547L18.4103 58.9117L36.8234 40.5215L18.4103 22.0883L7.3561 33.1454L18.4103 44.1767L22.0883 40.5215L14.7093 33.1454L18.4103 29.4444L29.4902 40.5215L18.4103 51.5786L11.0112 44.1767Z" fill="#EA3C71"/>
<path fill-rule="evenodd" clip-rule="evenodd" d="M7.35608 40.5214L3.65513 36.8233L0 40.4985L3.65513 44.1766L7.35608 40.5214Z" fill="#EA3C71"/>
<path fill-rule="evenodd" clip-rule="evenodd" d="M40.4986 73.6668L36.8234 77.3449L40.4986 81L44.1767 77.3449L40.4986 73.6668Z" fill="#EFBB45"/>
<path fill-rule="evenodd" clip-rule="evenodd" d="M44.1766 69.9889L47.8547 73.644L58.9117 62.5869L40.4986 44.1767L22.0883 62.5869L33.1454 73.644L44.1766 62.6099L40.4986 58.9347L33.1225 66.3108L29.4215 62.6099L40.4986 51.5328L51.5556 62.6099L44.1766 69.9889Z" fill="#EFBB45"/>
</svg>
