<?xml version="1.0"?>
<svg version="1.1" id="圖層_1" xmlns="http://www.w3.org/2000/svg" x="0" y="0" viewBox="0 0 100 100" xml:space="preserve"><circle cx="50" cy="50" r="40" stroke="#333" fill="none" stroke-width="4" stroke-miterlimit="10"/><path d="M40.121 38.632l1.706-1.706a5.445 5.445 0 0 0 0-7.7l-2.632-2.632a5.445 5.445 0 0 0-7.7 0L30.18 27.91l-2.949 2.949a7.646 7.646 0 0 0-1.153 9.314c8.384 14.115 19.634 25.364 33.749 33.749a7.645 7.645 0 0 0 9.314-1.153l2.949-2.949 1.316-1.316a5.445 5.445 0 0 0 0-7.7l-2.632-2.632a5.445 5.445 0 0 0-7.7 0l-1.706 1.706a2.355 2.355 0 0 1-3.141.178 122.9 122.9 0 0 1-18.285-18.285 2.353 2.353 0 0 1 .179-3.139z" stroke="#333" fill="none" stroke-width="4" stroke-miterlimit="10"/><metadata xmlns:d="https://loading.io/stock/"><d:name>call</d:name><d:tags>call,dial,connect,contact,talk,speak,phone call</d:tags><d:license>by</d:license><d:slug>ccgw9r</d:slug></metadata></svg>