<svg width="24" height="24" viewBox="0 0 24 24" fill="none" xmlns="http://www.w3.org/2000/svg">
<path d="M14.0893 14.9056L12.1444 16.8222C11.1295 16.2114 10.1866 15.4882 9.3336 14.6664C8.51276 13.8132 7.78943 12.8713 7.17698 11.8581L9.0936 9.91317C9.20996 9.79537 9.28859 9.64559 9.31946 9.48292C9.35033 9.32026 9.33204 9.15208 9.26693 8.99985L7.26697 4.34162C7.18833 4.15866 7.04676 4.00991 6.86791 3.92232C6.68906 3.83473 6.48475 3.81409 6.29199 3.86413L2.6254 4.83327C2.44206 4.88051 2.28026 4.98878 2.16666 5.14025C2.05306 5.29171 1.99443 5.47735 2.00042 5.66659C2.23358 9.928 4.00582 13.9599 6.98781 17.013C10.042 19.9959 14.0756 21.7679 18.3384 21.9996C18.5275 22.0056 18.7131 21.9471 18.8645 21.8337C19.016 21.7202 19.1243 21.5586 19.1717 21.3754L20.14 17.7088C20.1912 17.5156 20.1713 17.3104 20.0838 17.1306C19.9963 16.9509 19.8471 16.8086 19.6634 16.7297L15.0051 14.7297C14.8524 14.6644 14.6835 14.6462 14.5203 14.6775C14.3572 14.7089 14.2071 14.7883 14.0893 14.9056Z" fill="white"/>
<path d="M22 10.3332H20.3334C20.3314 8.56569 19.6284 6.87119 18.3786 5.6214C17.1288 4.37162 15.4343 3.66862 13.6668 3.66663V2C15.8762 2.00243 17.9943 2.88116 19.5566 4.4434C21.1188 6.00565 21.9976 8.12381 22 10.3332Z" fill="white"/>
<path d="M18.6667 10.3332H17.0001C17.0001 9.44912 16.6489 8.60129 16.0238 7.97618C15.3987 7.35108 14.5509 6.99989 13.6668 6.99989V5.33326C14.9925 5.33459 16.2635 5.86178 17.2008 6.79916C18.1382 7.73654 18.6654 9.00751 18.6667 10.3332Z" fill="white"/>
</svg>
