<svg width="32" height="32" viewBox="0 0 32 32" fill="none" xmlns="http://www.w3.org/2000/svg">
<circle cx="16" cy="16" r="15.5" fill="#F5F5F5" stroke="white"/>
<path d="M22.875 11.0781H20.2188L19.5859 9.30467C19.5422 9.18332 19.4621 9.07843 19.3565 9.00432C19.251 8.93021 19.1251 8.8905 18.9961 8.89061H13.0039C12.7402 8.89061 12.5039 9.05663 12.416 9.30467L11.7812 11.0781H9.125C8.26172 11.0781 7.5625 11.7773 7.5625 12.6406V21.5469C7.5625 22.4101 8.26172 23.1094 9.125 23.1094H22.875C23.7383 23.1094 24.4375 22.4101 24.4375 21.5469V12.6406C24.4375 11.7773 23.7383 11.0781 22.875 11.0781ZM16 19.9844C14.2734 19.9844 12.875 18.5859 12.875 16.8594C12.875 15.1328 14.2734 13.7344 16 13.7344C17.7266 13.7344 19.125 15.1328 19.125 16.8594C19.125 18.5859 17.7266 19.9844 16 19.9844ZM14.125 16.8594C14.125 17.3566 14.3225 17.8336 14.6742 18.1852C15.0258 18.5368 15.5027 18.7344 16 18.7344C16.4973 18.7344 16.9742 18.5368 17.3258 18.1852C17.6775 17.8336 17.875 17.3566 17.875 16.8594C17.875 16.3621 17.6775 15.8852 17.3258 15.5335C16.9742 15.1819 16.4973 14.9844 16 14.9844C15.5027 14.9844 15.0258 15.1819 14.6742 15.5335C14.3225 15.8852 14.125 16.3621 14.125 16.8594Z" fill="#3FBA95"/>
</svg>
