<svg width="61" height="10" viewBox="0 0 61 10" fill="none" xmlns="http://www.w3.org/2000/svg">
<path d="M59.1001 7.71004C58.2784 7.76085 57.4692 7.93617 56.7001 8.23003C57.1201 6.40003 55.7001 5.23003 52.5101 5.39003C50.6257 5.50507 48.7639 5.8613 46.9701 6.45003C48.9701 3.68003 48.4901 1.72003 45.3901 1.72003C43.1281 1.85737 40.914 2.43126 38.8701 3.41003C39.0301 1.55003 37.7001 0.410034 34.8701 0.410034C31.3401 0.410034 26.2601 2.16003 21.3501 4.87003C21.2101 4.08003 20.4701 3.62003 19.1101 3.62003C16.5746 3.84064 14.1194 4.61923 11.9201 5.90002H11.3901C7.50577 6.33712 3.79453 7.74733 0.600098 10H59.6001C61.0001 8.65003 60.8501 7.64004 59.1001 7.71004Z" fill="#8CE1A7"/>
</svg>
