<svg width="69" height="15" viewBox="0 0 69 15" fill="none" xmlns="http://www.w3.org/2000/svg">
<path d="M88.49 10.52C87.1283 10.5904 85.7826 10.846 84.49 11.28C84.18 8.63 80.99 7.01 75.31 7.19C72.1582 7.33347 69.0338 7.84356 66 8.70999C68 4.70999 66 1.89 60.42 1.89C56.7327 2.03158 53.1041 2.85904 49.72 4.33C48.91 1.65 45.87 0 40.72 0C32.58 0 21.57 4.18999 13.15 10.07C9.09999 10.17 1.33 12.49 0 14.57H90C90.14 14.44 90.28 14.32 90.42 14.18C92.62 12.06 91.76 10.42 88.49 10.52Z" fill="#B3EBC5"/>
</svg>
