<svg width="121" height="19" viewBox="0 0 121 19" fill="none" xmlns="http://www.w3.org/2000/svg">
<path d="M118.034 14.4521C116.379 14.5648 114.75 14.9169 113.199 15.4972C114.031 11.8556 111.203 9.62656 104.746 9.87151C100.943 10.1028 97.185 10.8079 93.5632 11.9699C97.6153 6.48302 96.6418 2.59648 90.3848 2.59648C86.8237 2.59648 82.1393 3.85388 77.2302 5.95229C77.5547 2.26171 74.8755 0 69.1178 0C61.9872 0 51.7531 3.4783 41.8268 8.83455C41.5606 7.27503 40.0629 6.38505 37.3088 6.38505C33.498 6.38505 28.1563 8.14052 22.823 10.9003C22.4818 10.9003 22.124 10.9003 21.7413 10.9003C14.9934 11.3575 5.4998 14.9257 0 19H119.099C121.969 16.33 121.57 14.3214 118.034 14.4521Z" fill="#D9F5E2"/>
</svg>
