<svg width="32" height="32" viewBox="0 0 32 32" fill="none" xmlns="http://www.w3.org/2000/svg">
<path d="M16.0003 17.1111C17.2276 17.1111 18.2225 16.1162 18.2225 14.8889C18.2225 13.6616 17.2276 12.6667 16.0003 12.6667C14.773 12.6667 13.7781 13.6616 13.7781 14.8889C13.7781 16.1162 14.773 17.1111 16.0003 17.1111Z" fill="#EA3C71"/>
<path d="M23.7781 7.1111V4.33332C23.7781 3.41332 23.0314 2.66666 22.1114 2.66666C21.1914 2.66666 20.4448 3.41332 20.4448 4.33332V7.1111H19.3337V4.33332C19.3337 3.41332 18.587 2.66666 17.667 2.66666C16.747 2.66666 16.0003 3.41332 16.0003 4.33332V7.1111H14.8892V4.33332C14.8892 3.41332 14.1425 2.66666 13.2225 2.66666C12.3025 2.66666 11.5559 3.41332 11.5559 4.33332V7.1111H10.4448V4.33332C10.4448 3.41332 9.6981 2.66666 8.7781 2.66666C7.8581 2.66666 7.11144 3.41332 7.11144 4.33332V7.1111H2.66699V22.6667H7.40255C8.39033 26.4989 11.8592 29.3333 16.0003 29.3333C20.1414 29.3333 23.6092 26.4989 24.5981 22.6667H29.3337V7.1111H23.7781ZM27.1114 20.4444H24.8892V11.5555C22.4348 11.5555 20.4448 13.5455 20.4448 16V19.3333C19.3248 19.3333 18.3148 19.7611 17.5337 20.4444C16.0003 21.8678 15.4448 23.8122 15.4448 23.8122C15.4448 23.8122 14.8725 22.3678 15.1425 20.4444H4.88921V9.33332H27.1114V20.4444Z" fill="#EA3C71"/>
</svg>
