<svg id="Layer_1" enable-background="new 0 0 512 512" height="512" viewBox="0 0 512 512" width="512" xmlns="http://www.w3.org/2000/svg"><g><g><g><path d="m248.352 394.085c0-4.203 3.401-7.614 7.614-7.614 4.203 0 7.614 3.411 7.614 7.614 0 4.204-3.411 7.614-7.614 7.614-4.213 0-7.614-3.41-7.614-7.614zm30.842-4.517c-1.868-3.766-.335-8.345 3.431-10.212 3.766-1.868 8.335-.335 10.203 3.431 1.868 3.766.335 8.335-3.431 10.202-1.087.548-2.244.802-3.381.802-2.802 0-5.492-1.553-6.822-4.223zm-57.663 2.924c-3.766-1.879-5.289-6.447-3.411-10.213 1.878-3.756 6.457-5.279 10.213-3.4 3.766 1.878 5.289 6.446 3.411 10.212-1.33 2.67-4.02 4.213-6.822 4.213-1.137 0-2.305-.264-3.391-.812zm86.474-17.898c-2.132-3.634-.923-8.294 2.711-10.426 3.624-2.132 8.284-.924 10.416 2.71 2.132 3.625.924 8.284-2.701 10.416-1.218.711-2.538 1.056-3.848 1.056-2.619 0-5.157-1.35-6.578-3.756zm-115.488 2.122c-3.624-2.142-4.822-6.812-2.68-10.427 2.142-3.625 6.812-4.822 10.426-2.68 3.625 2.141 4.822 6.812 2.68 10.426-1.421 2.406-3.949 3.746-6.558 3.746-1.32.001-2.65-.344-3.868-1.065zm143.152-19.137c-2.406-3.451-1.553-8.203 1.898-10.598h-.01c3.452-2.406 8.203-1.563 10.608 1.888 2.396 3.452 1.554 8.193-1.898 10.599-1.32.924-2.843 1.37-4.345 1.37-2.406 0-4.771-1.137-6.253-3.259zm-170.958 1.229c-3.442-2.416-4.274-7.167-1.858-10.609 2.406-3.441 7.157-4.274 10.599-1.858 3.442 2.417 4.274 7.168 1.868 10.609-1.482 2.112-3.848 3.239-6.243 3.239-1.513 0-3.036-.447-4.366-1.381zm197.19-20.385c-2.69-3.228-2.254-8.03.975-10.72 3.228-2.701 8.03-2.253 10.72.975 2.69 3.228 2.253 8.03-.975 10.72-1.422 1.188-3.147 1.767-4.873 1.767-2.182-.001-4.344-.935-5.847-2.742zm-223.493.234c-3.219-2.701-3.645-7.503-.944-10.731 2.701-3.218 7.502-3.644 10.73-.944 3.218 2.701 3.645 7.502.944 10.73-1.502 1.797-3.665 2.721-5.837 2.721-1.726 0-3.462-.579-4.893-1.776zm247.939-21.614c-2.985-2.974-2.995-7.786-.031-10.771 2.964-2.984 7.776-3.005 10.761-.031 2.985 2.954 3.005 7.777.041 10.762-1.493 1.502-3.452 2.253-5.411 2.253-1.939 0-3.878-.741-5.36-2.213zm-272.355-.863s0 0 0-.01c-2.954-2.984-2.924-7.806.071-10.761 2.995-2.954 7.817-2.924 10.771.07 2.954 2.995 2.924 7.807-.071 10.762-1.492 1.472-3.421 2.203-5.35 2.203-1.969 0-3.928-.761-5.421-2.264zm294.618-22.791c-3.279-2.63-3.807-7.422-1.167-10.7 2.629-3.28 7.431-3.797 10.7-1.168 3.279 2.639 3.807 7.431 1.167 10.71-1.502 1.868-3.705 2.842-5.939 2.842-1.675.001-3.36-.546-4.761-1.684zm-316.728-2.081c-2.619-3.288-2.081-8.07 1.208-10.7 3.279-2.618 8.07-2.081 10.7 1.208 2.619 3.289 2.081 8.081-1.208 10.7-1.401 1.116-3.076 1.665-4.741 1.665-2.244 0-4.457-.985-5.959-2.873zm336.301-23.837c-3.564-2.234-4.65-6.924-2.417-10.487h.01c2.223-3.563 6.923-4.65 10.487-2.416 3.563 2.234 4.639 6.934 2.416 10.497-1.452 2.305-3.929 3.574-6.467 3.574-1.38 0-2.77-.375-4.029-1.168zm-355.56-3.411c-2.213-3.573-1.117-8.263 2.457-10.487 3.564-2.213 8.264-1.116 10.477 2.457 2.223 3.574 1.127 8.264-2.447 10.487-1.249.772-2.64 1.137-4.01 1.137-2.548 0-5.035-1.269-6.477-3.594zm371.884-24.648c-3.817-1.767-5.482-6.294-3.715-10.111 1.756-3.818 6.284-5.482 10.101-3.716 3.817 1.766 5.482 6.283 3.716 10.1-1.279 2.792-4.04 4.427-6.913 4.427-1.067 0-2.154-.223-3.189-.7zm-387.69-4.812c-1.746-3.828-.061-8.345 3.766-10.091 3.827-1.746 8.345-.06 10.081 3.766 1.746 3.828.061 8.346-3.756 10.091-1.026.467-2.101.69-3.157.69-2.894 0-5.655-1.655-6.934-4.456zm400.268-25.126c-4.02-1.249-6.274-5.502-5.035-9.522 1.249-4.02 5.502-6.275 9.522-5.025 4.02 1.238 6.274 5.502 5.035 9.512-1.015 3.269-4.03 5.37-7.279 5.37-.74 0-1.502-.102-2.243-.335zm-412.115-6.182c-1.218-4.031 1.056-8.274 5.076-9.503 4.03-1.218 8.274 1.056 9.492 5.076h.01c1.218 4.03-1.056 8.274-5.076 9.503-.741.223-1.482.324-2.213.324-3.269 0-6.294-2.112-7.289-5.4zm420.531-25.188c-4.162-.558-7.096-4.385-6.548-8.548.558-4.173 4.385-7.106 8.548-6.548 4.172.548 7.106 4.376 6.548 8.548-.508 3.828-3.776 6.61-7.533 6.61-.335 0-.67-.021-1.015-.062zm-427.78-7.765v.01c-.528-4.183 2.426-7.99 6.599-8.507 4.172-.528 7.979 2.436 8.507 6.609.518 4.173-2.436 7.98-6.609 8.497-.325.041-.64.06-.954.06-3.786 0-7.066-2.812-7.543-6.669zm422.359-31.756c-.244-4.203 2.964-7.796 7.157-8.04 4.203-.254 7.797 2.954 8.051 7.147.243 4.203-2.964 7.796-7.157 8.05-.152.01-.304.01-.457.01-4 0-7.35-3.116-7.594-7.167zm-416.268 5.989c-4.193-.284-7.371-3.908-7.096-8.101.274-4.193 3.899-7.37 8.101-7.096 4.193.275 7.371 3.898 7.096 8.091-.264 4.031-3.614 7.117-7.594 7.117-.162 0-.334 0-.507-.011zm411.456-36.536c-1.066-4.072 1.371-8.234 5.431-9.299 4.071-1.066 8.233 1.36 9.299 5.431 1.076 4.061-1.361 8.224-5.431 9.299-.639.163-1.299.244-1.939.244-3.37 0-6.456-2.253-7.36-5.675zm-407.659 4.284c-4.061-1.106-6.456-5.289-5.35-9.34 1.096-4.061 5.279-6.456 9.34-5.36 4.051 1.107 6.456 5.29 5.35 9.351-.924 3.391-3.99 5.613-7.34 5.613-.66 0-1.33-.081-2-.264zm396.715-33.024c-1.929-3.736-.467-8.325 3.269-10.253 3.746-1.929 8.335-.467 10.264 3.279 1.929 3.737.457 8.325-3.279 10.254-1.117.578-2.304.853-3.482.853-2.762-.001-5.421-1.504-6.772-4.133zm-386.462 2.214c-3.715-1.96-5.147-6.569-3.177-10.285 1.959-3.726 6.568-5.146 10.284-3.187 3.716 1.97 5.147 6.568 3.188 10.294h-.01c-1.36 2.59-4 4.061-6.74 4.061-1.189-.001-2.408-.285-3.545-.883zm369.275-27.411c-2.792-3.148-2.497-7.96.65-10.752 3.147-2.792 7.959-2.497 10.741.65 2.792 3.147 2.507 7.959-.639 10.751-1.452 1.279-3.259 1.918-5.056 1.918-2.102.001-4.193-.871-5.696-2.567zm-352.311-.264c-3.127-2.822-3.37-7.634-.548-10.751 2.823-3.127 7.634-3.37 10.751-.548 3.127 2.813 3.37 7.635.548 10.751-1.502 1.666-3.573 2.508-5.655 2.508-1.817 0-3.644-.651-5.096-1.96zm175.618-12.69c-2.609-3.299-2.041-8.091 1.259-10.7 3.299-2.598 8.091-2.03 10.7 1.269 2.599 3.299 2.03 8.092-1.269 10.69-1.401 1.106-3.055 1.635-4.71 1.635-2.255 0-4.478-.996-5.98-2.894zm153.729-6.923h-.01c-3.513-2.305-4.487-7.025-2.183-10.548 2.305-3.513 7.025-4.487 10.538-2.182 3.523 2.304 4.497 7.025 2.193 10.538-1.462 2.234-3.888 3.441-6.376 3.441-1.43-.001-2.882-.406-4.162-1.249zm-305.967-2.894c-2.284-3.532-1.269-8.243 2.264-10.528 3.533-2.273 8.243-1.258 10.528 2.264 2.274 3.532 1.259 8.253-2.274 10.528-1.269.822-2.701 1.218-4.122 1.218-2.498.001-4.944-1.227-6.396-3.482zm127.467-4.355c-3.817-1.777-5.462-6.304-3.686-10.121 1.777-3.807 6.304-5.462 10.111-3.685 3.817 1.777 5.462 6.304 3.686 10.121-1.289 2.772-4.04 4.396-6.904 4.396-1.075 0-2.171-.223-3.207-.711zm51.501-4.243c-1.746-3.827-.051-8.335 3.776-10.081 3.827-1.747 8.345-.052 10.081 3.776 1.746 3.827.051 8.345-3.777 10.091v-.011c-1.025.467-2.091.691-3.147.691-2.893.001-5.654-1.665-6.933-4.466zm99.61-1.696c-4-1.31-6.172-5.614-4.863-9.614 1.32-3.99 5.624-6.163 9.614-4.853 4 1.31 6.172 5.614 4.863 9.614-1.056 3.198-4.04 5.239-7.238 5.239-.782 0-1.584-.122-2.376-.386zm-250.143-5.339c-1.279-4 .934-8.284 4.944-9.563 4-1.28 8.284.934 9.563 4.943 1.279 4-.934 8.284-4.944 9.564-.771.243-1.543.365-2.314.365-3.218 0-6.213-2.071-7.249-5.309zm69.967 1.766c-4.132-.822-6.812-4.822-5.99-8.953.822-4.122 4.822-6.802 8.954-5.98 4.121.813 6.801 4.822 5.979 8.944-.721 3.625-3.898 6.142-7.462 6.142-.486-.001-.983-.051-1.481-.153zm110.909-6.253c-.782-4.132 1.939-8.112 6.071-8.894 4.132-.781 8.112 1.939 8.893 6.071.782 4.132-1.939 8.112-6.071 8.893-.477.091-.954.132-1.421.132-3.593 0-6.781-2.548-7.472-6.202zm39.359 4.121c-4.203-.254-7.39-3.858-7.137-8.061.254-4.193 3.858-7.39 8.061-7.136 4.193.254 7.39 3.867 7.137 8.06-.243 4.041-3.604 7.158-7.594 7.158-.152 0-.314-.011-.467-.021zm-188.713-7.329c-.213-4.193 3.015-7.777 7.218-7.99 4.203-.213 7.777 3.015 7.99 7.218.213 4.203-3.015 7.776-7.218 7.989-.121.011-.254.011-.386.011-4.03 0-7.391-3.158-7.604-7.228z" fill="#e8f3ff"/><path d="m168.27 304.776c-39.589-32.876-70.981-74.811-83.312-126.155-10.302-42.894 1.248-95.159 40.269-120.074 44.321-28.299 105.728-10.165 130.737 35.079 25.072-45.358 86.331-63.22 130.737-35.079 39.081 24.766 50.542 77.3 40.269 120.074-12.295 51.193-43.539 93.033-82.963 125.865z" fill="#ff8ccc"/><g><path d="m386.701 58.547c-20.685-13.108-45.026-16.235-67.664-11.25 9.39 2.143 18.533 5.849 27.056 11.25 39.081 24.766 50.542 77.3 40.269 120.074-12.295 51.193-43.539 93.033-82.963 125.865h40.608c39.424-32.832 70.668-74.672 82.963-125.865 10.273-42.774-1.188-95.308-40.269-120.074z" fill="#ff78c2"/></g><g><path d="m299.456 267.934c-.19-.079-.387-.156-.579-.235-11.527 10.125-26.533 16.366-42.917 16.366-16.43 0-31.465-6.271-42.999-16.436-.183.103-.368.196-.551.301-17.955 7.941-33.314 20.653-44.528 36.52 23.851 19.869 50.695 36.443 78.153 49.794 6.276 3.052 13.581 3.052 19.857 0 27.442-13.343 54.272-29.905 78.112-49.76-11.215-15.88-26.583-28.602-44.548-36.55z" fill="#a6f5cf"/><path d="m255.96 189.946c14.349 20.679 41.421 30.044 65.457 22.522 0-2.122-.05-4.211-.148-6.267-1.987-41.65-34.023-64.499-65.882-64.083s-63.539 24.097-64.815 65.775c-.046 1.506-.07 3.031-.07 4.575 24.03 7.52 51.102-1.833 65.458-22.522z" fill="#b36212"/><path d="m321.417 212.468c-24.036 7.522-51.109-1.843-65.457-22.522-14.356 20.689-41.428 30.042-65.457 22.522-3.244 37.476 27.843 71.598 65.457 71.598 37.603 0 68.7-34.116 65.457-71.598z" fill="#ffdbd3"/><path d="m321.417 212.468c-13.548 4.24-28.062 3.114-40.717-2.379l.11 2.379c2.634 30.447-17.391 58.672-45.155 68.195 6.416 2.201 13.246 3.403 20.305 3.403 37.603 0 68.7-34.116 65.457-71.598z" fill="#ffd1c7"/></g></g><g><path d="m280.817 465.288c31.356-4.749 61.559-18.107 83.247-40.632 17.062-18.084 45.091 8.347 28.098 26.502-58.39 62.384-157.202 66.007-231.165 34.321h-58.733v-65.718h57.615c11.499-15.572 34.026-19.471 48.935-6.181 18.159 16.189 44.13 17.223 67.017 13.192 24.081-4.241 31.655 33.105 7.405 37.929" fill="#ffdbd3"/><g><path d="m364.064 424.656c-2.654 2.757-5.437 5.376-8.333 7.859 2.124 5.866 1.387 12.698-4.177 18.643-30.527 32.614-72.101 49.168-115.398 53.012 56.98 4.897 115.986-10.256 156.005-53.012 16.994-18.155-11.035-44.585-28.097-26.502z" fill="#ffd1c7"/></g><g><path d="m102.938 512c-14.268 0-25.834-11.566-25.834-25.834v-66.678c0-14.268 11.566-25.834 25.834-25.834h.001c14.268 0 25.834 11.566 25.834 25.834v66.678c-.002 14.268-11.568 25.834-25.835 25.834z" fill="#7776d0"/></g></g></g><path d="m254.533 474.877c-12.547 0-24.995-1.29-36.92-3.862-4.111-.886-6.724-4.937-5.838-9.047.887-4.11 4.941-6.727 9.048-5.837 19.577 4.22 40.738 4.657 61.198 1.258 4.144-.689 8.069 2.114 8.758 6.263.69 4.148-2.115 8.07-6.263 8.759-9.908 1.645-19.977 2.466-29.983 2.466z" fill="#ffbcad"/></g></svg>