<svg width="20" height="20" viewBox="0 0 20 20" fill="none" xmlns="http://www.w3.org/2000/svg">
<path fill-rule="evenodd" clip-rule="evenodd" d="M13.9131 12.7585L18.3334 17.1788L17.1788 18.3334L12.7585 13.9131L13.9131 12.7585Z" fill="white"/>
<path fill-rule="evenodd" clip-rule="evenodd" d="M9.01451 3.2996C5.85822 3.2996 3.29954 5.85828 3.29954 9.01457C3.29954 12.1709 5.85822 14.7295 9.01451 14.7295C12.1708 14.7295 14.7295 12.1709 14.7295 9.01457C14.7295 5.85828 12.1708 3.2996 9.01451 3.2996ZM1.66669 9.01457C1.66669 4.95648 4.95642 1.66675 9.01451 1.66675C13.0726 1.66675 16.3623 4.95648 16.3623 9.01457C16.3623 13.0727 13.0726 16.3624 9.01451 16.3624C4.95642 16.3624 1.66669 13.0727 1.66669 9.01457Z" fill="white"/>
</svg>
