<svg width="20" height="20" viewBox="0 0 20 20" fill="none" xmlns="http://www.w3.org/2000/svg">
<path d="M14.6875 12.9688C14.1309 12.9688 13.6172 13.1641 13.2148 13.4902L9.16797 10.5625C9.23573 10.1906 9.23573 9.80944 9.16797 9.4375L13.2148 6.50977C13.6172 6.83594 14.1309 7.03125 14.6875 7.03125C15.9805 7.03125 17.0312 5.98047 17.0312 4.6875C17.0312 3.39453 15.9805 2.34375 14.6875 2.34375C13.3945 2.34375 12.3438 3.39453 12.3438 4.6875C12.3438 4.91406 12.375 5.13086 12.4355 5.33789L8.5918 8.12109C8.02148 7.36523 7.11523 6.875 6.09375 6.875C4.36719 6.875 2.96875 8.27344 2.96875 10C2.96875 11.7266 4.36719 13.125 6.09375 13.125C7.11523 13.125 8.02148 12.6348 8.5918 11.8789L12.4355 14.6621C12.375 14.8691 12.3438 15.0879 12.3438 15.3125C12.3438 16.6055 13.3945 17.6562 14.6875 17.6562C15.9805 17.6562 17.0312 16.6055 17.0312 15.3125C17.0312 14.0195 15.9805 12.9688 14.6875 12.9688ZM14.6875 3.67188C15.248 3.67188 15.7031 4.12695 15.7031 4.6875C15.7031 5.24805 15.248 5.70312 14.6875 5.70312C14.127 5.70312 13.6719 5.24805 13.6719 4.6875C13.6719 4.12695 14.127 3.67188 14.6875 3.67188ZM6.09375 11.7188C5.14648 11.7188 4.375 10.9473 4.375 10C4.375 9.05273 5.14648 8.28125 6.09375 8.28125C7.04102 8.28125 7.8125 9.05273 7.8125 10C7.8125 10.9473 7.04102 11.7188 6.09375 11.7188ZM14.6875 16.3281C14.127 16.3281 13.6719 15.873 13.6719 15.3125C13.6719 14.752 14.127 14.2969 14.6875 14.2969C15.248 14.2969 15.7031 14.752 15.7031 15.3125C15.7031 15.873 15.248 16.3281 14.6875 16.3281Z" fill="white"/>
</svg>
