<svg width="20" height="20" viewBox="0 0 20 20" fill="none" xmlns="http://www.w3.org/2000/svg">
<path d="M18.0273 5.53932C17.7655 4.93314 17.3881 4.38383 16.916 3.92213C16.4436 3.45906 15.8866 3.09106 15.2754 2.83815C14.6416 2.57485 13.9617 2.44008 13.2754 2.44166C12.3125 2.44166 11.373 2.70534 10.5566 3.20338C10.3613 3.32252 10.1758 3.45338 10 3.59596C9.82422 3.45338 9.63867 3.32252 9.44336 3.20338C8.62695 2.70534 7.6875 2.44166 6.72461 2.44166C6.03125 2.44166 5.35938 2.57448 4.72461 2.83815C4.11133 3.09205 3.55859 3.45729 3.08398 3.92213C2.61132 4.38331 2.23375 4.93275 1.97266 5.53932C1.70117 6.17018 1.5625 6.8401 1.5625 7.52955C1.5625 8.17995 1.69531 8.85768 1.95898 9.54713C2.17969 10.1233 2.49609 10.721 2.90039 11.3245C3.54102 12.2796 4.42188 13.2756 5.51562 14.2854C7.32812 15.9592 9.12305 17.1155 9.19922 17.1624L9.66211 17.4592C9.86719 17.5901 10.1309 17.5901 10.3359 17.4592L10.7988 17.1624C10.875 17.1135 12.668 15.9592 14.4824 14.2854C15.5762 13.2756 16.457 12.2796 17.0977 11.3245C17.502 10.721 17.8203 10.1233 18.0391 9.54713C18.3027 8.85768 18.4355 8.17995 18.4355 7.52955C18.4375 6.8401 18.2988 6.17018 18.0273 5.53932Z" fill="white"/>
</svg>
