<svg width="16" height="16" viewBox="0 0 16 16" fill="none" xmlns="http://www.w3.org/2000/svg">
<g opacity="0.4">
<circle cx="8" cy="8" r="8" fill="black"/>
<path d="M10.2488 6.83869L9.16188 5.75174C9.02021 5.61007 8.79123 5.61007 8.64956 5.75174L7.81878 6.58254L9.41803 8.18181L10.2488 7.35101C10.3905 7.20935 10.3905 6.98036 10.2488 6.83869Z" fill="white"/>
<path d="M7.30646 7.09485L3.93947 10.4619C3.79781 10.6035 3.79781 10.8325 3.93947 10.9742L5.02641 12.0612C5.09707 12.1318 5.18982 12.1673 5.28257 12.1673C5.37532 12.1673 5.46808 12.1318 5.53873 12.0612L8.90572 8.69413L7.30646 7.09485Z" fill="white"/>
<path d="M9.26803 3.83398H8.54341V4.92094H9.26803V3.83398Z" fill="white"/>
<path d="M11.4675 5.0452L10.9551 4.53281L10.1865 5.30139L10.6989 5.81379L11.4675 5.0452Z" fill="white"/>
<path d="M12.1666 7.45717V6.73254H11.0796V7.45717H12.1666Z" fill="white"/>
<path d="M10.9555 9.65683L11.4679 9.14444L10.6993 8.37585L10.187 8.88824L10.9555 9.65683Z" fill="white"/>
<path d="M6.85627 4.53288L6.34388 5.04527L7.11246 5.81386L7.62485 5.30147L6.85627 4.53288Z" fill="white"/>
</g>
</svg>
