<svg width="89" height="86" viewBox="0 0 89 86" fill="none" xmlns="http://www.w3.org/2000/svg">
<path d="M54.067 80.9457L45.6857 83.4775L45.8559 84.0408L54.2372 81.509L54.067 80.9457Z" fill="#3FBA95"/>
<path d="M60.9345 78.8682L56.4735 80.2158L56.6436 80.7791L61.1046 79.4315L60.9345 78.8682Z" fill="#3FBA95"/>
<path d="M30.1582 85.9735L72.2736 73.1377L61.694 38.425L19.5786 51.2608L30.1582 85.9735Z" fill="#3FBA95"/>
<path d="M77.4424 33.6414L61.6772 38.4463L72.2568 73.159L88.0221 68.3541L77.4424 33.6414Z" fill="#3FBA95"/>
<path opacity="0.3" d="M77.4424 33.6414L61.6772 38.4463L72.2568 73.159L88.0221 68.3541L77.4424 33.6414Z" fill="black"/>
<path opacity="0.3" d="M60.3317 69.1763L79.7754 63.3027L76.471 52.3643L57.0274 58.2379L60.3317 69.1763Z" fill="white"/>
<path d="M27.9266 61.8216L35.2171 59.5996L32.9952 52.3091L25.7047 54.5311L27.9266 61.8216Z" fill="white"/>
<path d="M36.8589 59.097L44.1494 56.875L41.9274 49.5845L34.6369 51.8065L36.8589 59.097Z" fill="white"/>
<path d="M42.428 21.1959C43.8532 20.9651 45.1291 20.1795 45.9768 19.0108C46.8244 17.8421 47.175 16.3853 46.9517 14.959L45.6492 6.77997C45.417 5.35549 44.631 4.08057 43.4627 3.23318C42.2944 2.38578 40.8384 2.03464 39.4122 2.25631C37.9878 2.48851 36.7128 3.27444 35.8655 4.44277C35.0181 5.6111 34.6669 7.06706 34.8886 8.49322L36.1911 16.7074C36.4301 18.1261 37.2192 19.3933 38.3869 20.2337C39.5547 21.0741 41.0068 21.4198 42.428 21.1959Z" fill="#3FBA95"/>
<path opacity="0.3" d="M37.4408 12.0784C37.5547 12.7581 37.8671 13.3888 38.3387 13.8912C38.8103 14.3936 39.4201 14.7451 40.0912 14.9016C40.7623 15.0581 41.4646 15.0124 42.1098 14.7705C42.755 14.5285 43.3142 14.101 43.7168 13.5418C44.1195 12.9826 44.3477 12.3168 44.3727 11.6282C44.3976 10.9395 44.2182 10.2589 43.857 9.67208C43.4959 9.08523 42.9691 8.61838 42.3431 8.33035C41.7172 8.04232 41.0199 7.94599 40.3393 8.05349C39.4228 8.20612 38.6038 8.71488 38.0609 9.46884C37.5179 10.2228 37.295 11.1608 37.4408 12.0784Z" fill="black"/>
<path d="M38.6495 11.8847C38.7199 12.3269 38.9199 12.7383 39.2241 13.067C39.5283 13.3956 39.9231 13.6266 40.3586 13.7309C40.794 13.8352 41.2507 13.8081 41.6707 13.6529C42.0908 13.4978 42.4554 13.2216 42.7186 12.8593C42.9817 12.497 43.1315 12.0648 43.1491 11.6173C43.1667 11.1699 43.0512 10.7272 42.8173 10.3454C42.5834 9.96355 42.2415 9.65962 41.8349 9.47202C41.4283 9.28441 40.9752 9.22155 40.5329 9.29138C39.9398 9.38659 39.4085 9.71296 39.0555 10.199C38.7025 10.6851 38.5565 11.2912 38.6495 11.8847Z" fill="#263238"/>
<path d="M40.8556 10.7576C40.8844 10.9397 40.9843 11.1029 41.1334 11.2113C41.2825 11.3196 41.4685 11.3644 41.6506 11.3356C41.8327 11.3068 41.9958 11.2069 42.1042 11.0578C42.2126 10.9087 42.2573 10.7226 42.2285 10.5406C42.2143 10.4504 42.1824 10.364 42.1347 10.2861C42.0871 10.2083 42.0245 10.1406 41.9507 10.0869C41.8769 10.0333 41.7932 9.99468 41.7045 9.97335C41.6157 9.95202 41.5237 9.94838 41.4335 9.96263C41.3434 9.97688 41.2569 10.0088 41.1791 10.0564C41.1012 10.1041 41.0336 10.1666 40.9799 10.2404C40.9262 10.3143 40.8876 10.3979 40.8663 10.4867C40.845 10.5754 40.8413 10.6675 40.8556 10.7576Z" fill="white"/>
<path d="M39.7467 12.6823C39.7531 12.728 39.7686 12.7719 39.7922 12.8116C39.8159 12.8512 39.8472 12.8857 39.8844 12.913C39.9216 12.9403 39.9638 12.9599 40.0087 12.9707C40.0536 12.9815 40.1001 12.9832 40.1456 12.9757C40.2362 12.9598 40.3169 12.9093 40.3706 12.8347C40.4243 12.7602 40.4468 12.6676 40.4331 12.5767C40.4191 12.4857 40.3695 12.4039 40.2953 12.3495C40.221 12.295 40.1281 12.2723 40.0371 12.2863C39.9461 12.3003 39.8643 12.3499 39.8099 12.4241C39.7554 12.4984 39.7327 12.5913 39.7467 12.6823Z" fill="white"/>
<path d="M70.6203 7.36133L55.7409 8.82815L56.087 10.999L70.9312 9.33273L70.6203 7.36133Z" fill="#3FBA95"/>
<path opacity="0.3" d="M70.6203 7.36133L55.7409 8.82815L56.087 10.999L70.9312 9.33273L70.6203 7.36133Z" fill="white"/>
<path d="M71.518 12.6419C72.1648 12.5365 72.7441 12.1807 73.1306 11.6514C73.517 11.1222 73.6797 10.4621 73.5832 9.81388L72.9965 6.07057C72.8912 5.41868 72.5322 4.83496 71.9979 4.4469C71.4636 4.05883 70.7975 3.89796 70.145 3.99941C69.4931 4.10473 68.9094 4.46373 68.5213 4.99801C68.1333 5.53228 67.9724 6.19841 68.0739 6.85091L68.6606 10.5942C68.7713 11.243 69.1335 11.8219 69.6685 12.2053C70.2034 12.5886 70.868 12.7455 71.518 12.6419Z" fill="#3FBA95"/>
<path d="M55.7937 7.46667L45.655 6.83887L46.8285 14.1202L56.3628 12.6005C56.5161 12.577 56.6632 12.5233 56.7956 12.4425C56.928 12.3618 57.043 12.2556 57.1341 12.1301C57.2253 12.0047 57.2906 11.8624 57.3264 11.7115C57.3622 11.5606 57.3677 11.4041 57.3426 11.2511L56.8967 8.45824C56.8551 8.19122 56.7227 7.94673 56.5217 7.76608C56.3207 7.58542 56.0636 7.47966 55.7937 7.46667Z" fill="#3FBA95"/>
<path d="M68.9481 2.40277C68.9771 2.58382 69.0591 2.75219 69.1838 2.88661C69.3085 3.02103 69.4703 3.11545 69.6487 3.15793C69.827 3.20042 70.014 3.18905 70.1859 3.12528C70.3578 3.06151 70.5069 2.94819 70.6144 2.79966C70.7219 2.65113 70.783 2.47405 70.7898 2.29082C70.7967 2.1076 70.7491 1.92645 70.653 1.77029C70.5569 1.61414 70.4166 1.48998 70.25 1.41353C70.0833 1.33708 69.8978 1.31177 69.7167 1.34079C69.474 1.37971 69.2566 1.51345 69.1125 1.71261C68.9683 1.91176 68.9092 2.16002 68.9481 2.40277Z" fill="#3FBA95"/>
<path d="M72.3218 2.58502L79.7321 1.41156C79.9174 1.37989 80.0828 1.27661 80.1926 1.12401C80.3024 0.971417 80.3477 0.781761 80.3189 0.596011C80.3046 0.50415 80.2723 0.416022 80.2238 0.336717C80.1753 0.257411 80.1115 0.188498 80.0363 0.13395C79.961 0.0794026 79.8757 0.0403003 79.7852 0.0189032C79.6947 -0.00249404 79.6009 -0.00576236 79.5092 0.00928342L72.0988 1.18274C71.9135 1.2144 71.7481 1.31769 71.6383 1.47029C71.5286 1.62288 71.4832 1.81254 71.5121 1.99829C71.5452 2.18172 71.6479 2.34524 71.7988 2.45461C71.9498 2.56397 72.1372 2.6107 72.3218 2.58502Z" fill="#3FBA95"/>
<path d="M60.2176 4.53325L67.628 3.35979C67.7198 3.34553 67.808 3.31321 67.8873 3.2647C67.9666 3.2162 68.0355 3.15247 68.09 3.0772C68.1446 3.00192 68.1837 2.91659 68.2051 2.82612C68.2265 2.73566 68.2297 2.64185 68.2147 2.55011C68.2004 2.45825 68.1681 2.37012 68.1196 2.29082C68.0711 2.21151 68.0074 2.1426 67.9321 2.08805C67.8568 2.0335 67.7715 1.9944 67.681 1.973C67.5906 1.95161 67.4967 1.94834 67.405 1.96338L59.9946 3.13684C59.9028 3.15111 59.8147 3.18342 59.7354 3.23193C59.656 3.28043 59.5871 3.34416 59.5326 3.41944C59.478 3.49471 59.4389 3.58005 59.4175 3.67051C59.3961 3.76098 59.3929 3.85479 59.4079 3.94652C59.4382 4.13135 59.5403 4.29672 59.6919 4.40661C59.8436 4.51651 60.0325 4.56203 60.2176 4.53325Z" fill="#3FBA95"/>
<path d="M11.3373 16.8129L25.9292 13.5801L26.2754 15.751L11.6483 18.7844L11.3373 16.8129Z" fill="#3FBA95"/>
<path opacity="0.3" d="M11.3373 16.8129L25.9292 13.5801L26.2754 15.751L11.6483 18.7844L11.3373 16.8129Z" fill="white"/>
<path d="M12.106 22.1352C11.4532 22.2382 10.7863 22.078 10.2516 21.6896C9.71697 21.3013 9.35833 20.7166 9.25446 20.064L8.66773 16.3207C8.56616 15.6691 8.72624 15.0037 9.11309 14.4696C9.49994 13.9355 10.0822 13.5759 10.733 13.4692C11.3862 13.3677 12.053 13.5284 12.5883 13.9163C13.1235 14.3042 13.4837 14.888 13.5904 15.5404L14.1771 19.2837C14.2802 19.9364 14.1199 20.6033 13.7316 21.138C13.3432 21.6727 12.7586 22.0313 12.106 22.1352Z" fill="#3FBA95"/>
<path d="M25.4599 12.2951L34.9003 8.55176L36.0738 15.833L26.5395 17.3527C26.3864 17.3777 26.2299 17.3722 26.079 17.3364C25.9282 17.3006 25.7858 17.2353 25.6604 17.1442C25.5349 17.0531 25.4287 16.938 25.348 16.8056C25.2672 16.6732 25.2135 16.5261 25.19 16.3728L24.7441 13.58C24.699 13.3163 24.7455 13.0452 24.8757 12.8115C25.0058 12.5778 25.212 12.3956 25.4599 12.2951Z" fill="#3FBA95"/>
<path d="M11.3843 11.5739C11.4153 11.756 11.3913 11.9432 11.3152 12.1115C11.2392 12.2798 11.1146 12.4215 10.9575 12.5186C10.8003 12.6156 10.6178 12.6635 10.4332 12.656C10.2487 12.6486 10.0705 12.5863 9.92169 12.4769C9.77283 12.3676 9.66002 12.2163 9.59773 12.0424C9.53544 11.8686 9.52651 11.68 9.57208 11.5011C9.61764 11.3221 9.71563 11.1608 9.85348 11.0379C9.99133 10.9149 10.1628 10.836 10.3458 10.8112C10.584 10.7788 10.8255 10.8403 11.0192 10.9826C11.213 11.1249 11.3439 11.3369 11.3843 11.5739Z" fill="#3FBA95"/>
<path d="M8.23355 12.7994L0.823186 13.9728C0.637435 14.0017 0.44778 13.9564 0.295184 13.8466C0.142588 13.7368 0.0393019 13.5714 0.00763523 13.3861C-0.0195756 13.2013 0.0265611 13.0131 0.136188 12.8618C0.245814 12.7105 0.410242 12.6081 0.594362 12.5764L8.00473 11.403C8.18979 11.3742 8.37873 11.4197 8.53039 11.5296C8.68204 11.6395 8.78413 11.8049 8.81441 11.9897C8.82951 12.081 8.82646 12.1744 8.80543 12.2645C8.7844 12.3547 8.74581 12.4398 8.69186 12.515C8.63791 12.5902 8.56966 12.654 8.49102 12.7028C8.41238 12.7516 8.32489 12.7844 8.23355 12.7994Z" fill="#3FBA95"/>
<path d="M20.3201 10.8696L12.9098 12.043C12.724 12.0719 12.5344 12.0265 12.3818 11.9168C12.2292 11.807 12.1259 11.6416 12.0942 11.4563C12.067 11.2715 12.1131 11.0833 12.2228 10.932C12.3324 10.7807 12.4968 10.6783 12.6809 10.6466L20.0913 9.47315C20.183 9.4581 20.2769 9.46138 20.3673 9.48277C20.4578 9.50417 20.5431 9.54327 20.6184 9.59782C20.6937 9.65236 20.7574 9.72128 20.8059 9.80059C20.8544 9.87989 20.8867 9.96802 20.901 10.0599C20.9161 10.1512 20.913 10.2446 20.892 10.3347C20.871 10.4248 20.8324 10.5099 20.7784 10.5852C20.7245 10.6604 20.6562 10.7242 20.5776 10.773C20.499 10.8218 20.4115 10.8546 20.3201 10.8696Z" fill="#3FBA95"/>
<path d="M74.8858 33.206C74.8142 33.2077 74.7429 33.1978 74.6746 33.1766L42.9091 24.0882C42.7254 24.0206 42.5741 23.8859 42.4856 23.7112C42.3972 23.5365 42.3782 23.3348 42.4325 23.1467C42.4868 22.9586 42.6103 22.798 42.7782 22.6973C42.9461 22.5965 43.1459 22.5631 43.3374 22.6038L75.0677 31.6922C75.2642 31.7495 75.4301 31.8822 75.529 32.0614C75.628 32.2406 75.652 32.4517 75.5957 32.6486C75.5521 32.8049 75.4597 32.9433 75.332 33.0435C75.2044 33.1438 75.048 33.2007 74.8858 33.206Z" fill="#263238"/>
<path d="M61.174 36.6621C61.0163 36.6614 60.8627 36.6123 60.7339 36.5213L42.6803 23.983C42.5904 23.9277 42.5128 23.8546 42.4522 23.7682C42.3916 23.6818 42.3492 23.584 42.3278 23.4807C42.3064 23.3773 42.3063 23.2707 42.3275 23.1674C42.3488 23.064 42.3909 22.9661 42.4514 22.8796C42.5118 22.7931 42.5893 22.7199 42.6791 22.6644C42.7689 22.6089 42.8691 22.5724 42.9735 22.5571C43.0779 22.5417 43.1843 22.5479 43.2862 22.5751C43.3882 22.6024 43.4835 22.6502 43.5663 22.7156L61.614 35.254C61.7483 35.3484 61.8492 35.483 61.902 35.6384C61.9548 35.7938 61.9569 35.962 61.908 36.1187C61.859 36.2754 61.7615 36.4124 61.6296 36.5101C61.4977 36.6078 61.3381 36.661 61.174 36.6621Z" fill="#263238"/>
<path d="M20.6428 49.7703C20.4937 49.7727 20.347 49.7316 20.2208 49.652C20.0946 49.5725 19.9942 49.4579 19.932 49.3223C19.8698 49.1867 19.8484 49.0359 19.8705 48.8883C19.8925 48.7408 19.957 48.6028 20.0561 48.4913L42.5336 22.8395C42.6682 22.6839 42.8591 22.5882 43.0644 22.5733C43.2696 22.5585 43.4723 22.6257 43.6279 22.7603C43.7835 22.8949 43.8793 23.0858 43.8941 23.2911C43.909 23.4963 43.8417 23.699 43.7071 23.8546L21.2296 49.5063C21.1567 49.5901 21.0664 49.6571 20.9652 49.7027C20.8639 49.7482 20.7539 49.7713 20.6428 49.7703Z" fill="#263238"/>
</svg>
