<svg width="16" height="16" viewBox="0 0 16 16" fill="none" xmlns="http://www.w3.org/2000/svg">
<path d="M5.77828 4.94058L7.55171 1.34527C7.63947 1.16976 7.81645 1.06769 8.00015 1.06714V11.7812L4.45171 13.6468C4.36922 13.6904 4.27617 13.71 4.18312 13.7033C4.09007 13.6967 4.00074 13.6641 3.92526 13.6093C3.84978 13.5545 3.79117 13.4796 3.75608 13.3932C3.72098 13.3067 3.71081 13.2122 3.72671 13.1203L4.40484 9.1687L1.53453 6.37027C1.43948 6.27762 1.3851 6.15102 1.38334 6.0183C1.38159 5.88558 1.43259 5.75759 1.52515 5.66246C1.60171 5.58433 1.70171 5.53277 1.81109 5.51714L5.77828 4.94058Z" fill="url(#paint0_linear)"/>
<defs>
<linearGradient id="paint0_linear" x1="4.69172" y1="13.7046" x2="0.31982" y2="11.948" gradientUnits="userSpaceOnUse">
<stop stop-color="#FFA940"/>
<stop offset="1" stop-color="#FFC069"/>
</linearGradient>
</defs>
</svg>
