<svg width="20" height="20" viewBox="0 0 20 20" fill="none" xmlns="http://www.w3.org/2000/svg">
<path d="M9.99996 10.6945C10.767 10.6945 11.3888 10.0727 11.3888 9.30564C11.3888 8.53858 10.767 7.91675 9.99996 7.91675C9.2329 7.91675 8.61107 8.53858 8.61107 9.30564C8.61107 10.0727 9.2329 10.6945 9.99996 10.6945Z" fill="white"/>
<path d="M14.8611 4.44453V2.70841C14.8611 2.13341 14.3944 1.66675 13.8194 1.66675C13.2444 1.66675 12.7777 2.13341 12.7777 2.70841V4.44453H12.0833V2.70841C12.0833 2.13341 11.6166 1.66675 11.0416 1.66675C10.4666 1.66675 9.99996 2.13341 9.99996 2.70841V4.44453H9.30552V2.70841C9.30552 2.13341 8.83885 1.66675 8.26385 1.66675C7.68885 1.66675 7.22218 2.13341 7.22218 2.70841V4.44453H6.52774V2.70841C6.52774 2.13341 6.06107 1.66675 5.48607 1.66675C4.91107 1.66675 4.4444 2.13341 4.4444 2.70841V4.44453H1.66663V14.1667H4.62635C5.24371 16.5619 7.41177 18.3334 9.99996 18.3334C12.5882 18.3334 14.7555 16.5619 15.3736 14.1667H18.3333V4.44453H14.8611ZM16.9444 12.7779H15.5555V7.2223C14.0215 7.2223 12.7777 8.46605 12.7777 10.0001V12.0834C12.0777 12.0834 11.4465 12.3508 10.9583 12.7779C9.99996 13.6674 9.65274 14.8827 9.65274 14.8827C9.65274 14.8827 9.2951 13.9799 9.46385 12.7779H3.05551V5.83342H16.9444V12.7779Z" fill="white"/>
</svg>
