<svg width="40" height="40" viewBox="0 0 40 40" fill="none" xmlns="http://www.w3.org/2000/svg">
<circle cx="20" cy="20" r="20" fill="#D9F5E2"/>
<path d="M20.0001 9.58337C15.926 9.58337 11.6667 12.6631 11.6667 17.7355C11.6667 22.5363 19.0742 29.8732 19.3519 30.145C19.5371 30.3261 19.7223 30.4167 20.0001 30.4167C20.2779 30.4167 20.463 30.3261 20.6482 30.145C20.926 29.8732 28.3334 22.5363 28.3334 17.7355C28.3334 12.6631 24.0742 9.58337 20.0001 9.58337ZM20.0001 20.4529C18.426 20.4529 17.2223 19.2754 17.2223 17.7355C17.2223 16.1957 18.426 15.0182 20.0001 15.0182C21.5742 15.0182 22.7779 16.1957 22.7779 17.7355C22.7779 19.2754 21.5742 20.4529 20.0001 20.4529Z" fill="#3FBA95"/>
</svg>
