<svg width="32" height="32" viewBox="0 0 32 32" fill="none" xmlns="http://www.w3.org/2000/svg">
<circle cx="16" cy="16" r="16" fill="#E8E8E8"/>
<path d="M20.6875 18.9688C20.1309 18.9688 19.6172 19.1641 19.2148 19.4902L15.168 16.5625C15.2357 16.1906 15.2357 15.8094 15.168 15.4375L19.2148 12.5098C19.6172 12.8359 20.1309 13.0312 20.6875 13.0312C21.9805 13.0312 23.0312 11.9805 23.0312 10.6875C23.0312 9.39453 21.9805 8.34375 20.6875 8.34375C19.3945 8.34375 18.3438 9.39453 18.3438 10.6875C18.3438 10.9141 18.375 11.1309 18.4355 11.3379L14.5918 14.1211C14.0215 13.3652 13.1152 12.875 12.0938 12.875C10.3672 12.875 8.96875 14.2734 8.96875 16C8.96875 17.7266 10.3672 19.125 12.0938 19.125C13.1152 19.125 14.0215 18.6348 14.5918 17.8789L18.4355 20.6621C18.375 20.8691 18.3438 21.0879 18.3438 21.3125C18.3438 22.6055 19.3945 23.6562 20.6875 23.6562C21.9805 23.6562 23.0312 22.6055 23.0312 21.3125C23.0312 20.0195 21.9805 18.9688 20.6875 18.9688ZM20.6875 9.67188C21.248 9.67188 21.7031 10.127 21.7031 10.6875C21.7031 11.248 21.248 11.7031 20.6875 11.7031C20.127 11.7031 19.6719 11.248 19.6719 10.6875C19.6719 10.127 20.127 9.67188 20.6875 9.67188ZM12.0938 17.7188C11.1465 17.7188 10.375 16.9473 10.375 16C10.375 15.0527 11.1465 14.2812 12.0938 14.2812C13.041 14.2812 13.8125 15.0527 13.8125 16C13.8125 16.9473 13.041 17.7188 12.0938 17.7188ZM20.6875 22.3281C20.127 22.3281 19.6719 21.873 19.6719 21.3125C19.6719 20.752 20.127 20.2969 20.6875 20.2969C21.248 20.2969 21.7031 20.752 21.7031 21.3125C21.7031 21.873 21.248 22.3281 20.6875 22.3281Z" fill="black"/>
</svg>
