<svg width="32" height="32" viewBox="0 0 32 32" fill="none" xmlns="http://www.w3.org/2000/svg">
<circle cx="16" cy="16" r="16" fill="white"/>
<path d="M23.7932 9.97173L16.2174 7.699C16.0757 7.65583 15.9243 7.65583 15.7826 7.699L8.20682 9.97173C8.0507 10.0185 7.91382 10.1144 7.81651 10.2451C7.71921 10.3759 7.66666 10.5345 7.66667 10.6975C7.66667 20.9407 15.6379 24.2475 15.7182 24.2801C15.8992 24.3518 16.1008 24.3518 16.2818 24.2801C16.3621 24.2475 24.3333 20.9407 24.3333 10.6975C24.3333 10.5345 24.2808 10.3759 24.1835 10.2451C24.0862 10.1144 23.9493 10.0185 23.7932 9.97173ZM18.3386 18.6604L16 17.4293L13.6591 18.6604L14.1061 16.0536L12.2121 14.2073L14.8295 13.8286L16 11.4551L17.1705 13.827L19.7879 14.2058L17.8939 16.0536L18.3386 18.6604Z" fill="#3FBA95"/>
</svg>
