<svg width="20" height="20" viewBox="0 0 20 20" fill="none" xmlns="http://www.w3.org/2000/svg">
<path d="M10.9617 9.99996L15.7981 4.40103C15.8792 4.30799 15.811 4.16663 15.6858 4.16663H14.2155C14.1289 4.16663 14.046 4.2042 13.9889 4.26862L9.99996 8.88697L6.01106 4.26862C5.95579 4.2042 5.87288 4.16663 5.78444 4.16663H4.31417C4.18888 4.16663 4.12071 4.30799 4.20178 4.40103L9.0382 9.99996L4.20178 15.5989C4.18362 15.6196 4.17197 15.645 4.16821 15.672C4.16445 15.6989 4.16875 15.7264 4.18058 15.7511C4.19241 15.7758 4.21129 15.7966 4.23497 15.8112C4.25865 15.8258 4.28614 15.8334 4.31417 15.8333H5.78444C5.87104 15.8333 5.95395 15.7957 6.01106 15.7313L9.99996 11.1129L13.9889 15.7313C14.0441 15.7957 14.127 15.8333 14.2155 15.8333H15.6858C15.811 15.8333 15.8792 15.6919 15.7981 15.5989L10.9617 9.99996Z" fill="white"/>
</svg>
