<svg width="24" height="24" viewBox="0 0 24 24" fill="none" xmlns="http://www.w3.org/2000/svg">
<path d="M17.5 8.92641C14.8417 8.92641 12 10.8312 12 14.1212C12 17.0649 16.4 21.3074 16.8583 21.7403C17.0417 21.9134 17.3167 22 17.5 22C17.6833 22 17.9583 21.9134 18.1417 21.7403C18.6 21.3074 23 17.0649 23 14.1212C23 10.8312 20.1583 8.92641 17.5 8.92641ZM17.5 15.8528C16.4917 15.8528 15.6667 15.0736 15.6667 14.1212C15.6667 13.1688 16.4917 12.3896 17.5 12.3896C18.5083 12.3896 19.3333 13.1688 19.3333 14.1212C19.3333 15.0736 18.5083 15.8528 17.5 15.8528Z" fill="#3FBA95"/>
<path d="M6.5 11.4372C7.05 12.0433 7.875 12.3896 8.79167 12.3896C9.43333 12.3896 9.98333 12.2164 10.5333 11.8701C11.5417 8.92641 14.5667 7.19481 17.5 7.19481C18.6 7.19481 19.7 7.45455 20.7083 7.88745L17.4083 2.4329C17.225 2.17316 16.95 2 16.5833 2H5.58333C5.21667 2 4.94167 2.17316 4.75833 2.4329L1.09167 8.49351C1 8.66667 1 8.75325 1 8.92641C1 11.0043 2.28333 12.3896 4.20833 12.3896C5.125 12.3896 5.95 12.0433 6.5 11.4372Z" fill="#3FBA95"/>
<path d="M10.1667 14.1212C10.1667 14.0346 10.1667 14.0346 10.1667 13.9481C9.70833 14.0346 9.25 14.1212 8.79167 14.1212C7.96667 14.1212 7.23333 13.9481 6.5 13.6017C5.76667 13.9481 5.03333 14.1212 4.20833 14.1212C4.025 14.1212 3.93333 14.1212 3.75 14.1212V20.1818C3.75 20.7013 4.11667 21.0476 4.66667 21.0476H13.7417C12.0917 19.2294 10.1667 16.4589 10.1667 14.1212Z" fill="#3FBA95"/>
</svg>
