<svg width="18" height="18" viewBox="0 0 18 18" fill="none" xmlns="http://www.w3.org/2000/svg">
<path fill-rule="evenodd" clip-rule="evenodd" d="M12.5217 11.4826L16.5 15.4609L15.4609 16.5L11.4826 12.5217L12.5217 11.4826Z" fill="#8C8C8C"/>
<path fill-rule="evenodd" clip-rule="evenodd" d="M8.11304 2.96956C5.27238 2.96956 2.96956 5.27238 2.96956 8.11304C2.96956 10.9537 5.27238 13.2565 8.11304 13.2565C10.9537 13.2565 13.2565 10.9537 13.2565 8.11304C13.2565 5.27238 10.9537 2.96956 8.11304 2.96956ZM1.5 8.11304C1.5 4.46076 4.46076 1.5 8.11304 1.5C11.7653 1.5 14.7261 4.46076 14.7261 8.11304C14.7261 11.7653 11.7653 14.7261 8.11304 14.7261C4.46076 14.7261 1.5 11.7653 1.5 8.11304Z" fill="#8C8C8C"/>
</svg>
