<svg width="24" height="24" viewBox="0 0 24 24" fill="none" xmlns="http://www.w3.org/2000/svg">
<path d="M14.7688 13.6858C13.9392 14.1933 13.0064 14.5 12 14.5C10.9936 14.5 10.0608 14.1933 9.2312 13.6858C6.3152 13.885 4 16.4133 4 19.5V20.9417L4.556 21.1275C4.6632 21.1625 7.2304 22 12 22C16.7696 22 19.3368 21.1625 19.444 21.1275L20 20.9417V19.5C20 16.4133 17.6848 13.885 14.7688 13.6858Z" fill="#3FBA95"/>
<path d="M12 12.8333C14.7032 12.8333 16.8 9.6975 16.8 7C16.8 4.2425 14.6472 2 12 2C9.3528 2 7.2 4.2425 7.2 7C7.2 9.6975 9.2968 12.8333 12 12.8333Z" fill="#3FBA95"/>
</svg>
