<svg width="32" height="32" viewBox="0 0 32 32" fill="none" xmlns="http://www.w3.org/2000/svg">
<path d="M16.0002 2.66663C10.7853 2.66663 5.3335 6.60866 5.3335 13.1014C5.3335 19.2463 14.815 28.6376 15.1705 28.9855C15.4076 29.2174 15.6446 29.3333 16.0002 29.3333C16.3557 29.3333 16.5928 29.2174 16.8298 28.9855C17.1853 28.6376 26.6668 19.2463 26.6668 13.1014C26.6668 6.60866 21.215 2.66663 16.0002 2.66663ZM16.0002 16.5797C13.9853 16.5797 12.4446 15.0724 12.4446 13.1014C12.4446 11.1304 13.9853 9.62315 16.0002 9.62315C18.015 9.62315 19.5557 11.1304 19.5557 13.1014C19.5557 15.0724 18.015 16.5797 16.0002 16.5797Z" fill="#3FBA95"/>
</svg>
