<svg width="20" height="20" viewBox="0 0 20 20" fill="none" xmlns="http://www.w3.org/2000/svg">
<path d="M5.13897 2.36119C5.13897 1.97716 4.82855 1.66675 4.44453 1.66675H1.66675V3.05564H3.75008V12.7779C3.75008 13.1619 4.0605 13.4723 4.44453 13.4723H18.3334V12.0834H5.13897V2.36119Z" fill="white"/>
<path d="M5.48619 18.3334C6.44502 18.3334 7.2223 17.5561 7.2223 16.5973C7.2223 15.6385 6.44502 14.8612 5.48619 14.8612C4.52736 14.8612 3.75008 15.6385 3.75008 16.5973C3.75008 17.5561 4.52736 18.3334 5.48619 18.3334Z" fill="white"/>
<path d="M16.5973 18.3334C17.5561 18.3334 18.3334 17.5561 18.3334 16.5973C18.3334 15.6385 17.5561 14.8612 16.5973 14.8612C15.6385 14.8612 14.8612 15.6385 14.8612 16.5973C14.8612 17.5561 15.6385 18.3334 16.5973 18.3334Z" fill="white"/>
<path d="M7.2223 10.6945H16.9445C17.3286 10.6945 17.639 10.3841 17.639 10.0001V2.36119C17.639 1.97716 17.3286 1.66675 16.9445 1.66675H7.2223C6.83828 1.66675 6.52786 1.97716 6.52786 2.36119V10.0001C6.52786 10.3841 6.83828 10.6945 7.2223 10.6945Z" fill="white"/>
</svg>
