<svg width="20" height="20" viewBox="0 0 20 20" fill="none" xmlns="http://www.w3.org/2000/svg">
<path d="M18.0253 13.709H6.39441L6.97839 12.5195L16.6815 12.502C17.0096 12.502 17.2909 12.2676 17.3495 11.9434L18.6932 4.42187C18.7284 4.22461 18.6757 4.02148 18.5468 3.86719C18.483 3.79125 18.4036 3.73008 18.3139 3.68792C18.2241 3.64577 18.1263 3.62363 18.0272 3.62305L5.68347 3.58203L5.578 3.08594C5.5116 2.76953 5.22644 2.53906 4.90222 2.53906H1.88464C1.70179 2.53906 1.52642 2.6117 1.39713 2.741C1.26783 2.8703 1.19519 3.04566 1.19519 3.22852C1.19519 3.41137 1.26783 3.58674 1.39713 3.71603C1.52642 3.84533 1.70179 3.91797 1.88464 3.91797H4.34363L4.80457 6.10937L5.93933 11.6035L4.47839 13.9883C4.40252 14.0907 4.35683 14.2123 4.34647 14.3393C4.33612 14.4663 4.36152 14.5937 4.4198 14.707C4.53699 14.9395 4.77331 15.0859 5.03503 15.0859H6.2616C6.00011 15.4332 5.85887 15.8563 5.85925 16.291C5.85925 17.3965 6.75769 18.2949 7.86316 18.2949C8.96863 18.2949 9.86706 17.3965 9.86706 16.291C9.86706 15.8555 9.72253 15.4316 9.46472 15.0859H12.6112C12.3497 15.4332 12.2085 15.8563 12.2089 16.291C12.2089 17.3965 13.1073 18.2949 14.2128 18.2949C15.3182 18.2949 16.2167 17.3965 16.2167 16.291C16.2167 15.8555 16.0721 15.4316 15.8143 15.0859H18.0272C18.4061 15.0859 18.7167 14.7773 18.7167 14.3965C18.7155 14.2138 18.6422 14.039 18.5127 13.9102C18.3831 13.7814 18.2079 13.7091 18.0253 13.709ZM5.97058 4.94141L17.2167 4.97852L16.1151 11.1465L7.28113 11.1621L5.97058 4.94141ZM7.86316 16.9082C7.52331 16.9082 7.24597 16.6309 7.24597 16.291C7.24597 15.9512 7.52331 15.6738 7.86316 15.6738C8.203 15.6738 8.48035 15.9512 8.48035 16.291C8.48035 16.4547 8.41532 16.6117 8.29958 16.7274C8.18383 16.8432 8.02685 16.9082 7.86316 16.9082ZM14.2128 16.9082C13.8729 16.9082 13.5956 16.6309 13.5956 16.291C13.5956 15.9512 13.8729 15.6738 14.2128 15.6738C14.5526 15.6738 14.83 15.9512 14.83 16.291C14.83 16.4547 14.7649 16.6117 14.6492 16.7274C14.5334 16.8432 14.3765 16.9082 14.2128 16.9082Z" fill="white"/>
</svg>
