<svg width="6" height="12" viewBox="0 0 6 12" fill="none" xmlns="http://www.w3.org/2000/svg">
<path d="M5.5288 5.64532L0.477851 0.690688C0.464653 0.677638 0.448791 0.669528 0.432088 0.66729C0.415385 0.665051 0.398518 0.668774 0.383424 0.678032C0.368331 0.68729 0.355622 0.701707 0.346758 0.719627C0.337894 0.737547 0.333234 0.758244 0.333314 0.77934V1.86708C0.333314 1.93603 0.359084 2.00217 0.401661 2.04438L4.43525 5.99993L0.401661 9.95548C0.357964 9.99769 0.333314 10.0638 0.333314 10.1328V11.2205C0.333314 11.3148 0.419588 11.3669 0.477851 11.3092L5.5288 6.35454C5.57173 6.31248 5.60646 6.25868 5.63034 6.19724C5.65423 6.13579 5.66665 6.06831 5.66665 5.99993C5.66665 5.93155 5.65423 5.86407 5.63034 5.80263C5.60646 5.74118 5.57173 5.68738 5.5288 5.64532Z" fill="#262626"/>
</svg>
