<svg width="24" height="24" viewBox="0 0 24 24" fill="none" xmlns="http://www.w3.org/2000/svg">
<path fill-rule="evenodd" clip-rule="evenodd" d="M2 2H6.16667V14.5H22V16.1667H4.5V3.66667H2V2Z" fill="#BFBFBF"/>
<path fill-rule="evenodd" clip-rule="evenodd" d="M7 18.6667C6.53976 18.6667 6.16667 19.0398 6.16667 19.5C6.16667 19.9602 6.53976 20.3333 7 20.3333C7.46024 20.3333 7.83333 19.9602 7.83333 19.5C7.83333 19.0398 7.46024 18.6667 7 18.6667ZM4.5 19.5C4.5 18.1193 5.61929 17 7 17C8.38071 17 9.5 18.1193 9.5 19.5C9.5 20.8807 8.38071 22 7 22C5.61929 22 4.5 20.8807 4.5 19.5Z" fill="#BFBFBF"/>
<path fill-rule="evenodd" clip-rule="evenodd" d="M19.5 18.6667C19.0398 18.6667 18.6667 19.0398 18.6667 19.5C18.6667 19.9602 19.0398 20.3333 19.5 20.3333C19.9602 20.3333 20.3333 19.9602 20.3333 19.5C20.3333 19.0398 19.9602 18.6667 19.5 18.6667ZM17 19.5C17 18.1193 18.1193 17 19.5 17C20.8807 17 22 18.1193 22 19.5C22 20.8807 20.8807 22 19.5 22C18.1193 22 17 20.8807 17 19.5Z" fill="#BFBFBF"/>
<path fill-rule="evenodd" clip-rule="evenodd" d="M7.83333 2H22V12.8333H7.83333V2ZM9.5 3.66667V11.1667H20.3333V3.66667H9.5Z" fill="#BFBFBF"/>
<path fill-rule="evenodd" clip-rule="evenodd" d="M7.83333 5.33333H22V7H7.83333V5.33333Z" fill="#BFBFBF"/>
</svg>
