<svg width="16" height="16" viewBox="0 0 16 16" fill="none" xmlns="http://www.w3.org/2000/svg">
<path d="M8 1C4.13438 1 1 4.13438 1 8C1 11.8656 4.13438 15 8 15C11.8656 15 15 11.8656 15 8C15 4.13438 11.8656 1 8 1ZM10.4172 8.10156L6.57344 10.8828C6.49063 10.9422 6.375 10.8828 6.375 10.7812V10.0484C6.375 9.88906 6.45156 9.7375 6.58125 9.64375L8.85312 8L6.58125 6.35625C6.45156 6.2625 6.375 6.1125 6.375 5.95156V5.21875C6.375 5.11719 6.49063 5.05781 6.57344 5.11719L10.4172 7.89844C10.4859 7.94844 10.4859 8.05156 10.4172 8.10156Z" fill="white"/>
</svg>
