<svg width="24" height="24" viewBox="0 0 24 24" fill="none" xmlns="http://www.w3.org/2000/svg">
<path d="M6.16667 2.83333C6.16667 2.3725 5.79417 2 5.33333 2H2V3.66667H4.5V15.3333C4.5 15.7942 4.8725 16.1667 5.33333 16.1667H22V14.5H6.16667V2.83333Z" fill="url(#paint0_linear)"/>
<path d="M6.58333 22C7.73393 22 8.66667 21.0673 8.66667 19.9167C8.66667 18.7661 7.73393 17.8333 6.58333 17.8333C5.43274 17.8333 4.5 18.7661 4.5 19.9167C4.5 21.0673 5.43274 22 6.58333 22Z" fill="url(#paint1_linear)"/>
<path d="M19.9167 22C21.0673 22 22 21.0673 22 19.9167C22 18.7661 21.0673 17.8333 19.9167 17.8333C18.7661 17.8333 17.8333 18.7661 17.8333 19.9167C17.8333 21.0673 18.7661 22 19.9167 22Z" fill="url(#paint2_linear)"/>
<path d="M8.66667 12.8333H20.3333C20.7942 12.8333 21.1667 12.4608 21.1667 12V2.83333C21.1667 2.3725 20.7942 2 20.3333 2H8.66667C8.20583 2 7.83333 2.3725 7.83333 2.83333V12C7.83333 12.4608 8.20583 12.8333 8.66667 12.8333Z" fill="url(#paint3_linear)"/>
<defs>
<linearGradient id="paint0_linear" x1="12" y1="22" x2="2.34052" y2="14.5874" gradientUnits="userSpaceOnUse">
<stop stop-color="#4DD077"/>
<stop offset="1" stop-color="#8CE1A7"/>
</linearGradient>
<linearGradient id="paint1_linear" x1="12" y1="22" x2="2.34052" y2="14.5874" gradientUnits="userSpaceOnUse">
<stop stop-color="#4DD077"/>
<stop offset="1" stop-color="#8CE1A7"/>
</linearGradient>
<linearGradient id="paint2_linear" x1="12" y1="22" x2="2.34052" y2="14.5874" gradientUnits="userSpaceOnUse">
<stop stop-color="#4DD077"/>
<stop offset="1" stop-color="#8CE1A7"/>
</linearGradient>
<linearGradient id="paint3_linear" x1="12" y1="22" x2="2.34052" y2="14.5874" gradientUnits="userSpaceOnUse">
<stop stop-color="#4DD077"/>
<stop offset="1" stop-color="#8CE1A7"/>
</linearGradient>
</defs>
</svg>
