<svg width="24" height="24" viewBox="0 0 24 24" fill="none" xmlns="http://www.w3.org/2000/svg">
<path fill-rule="evenodd" clip-rule="evenodd" d="M4 19.5C4 16.2781 6.50697 13.6667 9.6 13.6667H14.4C17.493 13.6667 20 16.2781 20 19.5V20.9416L19.4438 21.127L19.2 20.3333C19.4438 21.127 19.4438 21.127 19.4438 21.127L19.4417 21.1277L19.4387 21.1287L19.43 21.1316L19.4014 21.1406C19.3776 21.1481 19.3439 21.1584 19.3006 21.1712C19.214 21.1966 19.0887 21.2317 18.9253 21.2732C18.5985 21.3561 18.1194 21.4645 17.4927 21.5722C16.2391 21.7876 14.3956 22 12 22C9.60444 22 7.76088 21.7876 6.5073 21.5722C5.88057 21.4645 5.40145 21.3561 5.07468 21.2732C4.91129 21.2317 4.786 21.1966 4.69939 21.1712C4.65608 21.1584 4.62244 21.1481 4.59855 21.1406L4.57003 21.1316L4.56127 21.1287L4.55826 21.1277L4.55711 21.1273C4.55711 21.1273 4.55618 21.127 4.8 20.3333L4.55618 21.127L4 20.9416V19.5ZM5.6 19.6901C5.88337 19.7585 6.27353 19.8429 6.7677 19.9278C7.93912 20.1291 9.69556 20.3333 12 20.3333C14.3044 20.3333 16.0609 20.1291 17.2323 19.9278C17.7265 19.8429 18.1166 19.7585 18.4 19.6901V19.5C18.4 17.1986 16.6094 15.3333 14.4 15.3333H9.6C7.39063 15.3333 5.6 17.1986 5.6 19.5V19.6901Z" fill="#BFBFBF"/>
<path fill-rule="evenodd" clip-rule="evenodd" d="M12 3.66667C10.233 3.66667 8.8 5.1594 8.8 7C8.8 7.94315 9.17478 9.01575 9.80142 9.84885C10.4305 10.6852 11.2208 11.1667 12 11.1667C12.7792 11.1667 13.5695 10.6852 14.1986 9.84885C14.8252 9.01575 15.2 7.94315 15.2 7C15.2 5.1594 13.767 3.66667 12 3.66667ZM7.2 7C7.2 4.23893 9.34937 2 12 2C14.6506 2 16.8 4.23893 16.8 7C16.8 8.35769 16.2792 9.78509 15.458 10.8768C14.6393 11.9653 13.4296 12.8333 12 12.8333C10.5704 12.8333 9.36072 11.9653 8.54198 10.8768C7.72082 9.78509 7.2 8.35769 7.2 7Z" fill="#BFBFBF"/>
</svg>
