<svg width="24" height="25" viewBox="0 0 24 25" fill="none" xmlns="http://www.w3.org/2000/svg">
<path d="M4.125 12.4766C4.125 12.6489 4.15895 12.8196 4.22491 12.9788C4.29087 13.1381 4.38755 13.2828 4.50942 13.4046C4.6313 13.5265 4.77599 13.6232 4.93523 13.6892C5.09447 13.7551 5.26514 13.7891 5.4375 13.7891C5.60986 13.7891 5.78053 13.7551 5.93977 13.6892C6.09901 13.6232 6.2437 13.5265 6.36558 13.4046C6.48745 13.2828 6.58413 13.1381 6.65009 12.9788C6.71605 12.8196 6.75 12.6489 6.75 12.4766C6.75 12.3042 6.71605 12.1335 6.65009 11.9743C6.58413 11.8151 6.48745 11.6704 6.36558 11.5485C6.2437 11.4266 6.09901 11.3299 5.93977 11.264C5.78053 11.198 5.60986 11.1641 5.4375 11.1641C5.26514 11.1641 5.09447 11.198 4.93523 11.264C4.77599 11.3299 4.6313 11.4266 4.50942 11.5485C4.38755 11.6704 4.29087 11.8151 4.22491 11.9743C4.15895 12.1335 4.125 12.3042 4.125 12.4766ZM10.6875 12.4766C10.6875 12.8247 10.8258 13.1585 11.0719 13.4046C11.3181 13.6508 11.6519 13.7891 12 13.7891C12.3481 13.7891 12.6819 13.6508 12.9281 13.4046C13.1742 13.1585 13.3125 12.8247 13.3125 12.4766C13.3125 12.1285 13.1742 11.7946 12.9281 11.5485C12.6819 11.3023 12.3481 11.1641 12 11.1641C11.6519 11.1641 11.3181 11.3023 11.0719 11.5485C10.8258 11.7946 10.6875 12.1285 10.6875 12.4766ZM17.25 12.4766C17.25 12.8247 17.3883 13.1585 17.6344 13.4046C17.8806 13.6508 18.2144 13.7891 18.5625 13.7891C18.9106 13.7891 19.2444 13.6508 19.4906 13.4046C19.7367 13.1585 19.875 12.8247 19.875 12.4766C19.875 12.1285 19.7367 11.7946 19.4906 11.5485C19.2444 11.3023 18.9106 11.1641 18.5625 11.1641C18.2144 11.1641 17.8806 11.3023 17.6344 11.5485C17.3883 11.7946 17.25 12.1285 17.25 12.4766Z" fill="#8C8C8C"/>
</svg>
