<svg width="32" height="32" viewBox="0 0 32 32" fill="none" xmlns="http://www.w3.org/2000/svg">
<path d="M15.9998 17.1111C17.2271 17.1111 18.2221 16.1161 18.2221 14.8888C18.2221 13.6615 17.2271 12.6666 15.9998 12.6666C14.7725 12.6666 13.7776 13.6615 13.7776 14.8888C13.7776 16.1161 14.7725 17.1111 15.9998 17.1111Z" fill="#EA3C71"/>
<path d="M23.7776 7.11107V4.33329C23.7776 3.41329 23.0309 2.66663 22.1109 2.66663C21.1909 2.66663 20.4443 3.41329 20.4443 4.33329V7.11107H19.3332V4.33329C19.3332 3.41329 18.5865 2.66663 17.6665 2.66663C16.7465 2.66663 15.9998 3.41329 15.9998 4.33329V7.11107H14.8887V4.33329C14.8887 3.41329 14.1421 2.66663 13.2221 2.66663C12.3021 2.66663 11.5554 3.41329 11.5554 4.33329V7.11107H10.4443V4.33329C10.4443 3.41329 9.69762 2.66663 8.77762 2.66663C7.85762 2.66663 7.11095 3.41329 7.11095 4.33329V7.11107H2.6665V22.6666H7.40206C8.38984 26.4988 11.8587 29.3333 15.9998 29.3333C20.1409 29.3333 23.6087 26.4988 24.5976 22.6666H29.3332V7.11107H23.7776ZM27.111 20.4444H24.8887V11.5555C22.4343 11.5555 20.4443 13.5455 20.4443 16V19.3333C19.3243 19.3333 18.3143 19.7611 17.5332 20.4444C15.9998 21.8677 15.4443 23.8122 15.4443 23.8122C15.4443 23.8122 14.8721 22.3677 15.1421 20.4444H4.88873V9.33329H27.111V20.4444Z" fill="#EA3C71"/>
</svg>
