<svg width="16" height="16" viewBox="0 0 16 16" fill="none" xmlns="http://www.w3.org/2000/svg">
<path d="M13.6085 8.31671C13.8605 7.99345 14 7.59738 14 7.1853C14 6.5315 13.6235 5.91264 13.0175 5.56754C12.8615 5.4787 12.6839 5.43195 12.503 5.43212H8.906L8.996 3.64253C9.017 3.21006 8.8595 2.79943 8.5535 2.48636C8.40333 2.33205 8.22215 2.20928 8.02117 2.12562C7.82019 2.04197 7.60367 1.99922 7.385 2.00001C6.605 2.00001 5.915 2.50966 5.708 3.23918L4.4195 7.76775H4.415V14H11.4995C11.6375 14 11.7725 13.9738 11.897 13.9214C12.611 13.6258 13.0715 12.9487 13.0715 12.1973C13.0715 12.0138 13.0445 11.8333 12.9905 11.6585C13.2425 11.3353 13.382 10.9392 13.382 10.5271C13.382 10.3437 13.355 10.1631 13.301 9.98835C13.553 9.66509 13.6925 9.26903 13.6925 8.85694C13.6895 8.67347 13.6625 8.49145 13.6085 8.31671ZM2 8.23372V13.534C2 13.7918 2.2145 14 2.48 14H3.455V7.76775H2.48C2.2145 7.76775 2 7.97598 2 8.23372Z" fill="url(#paint0_linear)"/>
<defs>
<linearGradient id="paint0_linear" x1="7.99999" y1="14" x2="2.20431" y2="9.55245" gradientUnits="userSpaceOnUse">
<stop stop-color="#4DD077"/>
<stop offset="1" stop-color="#8CE1A7"/>
</linearGradient>
</defs>
</svg>
