<svg width="26" height="26" viewBox="0 0 26 26" fill="none" xmlns="http://www.w3.org/2000/svg">
<path fill-rule="evenodd" clip-rule="evenodd" d="M13.868 5.18754H23.4166V6.92365H13.868V5.18754Z" fill="black"/>
<path fill-rule="evenodd" clip-rule="evenodd" d="M2.58331 5.18754H6.92359V6.92365H2.58331V5.18754Z" fill="black"/>
<path fill-rule="evenodd" clip-rule="evenodd" d="M20.8125 12.132H23.4166V13.8681H20.8125V12.132Z" fill="black"/>
<path fill-rule="evenodd" clip-rule="evenodd" d="M2.58331 12.132H13.868V13.8681H2.58331V12.132Z" fill="black"/>
<path fill-rule="evenodd" clip-rule="evenodd" d="M13.868 19.0764H23.4166V20.8125H13.868V19.0764Z" fill="black"/>
<path fill-rule="evenodd" clip-rule="evenodd" d="M2.58331 19.0764H6.92359V20.8125H2.58331V19.0764Z" fill="black"/>
<path fill-rule="evenodd" clip-rule="evenodd" d="M8.6597 4.31949C7.70087 4.31949 6.92359 5.09677 6.92359 6.0556C6.92359 7.01442 7.70087 7.79171 8.6597 7.79171C9.61853 7.79171 10.3958 7.01442 10.3958 6.0556C10.3958 5.09677 9.61853 4.31949 8.6597 4.31949ZM5.18748 6.0556C5.18748 4.13794 6.74205 2.58337 8.6597 2.58337C10.5774 2.58337 12.1319 4.13794 12.1319 6.0556C12.1319 7.97325 10.5774 9.52782 8.6597 9.52782C6.74205 9.52782 5.18748 7.97325 5.18748 6.0556Z" fill="black"/>
<path fill-rule="evenodd" clip-rule="evenodd" d="M15.6041 11.2639C14.6453 11.2639 13.868 12.0412 13.868 13C13.868 13.9589 14.6453 14.7362 15.6041 14.7362C16.563 14.7362 17.3403 13.9589 17.3403 13C17.3403 12.0412 16.563 11.2639 15.6041 11.2639ZM12.1319 13C12.1319 11.0824 13.6865 9.52782 15.6041 9.52782C17.5218 9.52782 19.0764 11.0824 19.0764 13C19.0764 14.9177 17.5218 16.4723 15.6041 16.4723C13.6865 16.4723 12.1319 14.9177 12.1319 13Z" fill="black"/>
<path fill-rule="evenodd" clip-rule="evenodd" d="M8.6597 18.2084C7.70087 18.2084 6.92359 18.9857 6.92359 19.9445C6.92359 20.9033 7.70087 21.6806 8.6597 21.6806C9.61853 21.6806 10.3958 20.9033 10.3958 19.9445C10.3958 18.9857 9.61853 18.2084 8.6597 18.2084ZM5.18748 19.9445C5.18748 18.0268 6.74205 16.4723 8.6597 16.4723C10.5774 16.4723 12.1319 18.0268 12.1319 19.9445C12.1319 21.8621 10.5774 23.4167 8.6597 23.4167C6.74205 23.4167 5.18748 21.8621 5.18748 19.9445Z" fill="black"/>
</svg>
