<svg width="60" height="55" viewBox="0 0 60 55" fill="none" xmlns="http://www.w3.org/2000/svg">
<path d="M14 18C14 13.5817 17.5817 10 22 10H38C42.4183 10 46 13.5817 46 18V34C46 38.4183 42.4183 42 38 42H22C17.5817 42 14 38.4183 14 34V18Z" fill="#E8E8E8"/>
<rect x="14" y="10" width="32" height="32" rx="8" fill="#E8E8E8"/>
<g filter="url(#filter0_d)">
<path d="M42.5 29.75H40V17.25C40 16.9185 39.8683 16.6005 39.6339 16.3661C39.3995 16.1317 39.0815 16 38.75 16H21.25C20.9185 16 20.6005 16.1317 20.3661 16.3661C20.1317 16.6005 20 16.9185 20 17.25V29.75H17.5V17.25C17.5 16.2554 17.8951 15.3016 18.5983 14.5983C19.3016 13.8951 20.2554 13.5 21.25 13.5H38.75C39.7446 13.5 40.6984 13.8951 41.4017 14.5983C42.1049 15.3016 42.5 16.2554 42.5 17.25V29.75Z" fill="white"/>
<path d="M45 32.25C45 33.5761 44.4732 34.8479 43.5355 35.7855C42.5979 36.7232 41.3261 37.25 40 37.25H20C18.6739 37.25 17.4021 36.7232 16.4645 35.7855C15.5268 34.8479 15 33.5761 15 32.25H45Z" fill="white"/>
<path d="M33.5812 25.4312C33.5926 25.7573 33.529 26.0815 33.3953 26.3791C33.2616 26.6766 33.0613 26.9395 32.81 27.1475C32.185 27.6202 31.4305 27.8906 30.6475 27.9225V29.2975H29.7275V27.95C28.7404 27.9492 27.7633 27.753 26.8525 27.3725V25.6C27.3039 25.8144 27.7748 25.9852 28.2588 26.11C28.738 26.2456 29.2296 26.3331 29.7262 26.3713V24.29L29.2762 24.1163C28.5722 23.8806 27.9293 23.4917 27.3938 22.9775C27.0212 22.5605 26.8229 22.0164 26.84 21.4575C26.834 21.1498 26.8997 20.845 27.0318 20.5671C27.1639 20.2892 27.3589 20.0458 27.6013 19.8562C28.2182 19.3968 28.9579 19.1314 29.7262 19.0938V18.0662H30.6462V19.0662C31.6036 19.095 32.5468 19.3045 33.4262 19.6838L32.795 21.255C32.1097 20.9718 31.385 20.7952 30.6462 20.7312V22.7125C31.2947 22.9424 31.9189 23.2355 32.51 23.5875C32.8388 23.793 33.1163 24.0709 33.3212 24.4C33.4987 24.7143 33.5885 25.0704 33.5812 25.4312ZM28.8612 21.4575C28.8587 21.5485 28.8757 21.639 28.9111 21.7228C28.9464 21.8067 28.9993 21.882 29.0662 21.9438C29.2644 22.1089 29.4876 22.2414 29.7275 22.3363V20.7587C29.15 20.8438 28.8612 21.0767 28.8612 21.4575ZM31.5612 25.5325C31.5617 25.441 31.5414 25.3505 31.5017 25.268C31.4621 25.1855 31.4042 25.1131 31.3325 25.0562C31.1232 24.8917 30.8928 24.7559 30.6475 24.6525V26.325C31.2567 26.2217 31.5612 25.9575 31.5612 25.5325Z" fill="white"/>
</g>
<defs>
<filter id="filter0_d" x="0" y="-2" width="60" height="60" filterUnits="userSpaceOnUse" color-interpolation-filters="sRGB">
<feFlood flood-opacity="0" result="BackgroundImageFix"/>
<feColorMatrix in="SourceAlpha" type="matrix" values="0 0 0 0 0 0 0 0 0 0 0 0 0 0 0 0 0 0 127 0"/>
<feOffset dy="2"/>
<feGaussianBlur stdDeviation="7.5"/>
<feColorMatrix type="matrix" values="0 0 0 0 0 0 0 0 0 0 0 0 0 0 0 0 0 0 0.1 0"/>
<feBlend mode="normal" in2="BackgroundImageFix" result="effect1_dropShadow"/>
<feBlend mode="normal" in="SourceGraphic" in2="effect1_dropShadow" result="shape"/>
</filter>
</defs>
</svg>
