<svg width="21" height="20" viewBox="0 0 21 20" fill="none" xmlns="http://www.w3.org/2000/svg">
<g clip-path="url(#clip0)">
<path d="M19.2135 10.9315C19.9635 9.93347 20.7969 8.51958 20.7969 6.68983C20.7969 3.03034 17.0469 1.78279 16.8802 1.69962C16.5469 1.61645 16.2135 1.69962 16.0469 1.86596L15.2135 2.69766C15.0469 2.94717 14.9635 3.19668 14.9635 3.44619C14.9635 3.69571 15.1302 3.94522 15.3802 4.02839C16.0469 4.44424 16.6302 5.19277 16.6302 5.44228C16.6302 5.60862 16.5469 5.69179 16.4635 5.77496L15.2969 5.35911C12.8802 4.52741 10.2969 5.35911 8.79688 7.35519L8.71354 7.52153H6.96354L5.54687 6.10764C5.46354 6.02447 5.29687 5.9413 5.13021 5.85813L1.79688 5.02643C1.54688 5.02643 1.29688 5.02643 1.13021 5.19277C0.880208 5.35911 0.796875 5.60862 0.796875 5.85813V7.52153C0.796875 7.77104 0.880208 7.93739 1.04688 8.10373L3.38021 10.2662C1.88021 10.9315 0.796875 12.4286 0.796875 14.1751C0.796875 16.5039 2.63021 18.3337 4.96354 18.3337C6.96354 18.3337 8.63021 16.9198 9.04687 15.0069H12.5469C12.9635 16.9198 14.6302 18.3337 16.6302 18.3337C18.9635 18.3337 20.7969 16.5039 20.7969 14.1751C20.7969 12.8444 20.1302 11.68 19.2135 10.9315ZM4.96354 16.6703C3.54688 16.6703 2.46354 15.589 2.46354 14.1751C2.46354 12.7613 3.54688 11.68 4.96354 11.68C6.38021 11.68 7.46354 12.7613 7.46354 14.1751C7.46354 15.589 6.38021 16.6703 4.96354 16.6703ZM16.6302 16.6703C15.2135 16.6703 14.1302 15.589 14.1302 14.1751C14.1302 12.7613 15.2135 11.68 16.6302 11.68C18.0469 11.68 19.1302 12.7613 19.1302 14.1751C19.1302 15.589 18.0469 16.6703 16.6302 16.6703Z" fill="white"/>
</g>
<defs>
<clipPath id="clip0">
<rect width="20" height="20" fill="white" transform="translate(0.796875)"/>
</clipPath>
</defs>
</svg>
