<svg width="21" height="20" viewBox="0 0 21 20" fill="none" xmlns="http://www.w3.org/2000/svg">
<path d="M11.9436 12.4216L10.3228 14.0188C9.47706 13.5098 8.69133 12.9072 7.98047 12.2223C7.29644 11.5113 6.69367 10.7264 6.18329 9.8821L7.78048 8.2613C7.87744 8.16314 7.94296 8.03832 7.96869 7.90276C7.99441 7.76721 7.97918 7.62706 7.92492 7.5002L6.25829 3.61834C6.19275 3.46587 6.07477 3.34192 5.92573 3.26893C5.77669 3.19593 5.60643 3.17873 5.4458 3.22043L2.39031 4.02805C2.23752 4.06742 2.10269 4.15764 2.00803 4.28386C1.91336 4.41009 1.8645 4.56478 1.86949 4.72248C2.06379 8.27366 3.54066 11.6336 6.02565 14.1778C8.57079 16.6636 11.9321 18.1403 15.4845 18.3333C15.6421 18.3383 15.7967 18.2896 15.9229 18.195C16.0491 18.1005 16.1394 17.9658 16.1789 17.8132L16.9858 14.7577C17.0285 14.5967 17.0119 14.4256 16.939 14.2758C16.866 14.1261 16.7417 14.0075 16.5886 13.9417L12.7068 12.2751C12.5794 12.2206 12.4388 12.2055 12.3028 12.2316C12.1668 12.2577 12.0417 12.3239 11.9436 12.4216Z" fill="white"/>
<path d="M18.5358 8.61129H17.1469C17.1453 7.1384 16.5595 5.72632 15.518 4.68483C14.4765 3.64334 13.0644 3.05751 11.5915 3.05585V1.66699C13.4326 1.66901 15.1978 2.40129 16.4996 3.70316C17.8015 5.00503 18.5338 6.77017 18.5358 8.61129Z" fill="white"/>
<path d="M15.7581 8.61129H14.3692C14.3692 7.87459 14.0766 7.16807 13.5557 6.64715C13.0347 6.12622 12.3282 5.83357 11.5915 5.83357V4.44471C12.6962 4.44581 13.7554 4.88515 14.5365 5.66629C15.3177 6.44744 15.757 7.50658 15.7581 8.61129Z" fill="white"/>
</svg>
