<svg width="54" height="56" viewBox="0 0 54 56" fill="none" xmlns="http://www.w3.org/2000/svg">
<path d="M11 18C11 13.5817 14.5817 10 19 10H35C39.4183 10 43 13.5817 43 18V34C43 38.4183 39.4183 42 35 42H19C14.5817 42 11 38.4183 11 34V18Z" fill="#E8E8E8"/>
<rect x="11" y="10" width="32" height="32" rx="8" fill="#E8E8E8"/>
<g filter="url(#filter0_d)">
<path d="M35.1818 23.8747V21.7998C35.1818 19.5985 34.3198 17.4875 32.7854 15.931C31.251 14.3744 29.17 13.5 27 13.5C24.83 13.5 22.749 14.3744 21.2146 15.931C19.6802 17.4875 18.8182 19.5985 18.8182 21.7998V23.8747C18.7931 24.5076 18.6396 25.1283 18.3674 25.6983C18.0952 26.2683 17.71 26.7752 17.236 27.1874C16.3843 27.9236 15.8508 28.9691 15.75 30.0996C15.75 32.6933 19.9555 34.2495 27 34.2495C34.0445 34.2495 38.25 32.6933 38.25 30.0996C38.1492 28.9691 37.6157 27.9236 36.764 27.1874C36.29 26.7752 35.9048 26.2683 35.6326 25.6983C35.3604 25.1283 35.2069 24.5076 35.1818 23.8747Z" fill="white"/>
<path d="M24.0801 36.3244C24.2751 36.9552 24.6634 37.5064 25.1886 37.8977C25.7138 38.289 26.3484 38.5 27 38.5C27.6517 38.5 28.2863 38.289 28.8115 37.8977C29.3366 37.5064 29.725 36.9552 29.9199 36.3244C29.0056 36.3929 28.034 36.4282 27 36.4282C25.966 36.4282 24.9945 36.395 24.0801 36.3244Z" fill="white"/>
</g>
<defs>
<filter id="filter0_d" x="-3" y="-2" width="60" height="60" filterUnits="userSpaceOnUse" color-interpolation-filters="sRGB">
<feFlood flood-opacity="0" result="BackgroundImageFix"/>
<feColorMatrix in="SourceAlpha" type="matrix" values="0 0 0 0 0 0 0 0 0 0 0 0 0 0 0 0 0 0 127 0"/>
<feOffset dy="2"/>
<feGaussianBlur stdDeviation="7.5"/>
<feColorMatrix type="matrix" values="0 0 0 0 0 0 0 0 0 0 0 0 0 0 0 0 0 0 0.1 0"/>
<feBlend mode="normal" in2="BackgroundImageFix" result="effect1_dropShadow"/>
<feBlend mode="normal" in="SourceGraphic" in2="effect1_dropShadow" result="shape"/>
</filter>
</defs>
</svg>
