<svg width="32" height="32" viewBox="0 0 32 32" fill="none" xmlns="http://www.w3.org/2000/svg">
<path d="M0 8C0 3.58172 3.58172 0 8 0H24C28.4183 0 32 3.58172 32 8V24C32 28.4183 28.4183 32 24 32H8C3.58172 32 0 28.4183 0 24V8Z" fill="#FFF1F0"/>
<rect width="32" height="32" rx="8" fill="#FFF1F0"/>
<path d="M24.125 9.125H7.875C7.5293 9.125 7.25 9.4043 7.25 9.75V12.875H24.75V9.75C24.75 9.4043 24.4707 9.125 24.125 9.125ZM7.25 22.25C7.25 22.5957 7.5293 22.875 7.875 22.875H24.125C24.4707 22.875 24.75 22.5957 24.75 22.25V14.5938H7.25V22.25ZM18.5586 18.6562C18.5586 18.5703 18.6289 18.5 18.7148 18.5H21.9375C22.0234 18.5 22.0938 18.5703 22.0938 18.6562V20.0625C22.0938 20.1484 22.0234 20.2188 21.9375 20.2188H18.7148C18.6289 20.2188 18.5586 20.1484 18.5586 20.0625V18.6562Z" fill="#FF4D4F"/>
</svg>
