<svg width="32" height="32" viewBox="0 0 32 32" fill="none" xmlns="http://www.w3.org/2000/svg">
<path d="M0 8C0 3.58172 3.58172 0 8 0H24C28.4183 0 32 3.58172 32 8V24C32 28.4183 28.4183 32 24 32H8C3.58172 32 0 28.4183 0 24V8Z" fill="#EBFAEF"/>
<rect width="32" height="32" rx="8" fill="#EBFAEF"/>
<path d="M22.9438 7.66667H11.8327V10.4444H22.9438V7.66667Z" fill="#4DD077"/>
<path d="M23.6382 11.8333H9.74935C9.36671 11.8333 9.0549 11.5215 9.0549 11.1389C9.0549 10.7563 9.36671 10.4444 9.74935 10.4444H10.4438V9.05556H9.74935C8.59865 9.05556 7.66602 9.9882 7.66602 11.1389V21.5556C7.66602 23.0896 8.90977 24.3333 10.4438 24.3333H23.6382C24.0216 24.3333 24.3327 24.0222 24.3327 23.6389V12.5278C24.3327 12.1444 24.0216 11.8333 23.6382 11.8333ZM20.166 19.4722C19.3987 19.4722 18.7771 18.8507 18.7771 18.0833C18.7771 17.316 19.3987 16.6944 20.166 16.6944C20.9334 16.6944 21.5549 17.316 21.5549 18.0833C21.5549 18.8507 20.9334 19.4722 20.166 19.4722Z" fill="#4DD077"/>
</svg>
