<svg width="32" height="32" viewBox="0 0 32 32" fill="none" xmlns="http://www.w3.org/2000/svg">
<path d="M0 8C0 3.58172 3.58172 0 8 0H24C28.4183 0 32 3.58172 32 8V24C32 28.4183 28.4183 32 24 32H8C3.58172 32 0 28.4183 0 24V8Z" fill="#E6F7FF"/>
<rect width="32" height="32" rx="8" fill="#E6F7FF"/>
<path d="M11.1382 8.36111C11.1382 7.97708 10.8278 7.66667 10.4438 7.66667H7.66602V9.05556H9.74935V18.7778C9.74935 19.1618 10.0598 19.4722 10.4438 19.4722H24.3327V18.0833H11.1382V8.36111Z" fill="#1890FF"/>
<path d="M11.4855 24.3333C12.4443 24.3333 13.2216 23.5561 13.2216 22.5972C13.2216 21.6384 12.4443 20.8611 11.4855 20.8611C10.5266 20.8611 9.74935 21.6384 9.74935 22.5972C9.74935 23.5561 10.5266 24.3333 11.4855 24.3333Z" fill="#1890FF"/>
<path d="M22.5966 24.3333C23.5554 24.3333 24.3327 23.5561 24.3327 22.5972C24.3327 21.6384 23.5554 20.8611 22.5966 20.8611C21.6377 20.8611 20.8605 21.6384 20.8605 22.5972C20.8605 23.5561 21.6377 24.3333 22.5966 24.3333Z" fill="#1890FF"/>
<path d="M13.2216 16.6944H22.9438C23.3278 16.6944 23.6382 16.384 23.6382 16V8.36111C23.6382 7.97708 23.3278 7.66667 22.9438 7.66667H13.2216C12.8375 7.66667 12.5271 7.97708 12.5271 8.36111V16C12.5271 16.384 12.8375 16.6944 13.2216 16.6944Z" fill="#1890FF"/>
</svg>
