<svg width="32" height="32" viewBox="0 0 32 32" fill="none" xmlns="http://www.w3.org/2000/svg">
<path d="M0 8C0 3.58172 3.58172 0 8 0H24C28.4183 0 32 3.58172 32 8V24C32 28.4183 28.4183 32 24 32H8C3.58172 32 0 28.4183 0 24V8Z" fill="#FFF2E8"/>
<rect width="32" height="32" rx="8" fill="#FFF2E8"/>
<path d="M16.0007 7.66667C12.7414 7.66667 9.33398 10.1304 9.33398 14.1884C9.33398 18.029 15.2599 23.8986 15.4821 24.1159C15.6303 24.2609 15.7784 24.3333 16.0007 24.3333C16.2229 24.3333 16.371 24.2609 16.5192 24.1159C16.7414 23.8986 22.6673 18.029 22.6673 14.1884C22.6673 10.1304 19.2599 7.66667 16.0007 7.66667ZM16.0007 16.3623C14.7414 16.3623 13.7784 15.4203 13.7784 14.1884C13.7784 12.9565 14.7414 12.0145 16.0007 12.0145C17.2599 12.0145 18.2229 12.9565 18.2229 14.1884C18.2229 15.4203 17.2599 16.3623 16.0007 16.3623Z" fill="#FF7A45"/>
</svg>
