<svg width="32" height="32" viewBox="0 0 32 32" fill="none" xmlns="http://www.w3.org/2000/svg">
<rect width="32" height="32" rx="8" fill="#D9F5E2"/>
<path d="M25.4758 18.8495L22.3575 17.5337C22.2031 17.4688 22.0707 17.3567 21.9773 17.212C21.8839 17.0672 21.8338 16.8964 21.8333 16.7214V15.9513C22.3387 15.646 22.7589 15.2059 23.0514 14.6755C23.344 14.145 23.4987 13.5428 23.5 12.9294V11.3259C23.5141 10.4354 23.215 9.57075 22.6601 8.8983C22.1052 8.22585 21.3338 7.79301 20.4942 7.68299C20.031 7.63486 19.5635 7.68935 19.1215 7.84294C18.6796 7.99653 18.2732 8.24582 17.9283 8.57477C17.5835 8.90372 17.3079 9.30503 17.1193 9.75287C16.9307 10.2007 16.8333 10.6852 16.8333 11.175V12.9294C16.8346 13.5428 16.9893 14.145 17.2819 14.6755C17.5745 15.2059 17.9946 15.646 18.5 15.9513V16.7214C18.2256 17.4448 17.7636 18.0725 17.1667 18.5328C17.11 18.5714 17.055 18.6144 17 18.6538L17.7592 18.974C18.2244 19.1677 18.6235 19.5045 18.9043 19.9404C19.1851 20.3763 19.3346 20.8912 19.3333 21.4178V23.4555C19.3306 23.755 19.2787 24.0518 19.18 24.3327H25.1667C25.3877 24.3327 25.5996 24.2403 25.7559 24.0758C25.9122 23.9113 26 23.6881 26 23.4555V19.6635C25.9999 19.4882 25.9499 19.317 25.8565 19.1719C25.763 19.0268 25.6305 18.9145 25.4758 18.8495Z" fill="#3FBA95"/>
<path d="M17.1425 20.6038L14.0242 19.288C13.8698 19.2231 13.7374 19.1111 13.644 18.9663C13.5506 18.8216 13.5004 18.6508 13.5 18.4758V18.0802C14.4641 17.9894 15.3929 17.6538 16.2067 17.1021C16.2961 17.0326 16.3712 16.9447 16.4274 16.8438C16.4837 16.7429 16.52 16.631 16.5341 16.515C16.5482 16.3989 16.5398 16.2811 16.5094 16.1685C16.4791 16.0559 16.4274 15.951 16.3575 15.86C15.6878 15.0455 15.2721 14.0341 15.1667 12.9627C15.191 12.3481 15.0567 11.7381 14.7779 11.1974C14.4991 10.6568 14.0862 10.2059 13.5833 9.8926C13.0727 9.57586 12.4917 9.40641 11.8991 9.40134C11.3064 9.39626 10.7229 9.55573 10.2074 9.86368C9.69192 10.1716 9.26267 10.6172 8.96291 11.1554C8.66316 11.6936 8.50349 12.3055 8.5 12.9294C8.40364 14.0135 7.98722 15.0386 7.30917 15.8609C7.23928 15.9518 7.1876 16.0567 7.15727 16.1692C7.12693 16.2816 7.11856 16.3994 7.13265 16.5154C7.14675 16.6314 7.18302 16.7432 7.23928 16.844C7.29554 16.9449 7.37062 17.0327 7.46 17.1021C8.27378 17.6538 9.20257 17.9894 10.1667 18.0802V18.4758C10.1666 18.6511 10.1166 18.8223 10.0231 18.9674C9.92972 19.1125 9.79713 19.2248 9.6425 19.2898L6.52417 20.6056C6.3698 20.6705 6.2374 20.7825 6.14399 20.9273C6.05058 21.072 6.00044 21.2428 6 21.4178V23.4555C6 23.6881 6.0878 23.9113 6.24408 24.0758C6.40036 24.2403 6.61232 24.3327 6.83333 24.3327H16.8333C17.0543 24.3327 17.2663 24.2403 17.4226 24.0758C17.5789 23.9113 17.6667 23.6881 17.6667 23.4555V21.4178C17.6666 21.2425 17.6166 21.0713 17.5231 20.9262C17.4297 20.7811 17.2971 20.6688 17.1425 20.6038Z" fill="#3FBA95"/>
</svg>
