<svg width="32" height="32" viewBox="0 0 32 32" fill="none" xmlns="http://www.w3.org/2000/svg">
<rect width="32" height="32" rx="8" fill="#D9F5E2"/>
<path d="M8.1875 23.1875C8.1875 23.5332 8.4668 23.8125 8.8125 23.8125H23.1875C23.5332 23.8125 23.8125 23.5332 23.8125 23.1875V14.9844H8.1875V23.1875ZM23.1875 9.59375H19.9062V8.34375C19.9062 8.25781 19.8359 8.1875 19.75 8.1875H18.6562C18.5703 8.1875 18.5 8.25781 18.5 8.34375V9.59375H13.5V8.34375C13.5 8.25781 13.4297 8.1875 13.3438 8.1875H12.25C12.1641 8.1875 12.0938 8.25781 12.0938 8.34375V9.59375H8.8125C8.4668 9.59375 8.1875 9.87305 8.1875 10.2188V13.6562H23.8125V10.2188C23.8125 9.87305 23.5332 9.59375 23.1875 9.59375Z" fill="#3FBA95"/>
</svg>
