<svg width="32" height="32" viewBox="0 0 32 32" fill="none" xmlns="http://www.w3.org/2000/svg">
<circle opacity="0.4" cx="16" cy="16" r="16" fill="black"/>
<path d="M19.3333 10.8348V9.475C19.3333 9.35714 19.2255 9.29205 19.1527 9.36417L12.8389 15.5582C12.7853 15.6106 12.7419 15.6777 12.712 15.7544C12.6822 15.8311 12.6667 15.9153 12.6667 16.0007C12.6667 16.086 12.6822 16.1702 12.712 16.2469C12.7419 16.3236 12.7853 16.3907 12.8389 16.4431L19.1527 22.6371C19.2269 22.7093 19.3333 22.6442 19.3333 22.5263V21.1665C19.3333 21.0803 19.3011 20.9976 19.2479 20.9448L14.2059 16.0015L19.2479 11.0565C19.3011 11.0037 19.3333 10.921 19.3333 10.8348Z" fill="white"/>
</svg>
