<svg width="32" height="32" viewBox="0 0 32 32" fill="none" xmlns="http://www.w3.org/2000/svg">
<path d="M0 8C0 3.58172 3.58172 0 8 0H24C28.4183 0 32 3.58172 32 8V24C32 28.4183 28.4183 32 24 32H8C3.58172 32 0 28.4183 0 24V8Z" fill="#597EF7"/>
<rect width="32" height="32" rx="8" fill="#F0F5FF"/>
<path d="M16 7.25C11.168 7.25 7.25 11.168 7.25 16C7.25 20.832 11.168 24.75 16 24.75C20.832 24.75 24.75 20.832 24.75 16C24.75 11.168 20.832 7.25 16 7.25ZM16 21.0781C15.5684 21.0781 15.2188 20.7285 15.2188 20.2969C15.2188 19.8652 15.5684 19.5156 16 19.5156C16.4316 19.5156 16.7812 19.8652 16.7812 20.2969C16.7812 20.7285 16.4316 21.0781 16 21.0781ZM17.2285 16.791C17.0516 16.8593 16.8994 16.9793 16.7918 17.1354C16.6841 17.2915 16.626 17.4764 16.625 17.666V18.1094C16.625 18.1953 16.5547 18.2656 16.4688 18.2656H15.5312C15.4453 18.2656 15.375 18.1953 15.375 18.1094V17.6895C15.375 17.2383 15.5059 16.793 15.7637 16.4219C16.0156 16.0586 16.3672 15.7812 16.7812 15.623C17.4453 15.3672 17.875 14.8105 17.875 14.2031C17.875 13.3418 17.0332 12.6406 16 12.6406C14.9668 12.6406 14.125 13.3418 14.125 14.2031V14.3516C14.125 14.4375 14.0547 14.5078 13.9688 14.5078H13.0312C12.9453 14.5078 12.875 14.4375 12.875 14.3516V14.2031C12.875 13.4355 13.2109 12.7188 13.8203 12.1855C14.4062 11.6719 15.1797 11.3906 16 11.3906C16.8203 11.3906 17.5938 11.6738 18.1797 12.1855C18.7891 12.7188 19.125 13.4355 19.125 14.2031C19.125 15.332 18.3809 16.3477 17.2285 16.791Z" fill="#597EF7"/>
</svg>
