<svg width="32" height="32" viewBox="0 0 32 32" fill="none" xmlns="http://www.w3.org/2000/svg">
<path d="M0 8C0 3.58172 3.58172 0 8 0H24C28.4183 0 32 3.58172 32 8V24C32 28.4183 28.4183 32 24 32H8C3.58172 32 0 28.4183 0 24V8Z" fill="#E6F7FF"/>
<rect width="32" height="32" rx="8" fill="#F0F5FF"/>
<path d="M15.9993 16.6945C16.7664 16.6945 17.3882 16.0726 17.3882 15.3056C17.3882 14.5385 16.7664 13.9167 15.9993 13.9167C15.2323 13.9167 14.6105 14.5385 14.6105 15.3056C14.6105 16.0726 15.2323 16.6945 15.9993 16.6945Z" fill="#1890FF"/>
<path d="M20.8605 10.4444V8.70834C20.8605 8.13334 20.3938 7.66667 19.8188 7.66667C19.2438 7.66667 18.7771 8.13334 18.7771 8.70834V10.4444H18.0827V8.70834C18.0827 8.13334 17.616 7.66667 17.041 7.66667C16.466 7.66667 15.9993 8.13334 15.9993 8.70834V10.4444H15.3049V8.70834C15.3049 8.13334 14.8382 7.66667 14.2632 7.66667C13.6882 7.66667 13.2216 8.13334 13.2216 8.70834V10.4444H12.5271V8.70834C12.5271 8.13334 12.0605 7.66667 11.4855 7.66667C10.9105 7.66667 10.4438 8.13334 10.4438 8.70834V10.4444H7.66602V20.1667H10.6257C11.2431 22.5618 13.4112 24.3333 15.9993 24.3333C18.5875 24.3333 20.7549 22.5618 21.373 20.1667H24.3327V10.4444H20.8605ZM22.9438 18.7778H21.5549V13.2222C20.0209 13.2222 18.7771 14.466 18.7771 16V18.0833C18.0771 18.0833 17.4459 18.3507 16.9577 18.7778C15.9993 19.6674 15.6521 20.8826 15.6521 20.8826C15.6521 20.8826 15.2945 19.9799 15.4632 18.7778H9.0549V11.8333H22.9438V18.7778Z" fill="#1890FF"/>
</svg>
