<svg width="32" height="32" viewBox="0 0 32 32" fill="none" xmlns="http://www.w3.org/2000/svg">
<path d="M0 8C0 3.58172 3.58172 0 8 0H24C28.4183 0 32 3.58172 32 8V24C32 28.4183 28.4183 32 24 32H8C3.58172 32 0 28.4183 0 24V8Z" fill="#E6F7FF"/>
<rect width="32" height="32" rx="8" fill="#FFF0F6"/>
<path d="M24.4167 16.9312C25.1667 15.9331 26 14.5192 26 12.6895C26 9.03002 22.25 7.78246 22.0833 7.69929C21.75 7.61612 21.4167 7.69929 21.25 7.86563L20.4167 8.69733C20.25 8.94685 20.1667 9.19636 20.1667 9.44587C20.1667 9.69538 20.3333 9.94489 20.5833 10.0281C21.25 10.4439 21.8333 11.1924 21.8333 11.442C21.8333 11.6083 21.75 11.6915 21.6667 11.7746L20.5 11.3588C18.0833 10.5271 15.5 11.3588 14 13.3549L13.9167 13.5212H12.1667L10.75 12.1073C10.6667 12.0241 10.5 11.941 10.3333 11.8578L7 11.0261C6.75 11.0261 6.5 11.0261 6.33333 11.1924C6.08333 11.3588 6 11.6083 6 11.8578V13.5212C6 13.7707 6.08333 13.9371 6.25 14.1034L8.58333 16.2658C7.08333 16.9312 6 18.4282 6 20.1748C6 22.5036 7.83333 24.3333 10.1667 24.3333C12.1667 24.3333 13.8333 22.9194 14.25 21.0065H17.75C18.1667 22.9194 19.8333 24.3333 21.8333 24.3333C24.1667 24.3333 26 22.5036 26 20.1748C26 18.8441 25.3333 17.6797 24.4167 16.9312ZM10.1667 22.6699C8.75 22.6699 7.66667 21.5887 7.66667 20.1748C7.66667 18.7609 8.75 17.6797 10.1667 17.6797C11.5833 17.6797 12.6667 18.7609 12.6667 20.1748C12.6667 21.5887 11.5833 22.6699 10.1667 22.6699ZM21.8333 22.6699C20.4167 22.6699 19.3333 21.5887 19.3333 20.1748C19.3333 18.7609 20.4167 17.6797 21.8333 17.6797C23.25 17.6797 24.3333 18.7609 24.3333 20.1748C24.3333 21.5887 23.25 22.6699 21.8333 22.6699Z" fill="#EB2F96"/>
</svg>
