<svg width="32" height="32" viewBox="0 0 32 32" fill="none" xmlns="http://www.w3.org/2000/svg">
<path d="M0 8C0 3.58172 3.58172 0 8 0H24C28.4183 0 32 3.58172 32 8V24C32 28.4183 28.4183 32 24 32H8C3.58172 32 0 28.4183 0 24V8Z" fill="#FFF1F0"/>
<rect width="32" height="32" rx="8" fill="#FFF1F0"/>
<path d="M23.3496 20.793H22.2988C22.2168 20.793 22.1484 20.8613 22.1484 20.9434V22.1504H9.84961V9.84961H22.1504V11.0566C22.1504 11.1387 22.2188 11.207 22.3008 11.207H23.3516C23.4336 11.207 23.502 11.1406 23.502 11.0566V9.09961C23.502 8.76758 23.2344 8.5 22.9023 8.5H9.09961C8.76758 8.5 8.5 8.76758 8.5 9.09961V22.9004C8.5 23.2324 8.76758 23.5 9.09961 23.5H22.9004C23.2324 23.5 23.5 23.2324 23.5 22.9004V20.9434C23.5 20.8594 23.4316 20.793 23.3496 20.793ZM23.7129 15.877L20.9414 13.6895C20.8379 13.6074 20.6875 13.6816 20.6875 13.8125V15.2969H14.5547C14.4688 15.2969 14.3984 15.3672 14.3984 15.4531V16.5469C14.3984 16.6328 14.4688 16.7031 14.5547 16.7031H20.6875V18.1875C20.6875 18.3184 20.8398 18.3926 20.9414 18.3105L23.7129 16.123C23.7316 16.1084 23.7467 16.0898 23.7571 16.0684C23.7674 16.0471 23.7728 16.0237 23.7728 16C23.7728 15.9763 23.7674 15.9529 23.7571 15.9316C23.7467 15.9102 23.7316 15.8916 23.7129 15.877Z" fill="#F5222D"/>
</svg>
