<svg width="32" height="32" viewBox="0 0 32 32" fill="none" xmlns="http://www.w3.org/2000/svg">
<path d="M0 8C0 3.58172 3.58172 0 8 0H24C28.4183 0 32 3.58172 32 8V24C32 28.4183 28.4183 32 24 32H8C3.58172 32 0 28.4183 0 24V8Z" fill="#E6F7FF"/>
<rect width="32" height="32" rx="8" fill="#E6FFFB"/>
<path d="M19.4716 18.7778C17.4223 18.7778 15.7195 18.334 14.6105 17.5889C14.6105 18.1069 14.6105 18.4486 14.6105 18.7778C14.6105 19.9285 16.7868 20.8611 19.4716 20.8611C22.1563 20.8611 24.3327 19.9285 24.3327 18.7778C24.3327 18.4486 24.3327 18.1069 24.3327 17.5889C23.2237 18.334 21.5209 18.7778 19.4716 18.7778Z" fill="#36CFC9"/>
<path d="M19.4716 22.25C17.4223 22.25 15.7195 21.8062 14.6105 21.0611C14.6105 21.5792 14.6105 21.9208 14.6105 22.25C14.6105 23.4007 16.7868 24.3333 19.4716 24.3333C22.1563 24.3333 24.3327 23.4007 24.3327 22.25C24.3327 21.9208 24.3327 21.5792 24.3327 21.0611C23.2237 21.8062 21.5209 22.25 19.4716 22.25Z" fill="#36CFC9"/>
<path d="M19.4716 17.3889C22.1563 17.3889 24.3327 16.4561 24.3327 15.3056C24.3327 14.155 22.1563 13.2222 19.4716 13.2222C16.7869 13.2222 14.6105 14.155 14.6105 15.3056C14.6105 16.4561 16.7869 17.3889 19.4716 17.3889Z" fill="#36CFC9"/>
<path d="M12.5271 11.8333C15.2118 11.8333 17.3882 10.9006 17.3882 9.75C17.3882 8.5994 15.2118 7.66666 12.5271 7.66666C9.84241 7.66666 7.66602 8.5994 7.66602 9.75C7.66602 10.9006 9.84241 11.8333 12.5271 11.8333Z" fill="#36CFC9"/>
<path d="M13.2216 20.1479C12.9945 20.159 12.7639 20.1667 12.5271 20.1667C10.4778 20.1667 8.77504 19.7229 7.66602 18.9778C7.66602 19.4958 7.66602 19.8375 7.66602 20.1667C7.66602 21.3174 9.8424 22.25 12.5271 22.25C12.7632 22.25 12.9945 22.2403 13.2216 22.2264V20.1479Z" fill="#36CFC9"/>
<path d="M13.2216 16.6757C12.9945 16.6868 12.7639 16.6944 12.5271 16.6944C10.4778 16.6944 8.77504 16.2507 7.66602 15.5056C7.66602 16.0236 7.66602 16.3653 7.66602 16.6944C7.66602 17.8451 9.8424 18.7778 12.5271 18.7778C12.7632 18.7778 12.9945 18.7681 13.2216 18.7542V16.6757Z" fill="#36CFC9"/>
<path d="M14.5549 13.0597C13.9285 13.1639 13.2507 13.2222 12.5271 13.2222C10.4778 13.2222 8.77504 12.7785 7.66602 12.0333C7.66602 12.5514 7.66602 12.8931 7.66602 13.2222C7.66602 14.3729 9.8424 15.3056 12.5271 15.3056C12.7639 15.3056 12.9952 15.2958 13.2237 15.2819C13.232 14.4049 13.7146 13.6431 14.5549 13.0597Z" fill="#36CFC9"/>
</svg>
