<svg width="32" height="32" viewBox="0 0 32 32" fill="none" xmlns="http://www.w3.org/2000/svg">
<path d="M0 8C0 3.58172 3.58172 0 8 0H24C28.4183 0 32 3.58172 32 8V24C32 28.4183 28.4183 32 24 32H8C3.58172 32 0 28.4183 0 24V8Z" fill="#FFFBE6"/>
<rect width="32" height="32" rx="8" fill="#FFFBE6"/>
<path d="M24.1298 7.87286C24.0606 7.80323 23.9775 7.74895 23.886 7.71358C23.7944 7.67822 23.6964 7.66255 23.5984 7.6676C13.804 8.17867 10.1858 16.9032 10.1509 16.9912C10.0998 17.1181 10.0872 17.2572 10.1145 17.3913C10.1418 17.5253 10.2079 17.6484 10.3045 17.7452L14.2543 21.6949C14.3516 21.792 14.4753 21.8583 14.6101 21.8853C14.7449 21.9124 14.8846 21.8991 15.0119 21.8471C15.0991 21.8115 23.7772 18.153 24.3315 8.40488C24.3371 8.30701 24.3221 8.20905 24.2873 8.11739C24.2525 8.02572 24.1989 7.94241 24.1298 7.87286ZM18.4282 15.5459C18.2329 15.7413 17.9841 15.8743 17.7132 15.9282C17.4423 15.9821 17.1615 15.9545 16.9063 15.8488C16.6512 15.7432 16.433 15.5642 16.2796 15.3345C16.1261 15.1049 16.0442 14.8349 16.0442 14.5587C16.0442 14.2825 16.1261 14.0125 16.2796 13.7829C16.433 13.5532 16.6512 13.3743 16.9063 13.2686C17.1615 13.1629 17.4423 13.1353 17.7132 13.1892C17.9841 13.2431 18.2329 13.3761 18.4282 13.5715C18.69 13.8333 18.837 14.1884 18.837 14.5587C18.837 14.929 18.69 15.2841 18.4282 15.5459Z" fill="#FAAD14"/>
<path d="M8.44312 20.7335C8.62728 20.5481 8.84623 20.4008 9.08742 20.3002C9.32861 20.1996 9.58728 20.1476 9.84862 20.1471C10.11 20.1467 10.3688 20.1978 10.6103 20.2976C10.8519 20.3974 11.0713 20.5439 11.2561 20.7287C11.4409 20.9135 11.5874 21.1329 11.6872 21.3744C11.787 21.616 11.8382 21.8748 11.8377 22.1361C11.8373 22.3975 11.7852 22.6561 11.6846 22.8973C11.584 23.1385 11.4367 23.3574 11.2513 23.5416C10.4756 24.3173 7.66602 24.3333 7.66602 24.3333C7.66602 24.3333 7.66602 21.5085 8.44312 20.7335Z" fill="#FAAD14"/>
<path d="M14.8974 9.21129C13.9133 9.04002 12.9024 9.10819 11.9502 9.41006C10.998 9.71193 10.1325 10.2386 9.4269 10.9456C9.0535 11.3224 8.72885 11.7446 8.46058 12.2023C8.38202 12.3357 8.35002 12.4914 8.36961 12.645C8.3892 12.7985 8.45927 12.9412 8.5688 13.0506L9.95753 14.44C11.248 12.3921 12.926 10.6159 14.8974 9.21129Z" fill="#FAAD14"/>
<path d="M22.7885 17.1022C22.9598 18.0863 22.8916 19.0971 22.5897 20.0493C22.2878 21.0014 21.7611 21.8669 21.0542 22.5725C20.6773 22.9459 20.2551 23.2705 19.7974 23.5388C19.664 23.6174 19.5083 23.6494 19.3547 23.6298C19.2011 23.6102 19.0585 23.5401 18.9491 23.4306L17.5596 22.0419C19.6076 20.7515 21.3838 19.0735 22.7885 17.1022Z" fill="#FAAD14"/>
</svg>
