<?xml version="1.0" encoding="iso-8859-1"?>
<!-- Generator: Adobe Illustrator 19.0.0, SVG Export Plug-In . SVG Version: 6.00 Build 0)  -->
<svg version="1.1" id="Capa_1" xmlns="http://www.w3.org/2000/svg" xmlns:xlink="http://www.w3.org/1999/xlink" x="0px" y="0px"
	 viewBox="0 0 384 384" style="enable-background:new 0 0 384 384;" xml:space="preserve">
<g>
	<g>
		<path d="M380.875,350.71L72.833,42.667h172.5C251.229,42.667,256,37.896,256,32V10.667C256,4.771,251.229,0,245.333,0H10.667
			C4.771,0,0,4.771,0,10.667v234.667C0,251.229,4.771,256,10.667,256H32c5.896,0,10.667-4.771,10.667-10.667v-172.5l308.042,308.043
			c2.043,2.042,4.707,3.082,7.383,3.122c2.783,0.042,5.579-1,7.703-3.122l15.081-15.082c2.01-2.009,3.051-4.621,3.121-7.255
			C384.072,355.715,383.031,352.865,380.875,350.71z"/>
	</g>
</g>
<g>
</g>
<g>
</g>
<g>
</g>
<g>
</g>
<g>
</g>
<g>
</g>
<g>
</g>
<g>
</g>
<g>
</g>
<g>
</g>
<g>
</g>
<g>
</g>
<g>
</g>
<g>
</g>
<g>
</g>
</svg>
