<svg width="56" height="56" viewBox="0 0 56 56" fill="none" xmlns="http://www.w3.org/2000/svg">
<circle cx="28" cy="28" r="28" fill="#EFBB45"/>
<path d="M40.1117 20.6409L34.0305 24.3877L28.1992 16.6096C28.1758 16.5783 28.1453 16.5529 28.1103 16.5354C28.0754 16.5179 28.0368 16.5088 27.9977 16.5088C27.9585 16.5088 27.92 16.5179 27.885 16.5354C27.85 16.5529 27.8195 16.5783 27.7961 16.6096L21.968 24.3877L15.8836 20.6409C15.7055 20.5315 15.4742 20.6784 15.5023 20.8877L17.8898 39.0315C17.9242 39.2784 18.1367 39.469 18.3898 39.469H37.6117C37.8617 39.469 38.0773 39.2815 38.1086 39.0315L40.4961 20.8877C40.5211 20.6784 40.293 20.5315 40.1117 20.6409ZM27.9992 34.944C26.0586 34.944 24.4805 33.3659 24.4805 31.4252C24.4805 29.4846 26.0586 27.9065 27.9992 27.9065C29.9398 27.9065 31.518 29.4846 31.518 31.4252C31.518 33.3659 29.9398 34.944 27.9992 34.944ZM27.9992 29.9159C27.168 29.9159 26.493 30.5909 26.493 31.4252C26.493 32.2565 27.168 32.9346 27.9992 32.9346C28.8305 32.9346 29.5055 32.2596 29.5055 31.4252C29.5055 30.594 28.8305 29.9159 27.9992 29.9159Z" fill="white"/>
</svg>
