<svg width="56" height="56" viewBox="0 0 56 56" fill="none" xmlns="http://www.w3.org/2000/svg">
<circle cx="28" cy="28" r="28" fill="#3FBA95"/>
<path d="M40.4684 18.3552L28.3472 14.7188C28.1205 14.6497 27.8782 14.6497 27.6515 14.7188L15.5303 18.3552C15.2805 18.43 15.0615 18.5834 14.9058 18.7926C14.7501 19.0018 14.666 19.2556 14.666 19.5164C14.666 35.9055 27.42 41.1964 27.5484 41.2485C27.8381 41.3632 28.1606 41.3632 28.4503 41.2485C28.5787 41.1964 41.3327 35.9055 41.3327 19.5164C41.3327 19.2556 41.2486 19.0018 41.0929 18.7926C40.9372 18.5834 40.7182 18.43 40.4684 18.3552ZM31.7412 32.257L27.9993 30.2873L24.2539 32.257L24.969 28.0861L21.9387 25.1321L26.1266 24.5261L27.9993 20.7285L29.8721 24.5236L34.06 25.1297L31.0297 28.0861L31.7412 32.257Z" fill="white"/>
</svg>
