<svg width="308" height="308" viewBox="0 0 308 308" fill="none" xmlns="http://www.w3.org/2000/svg">
<path d="M308 235.559H0V235.713H308V235.559Z" fill="#EBEBEB"/>
<path d="M84.7985 239.753H64.3966V239.907H84.7985V239.753Z" fill="#EBEBEB"/>
<path d="M130.524 245.396H105.422V245.55H130.524V245.396Z" fill="#EBEBEB"/>
<path d="M63.7806 243.468H32.3154V243.622H63.7806V243.468Z" fill="#EBEBEB"/>
<path d="M277.138 240.788H219.764V240.942H277.138V240.788Z" fill="#EBEBEB"/>
<path d="M214.282 240.788H210.382V240.942H214.282V240.788Z" fill="#EBEBEB"/>
<path d="M196.775 243.388H170.761V243.542H196.775V243.388Z" fill="#EBEBEB"/>
<path d="M145.992 208.085H27.0486C26.1168 208.083 25.2237 207.712 24.5654 207.052C23.9071 206.393 23.5374 205.499 23.5374 204.567V37.3664C23.5455 36.44 23.9188 35.5542 24.5762 34.9013C25.2336 34.2485 26.1221 33.8815 27.0486 33.8799H145.992C146.925 33.8799 147.82 34.2505 148.479 34.9101C149.139 35.5697 149.509 36.4644 149.509 37.3972V204.567C149.509 205.5 149.139 206.395 148.479 207.054C147.82 207.714 146.925 208.085 145.992 208.085ZM27.0486 34.0031C26.1576 34.0047 25.3037 34.3598 24.6743 34.9904C24.0449 35.6209 23.6914 36.4755 23.6914 37.3664V204.567C23.6914 205.458 24.0449 206.313 24.6743 206.943C25.3037 207.574 26.1576 207.929 27.0486 207.931H145.992C146.883 207.927 147.737 207.572 148.367 206.942C148.997 206.312 149.352 205.458 149.355 204.567V37.3664C149.352 36.4754 148.997 35.6218 148.367 34.9918C147.737 34.3617 146.883 34.0063 145.992 34.0031H27.0486Z" fill="#EBEBEB"/>
<path d="M279.239 208.085H160.289C159.357 208.081 158.465 207.71 157.806 207.051C157.147 206.392 156.775 205.499 156.772 204.567V37.3664C156.782 36.4394 157.156 35.5536 157.815 34.901C158.473 34.2483 159.362 33.8815 160.289 33.8799H279.239C280.164 33.8831 281.051 34.2509 281.707 34.9035C282.363 35.5561 282.736 36.4411 282.744 37.3664V204.567C282.745 205.028 282.655 205.485 282.479 205.911C282.303 206.338 282.045 206.725 281.72 207.052C281.394 207.379 281.008 207.638 280.582 207.815C280.156 207.992 279.7 208.084 279.239 208.085ZM160.289 34.0031C159.398 34.0063 158.545 34.3617 157.915 34.9918C157.285 35.6218 156.929 36.4754 156.926 37.3664V204.567C156.929 205.458 157.285 206.312 157.915 206.942C158.545 207.572 159.398 207.927 160.289 207.931H279.239C280.13 207.927 280.984 207.572 281.614 206.942C282.244 206.312 282.599 205.458 282.602 204.567V37.3664C282.599 36.4754 282.244 35.6218 281.614 34.9918C280.984 34.3617 280.13 34.0063 279.239 34.0031H160.289Z" fill="#EBEBEB"/>
<path d="M43.5327 105.397H96.9769C96.9769 105.397 94.1002 98.7074 84.4906 100.789C84.4906 100.789 82.4701 93.1819 75.1397 94.2352C75.1397 94.2352 69.0721 87.6563 60.2202 90.2066C51.3682 92.7568 52.1321 100.789 52.1321 100.789C52.1321 100.789 45.584 99.077 43.5327 105.397Z" fill="#FAFAFA"/>
<path d="M186.58 64.6427H133.142C133.142 64.6427 136.013 57.9468 145.622 60.0289C145.622 60.0289 147.643 52.4213 154.979 53.4746C154.979 53.4746 161.047 46.9019 169.893 49.4521C178.739 52.0024 177.987 60.0289 177.987 60.0289C177.987 60.0289 184.56 58.3225 186.58 64.6427Z" fill="#FAFAFA"/>
<path d="M225.992 62.8994H266.876C266.876 62.8994 265.311 57.2876 259.398 59.1356C259.398 59.1356 260.63 51.5835 256.268 50.7088C251.907 49.834 250.521 55.5813 250.521 55.5813C249.523 54.4503 248.229 53.6203 246.785 53.185C245.341 52.7496 243.804 52.7262 242.347 53.1173C240.914 53.4903 239.609 54.2428 238.568 55.2955C237.527 56.3481 236.79 57.662 236.433 59.0987C236.433 59.0987 229.152 54.9284 225.992 62.8994Z" fill="#FAFAFA"/>
<path d="M78.0472 136.856H28.3113V235.398H78.0472V136.856Z" fill="#E6E6E6"/>
<path d="M69.0043 136.856H28.3113V235.398H69.0043V136.856Z" fill="#F0F0F0"/>
<path d="M78.6324 136.856H27.2395V138.464H78.6324V136.856Z" fill="#E0E0E0"/>
<path d="M78.6324 133.641H27.2395V135.248H78.6324V133.641Z" fill="#E0E0E0"/>
<path d="M77.5544 135.249H28.3113V136.857H77.5544V135.249Z" fill="#F0F0F0"/>
<path d="M39.8183 142.653H32.1737V150.415H39.8183V142.653Z" fill="#E6E6E6"/>
<path d="M39.812 142.653H32.8451V150.415H39.812V142.653Z" fill="#F5F5F5"/>
<path d="M51.3928 142.653H43.7483V150.415H51.3928V142.653Z" fill="#E6E6E6"/>
<path d="M51.3867 142.653H44.4197V150.415H51.3867V142.653Z" fill="#F5F5F5"/>
<path d="M62.9675 142.653H55.3229V150.415H62.9675V142.653Z" fill="#E6E6E6"/>
<path d="M62.9613 142.653H55.9944V150.415H62.9613V142.653Z" fill="#F5F5F5"/>
<path d="M39.8183 154.08H32.1737V161.842H39.8183V154.08Z" fill="#E6E6E6"/>
<path d="M39.812 154.08H32.8451V161.842H39.812V154.08Z" fill="#F5F5F5"/>
<path d="M51.3928 154.08H43.7483V161.842H51.3928V154.08Z" fill="#E6E6E6"/>
<path d="M51.3867 154.08H44.4197V161.842H51.3867V154.08Z" fill="#F5F5F5"/>
<path d="M62.9675 154.08H55.3229V161.842H62.9675V154.08Z" fill="#E6E6E6"/>
<path d="M62.9613 154.08H55.9944V161.842H62.9613V154.08Z" fill="#F5F5F5"/>
<path d="M39.8183 175.006H32.1737V182.767H39.8183V175.006Z" fill="#E6E6E6"/>
<path d="M39.812 175.006H32.8451V182.767H39.812V175.006Z" fill="#F5F5F5"/>
<path d="M51.3928 175.006H43.7483V182.767H51.3928V175.006Z" fill="#E6E6E6"/>
<path d="M51.3867 175.006H44.4197V182.767H51.3867V175.006Z" fill="#F5F5F5"/>
<path d="M62.9675 175.006H55.3229V182.767H62.9675V175.006Z" fill="#E6E6E6"/>
<path d="M62.9613 175.006H55.9944V182.767H62.9613V175.006Z" fill="#F5F5F5"/>
<path d="M39.8183 186.433H32.1737V194.194H39.8183V186.433Z" fill="#E6E6E6"/>
<path d="M39.812 186.433H32.8451V194.194H39.812V186.433Z" fill="#F5F5F5"/>
<path d="M51.3928 186.433H43.7483V194.194H51.3928V186.433Z" fill="#E6E6E6"/>
<path d="M51.3867 186.433H44.4197V194.194H51.3867V186.433Z" fill="#F5F5F5"/>
<path d="M62.9675 186.433H55.3229V194.194H62.9675V186.433Z" fill="#E6E6E6"/>
<path d="M62.9613 186.433H55.9944V194.194H62.9613V186.433Z" fill="#F5F5F5"/>
<path d="M39.8183 209.687H32.1737V217.448H39.8183V209.687Z" fill="#E6E6E6"/>
<path d="M39.812 209.687H32.8451V217.448H39.812V209.687Z" fill="#F5F5F5"/>
<path d="M51.3928 209.687H43.7483V217.448H51.3928V209.687Z" fill="#E6E6E6"/>
<path d="M51.3867 209.687H44.4197V217.448H51.3867V209.687Z" fill="#F5F5F5"/>
<path d="M62.9675 209.687H55.3229V217.448H62.9675V209.687Z" fill="#E6E6E6"/>
<path d="M62.9613 209.687H55.9944V217.448H62.9613V209.687Z" fill="#F5F5F5"/>
<path d="M39.8183 221.113H32.1737V228.875H39.8183V221.113Z" fill="#E6E6E6"/>
<path d="M39.812 221.113H32.8451V228.875H39.812V221.113Z" fill="#F5F5F5"/>
<path d="M51.3928 221.113H43.7483V228.875H51.3928V221.113Z" fill="#E6E6E6"/>
<path d="M51.3867 221.113H44.4197V228.875H51.3867V221.113Z" fill="#F5F5F5"/>
<path d="M62.9675 221.113H55.3229V228.875H62.9675V221.113Z" fill="#E6E6E6"/>
<path d="M62.9613 221.113H55.9944V228.875H62.9613V221.113Z" fill="#F5F5F5"/>
<path d="M78.0472 167.299H28.3113V168.02H78.0472V167.299Z" fill="#E0E0E0"/>
<path d="M78.0472 203.064H28.3113V203.785H78.0472V203.064Z" fill="#E0E0E0"/>
<path d="M273.627 116.522H224.489V236.094H273.627V116.522Z" fill="#E0E0E0"/>
<path d="M259.632 116.522H224.489V236.094H259.632V116.522Z" fill="#F0F0F0"/>
<path d="M241.189 126.348H228.111V132.699H241.189V126.348Z" fill="#E6E6E6"/>
<path d="M241.189 126.348H228.979V132.699H241.189V126.348Z" fill="#F5F5F5"/>
<path d="M256.318 126.348H243.24V132.699H256.318V126.348Z" fill="#E6E6E6"/>
<path d="M256.318 126.348H244.108V132.699H256.318V126.348Z" fill="#F5F5F5"/>
<path d="M241.189 138.298H228.111V144.649H241.189V138.298Z" fill="#E6E6E6"/>
<path d="M241.189 138.298H228.979V144.649H241.189V138.298Z" fill="#F5F5F5"/>
<path d="M256.318 138.298H243.24V144.649H256.318V138.298Z" fill="#E6E6E6"/>
<path d="M256.318 138.298H244.108V144.649H256.318V138.298Z" fill="#F5F5F5"/>
<path d="M241.189 153.568H228.111V159.919H241.189V153.568Z" fill="#E6E6E6"/>
<path d="M241.189 153.568H228.979V159.919H241.189V153.568Z" fill="#F5F5F5"/>
<path d="M256.318 153.568H243.24V159.919H256.318V153.568Z" fill="#E6E6E6"/>
<path d="M256.318 153.568H244.108V159.919H256.318V153.568Z" fill="#F5F5F5"/>
<path d="M241.189 162.347H228.111V168.698H241.189V162.347Z" fill="#E6E6E6"/>
<path d="M241.189 162.347H228.979V168.698H241.189V162.347Z" fill="#F5F5F5"/>
<path d="M256.318 162.347H243.24V168.698H256.318V162.347Z" fill="#E6E6E6"/>
<path d="M256.318 162.347H244.108V168.698H256.318V162.347Z" fill="#F5F5F5"/>
<path d="M241.189 176.768H228.111V183.119H241.189V176.768Z" fill="#E6E6E6"/>
<path d="M241.189 176.768H228.979V183.119H241.189V176.768Z" fill="#F5F5F5"/>
<path d="M256.318 176.768H243.24V183.119H256.318V176.768Z" fill="#E6E6E6"/>
<path d="M256.318 176.768H244.108V183.119H256.318V176.768Z" fill="#F5F5F5"/>
<path d="M241.189 185.539H228.111V191.89H241.189V185.539Z" fill="#E6E6E6"/>
<path d="M241.189 185.539H228.979V191.89H241.189V185.539Z" fill="#F5F5F5"/>
<path d="M256.318 185.539H243.24V191.89H256.318V185.539Z" fill="#E6E6E6"/>
<path d="M256.318 185.539H244.108V191.89H256.318V185.539Z" fill="#F5F5F5"/>
<path d="M241.189 201.234H228.111V207.585H241.189V201.234Z" fill="#E6E6E6"/>
<path d="M241.189 201.234H228.979V207.585H241.189V201.234Z" fill="#F5F5F5"/>
<path d="M256.318 201.234H243.24V207.585H256.318V201.234Z" fill="#E6E6E6"/>
<path d="M256.318 201.234H244.108V207.585H256.318V201.234Z" fill="#F5F5F5"/>
<path d="M241.189 212.821H228.111V219.172H241.189V212.821Z" fill="#E6E6E6"/>
<path d="M241.189 212.821H228.979V219.172H241.189V212.821Z" fill="#F5F5F5"/>
<path d="M256.318 212.821H243.24V219.172H256.318V212.821Z" fill="#E6E6E6"/>
<path d="M256.318 212.821H244.108V219.172H256.318V212.821Z" fill="#F5F5F5"/>
<path opacity="0.05" d="M273.627 148.561H224.489V149.651H273.627V148.561Z" fill="black"/>
<path opacity="0.05" d="M273.627 172.185H224.489V173.275H273.627V172.185Z" fill="black"/>
<path opacity="0.05" d="M273.627 196.018H224.489V197.108H273.627V196.018Z" fill="black"/>
<path d="M273.627 112.986H222.173V116.806H273.627V112.986Z" fill="#E0E0E0"/>
<path opacity="0.05" d="M273.627 112.986H261.868V116.806H273.627V112.986Z" fill="black"/>
<path d="M154.505 89.6768H98.9542V234.055H154.505V89.6768Z" fill="#E6E6E6"/>
<path d="M133.949 89.6768H78.3922V234.055H133.949V89.6768Z" fill="#F0F0F0"/>
<path d="M129.101 99.4775H83.2401V106.833H129.101V99.4775Z" fill="#E6E6E6"/>
<path d="M129.101 99.4775H85.0203V106.833H129.101V99.4775Z" fill="#F5F5F5"/>
<path d="M129.101 111.859H83.2401V119.214H129.101V111.859Z" fill="#E6E6E6"/>
<path d="M129.101 111.859H85.0203V119.214H129.101V111.859Z" fill="#F5F5F5"/>
<path d="M129.101 124.722H83.2401V132.077H129.101V124.722Z" fill="#E6E6E6"/>
<path d="M129.101 124.722H85.0203V132.077H129.101V124.722Z" fill="#F5F5F5"/>
<path d="M129.101 137.59H83.2401V144.945H129.101V137.59Z" fill="#E6E6E6"/>
<path d="M129.101 137.59H85.0203V144.945H129.101V137.59Z" fill="#F5F5F5"/>
<path d="M129.101 150.452H83.2401V157.807H129.101V150.452Z" fill="#E6E6E6"/>
<path d="M129.101 150.452H85.0203V157.807H129.101V150.452Z" fill="#F5F5F5"/>
<path d="M129.101 163.32H83.2401V170.675H129.101V163.32Z" fill="#E6E6E6"/>
<path d="M129.101 163.32H85.0203V170.675H129.101V163.32Z" fill="#F5F5F5"/>
<path d="M129.101 177.5H83.2401V184.855H129.101V177.5Z" fill="#E6E6E6"/>
<path d="M129.101 177.5H85.0203V184.855H129.101V177.5Z" fill="#F5F5F5"/>
<path d="M129.101 191.675H83.2401V199.03H129.101V191.675Z" fill="#E6E6E6"/>
<path d="M129.101 191.675H85.0203V199.03H129.101V191.675Z" fill="#F5F5F5"/>
<path d="M129.101 205.854H83.2401V213.21H129.101V205.854Z" fill="#E6E6E6"/>
<path d="M129.101 205.854H85.0203V213.21H129.101V205.854Z" fill="#F5F5F5"/>
<path d="M129.101 220.035H83.2401V227.39H129.101V220.035Z" fill="#E6E6E6"/>
<path d="M129.101 220.035H85.0203V227.39H129.101V220.035Z" fill="#F5F5F5"/>
<path d="M155.953 88.2236H76.8214V91.7471H155.953V88.2236Z" fill="#F5F5F5"/>
<path d="M155.953 81.8662H76.8214V85.3897H155.953V81.8662Z" fill="#F5F5F5"/>
<path d="M153.322 84.7002H78.3922V88.2237H153.322V84.7002Z" fill="#F0F0F0"/>
<path d="M154.511 99.4775H139.031V106.833H154.511V99.4775Z" fill="#E0E0E0"/>
<path d="M154.511 111.582H139.031V118.937H154.511V111.582Z" fill="#E0E0E0"/>
<path d="M154.511 123.687H139.031V131.042H154.511V123.687Z" fill="#E0E0E0"/>
<path d="M154.511 137.583H139.031V144.938H154.511V137.583Z" fill="#E0E0E0"/>
<path d="M154.511 150.452H139.031V157.807H154.511V150.452Z" fill="#E0E0E0"/>
<path d="M154.511 163.32H139.031V170.675H154.511V163.32Z" fill="#E0E0E0"/>
<path d="M154.511 177.494H139.031V184.849H154.511V177.494Z" fill="#E0E0E0"/>
<path d="M154.511 191.675H139.031V199.03H154.511V191.675Z" fill="#E0E0E0"/>
<path d="M154.511 205.854H139.031V213.21H154.511V205.854Z" fill="#E0E0E0"/>
<path d="M154.511 220.035H139.031V227.39H154.511V220.035Z" fill="#E0E0E0"/>
<path d="M225.918 140.134H219.807V149.694H225.918V140.134Z" fill="#E0E0E0"/>
<path d="M225.918 155.78H219.807V165.341H225.918V155.78Z" fill="#E0E0E0"/>
<path d="M225.918 170.989H219.807V180.55H225.918V170.989Z" fill="#E0E0E0"/>
<path d="M225.918 187.066H219.807V196.627H225.918V187.066Z" fill="#E0E0E0"/>
<path d="M225.918 202.713H219.807V212.273H225.918V202.713Z" fill="#E0E0E0"/>
<path d="M225.918 130.524H161.614V228.321H225.918V130.524Z" fill="#E6E6E6"/>
<path d="M215.058 130.524H161.62V228.321H215.058V130.524Z" fill="#F0F0F0"/>
<path d="M209.877 140.14H166.425V149.7H209.877V140.14Z" fill="#EBEBEB"/>
<path d="M209.877 155.78H166.425V165.341H209.877V155.78Z" fill="#EBEBEB"/>
<path d="M209.877 171.427H166.425V180.987H209.877V171.427Z" fill="#EBEBEB"/>
<path d="M209.877 187.066H166.425V196.627H209.877V187.066Z" fill="#EBEBEB"/>
<path d="M209.877 202.713H166.425V212.273H209.877V202.713Z" fill="#EBEBEB"/>
<path d="M209.877 140.14H168.026V149.7H209.877V140.14Z" fill="#F5F5F5"/>
<path d="M209.877 155.78H168.026V165.341H209.877V155.78Z" fill="#F5F5F5"/>
<path d="M209.877 171.427H168.026V180.987H209.877V171.427Z" fill="#F5F5F5"/>
<path d="M209.877 187.066H168.026V196.627H209.877V187.066Z" fill="#F5F5F5"/>
<path d="M209.877 202.713H168.026V212.273H209.877V202.713Z" fill="#F5F5F5"/>
<path d="M154 263.377C219.963 263.377 273.436 260.255 273.436 256.404C273.436 252.553 219.963 249.431 154 249.431C88.0372 249.431 34.5638 252.553 34.5638 256.404C34.5638 260.255 88.0372 263.377 154 263.377Z" fill="#F5F5F5"/>
<path d="M86.0737 256.404H83.6097" stroke="#3FBA95" stroke-linecap="round" stroke-linejoin="round"/>
<path d="M78.9527 256.404H16.0283" stroke="#3FBA95" stroke-linecap="round" stroke-linejoin="round" stroke-dasharray="7.57 7.57"/>
<path d="M13.6998 256.404H11.2358" stroke="#3FBA95" stroke-linecap="round" stroke-linejoin="round"/>
<path d="M232.698 108.952L161.621 110.131L162.472 161.443L233.549 160.264L232.698 108.952Z" fill="#3FBA95"/>
<path opacity="0.3" d="M204.524 109.413L161.551 110.126L162.402 161.438L205.374 160.725L204.524 109.413Z" fill="white"/>
<path opacity="0.3" d="M210.999 112.871L198.624 113.118L198.693 116.568L211.068 116.32L210.999 112.871Z" fill="white"/>
<path opacity="0.3" d="M211.367 152.772L198.993 152.978L199.05 156.427L211.424 156.221L211.367 152.772Z" fill="white"/>
<path d="M219.616 141.797C223.627 141.797 226.879 138.118 226.879 133.58C226.879 129.041 223.627 125.362 219.616 125.362C215.605 125.362 212.354 129.041 212.354 133.58C212.354 138.118 215.605 141.797 219.616 141.797Z" stroke="white" stroke-miterlimit="10"/>
<path d="M219.918 126.612V127.992" stroke="white" stroke-linecap="round" stroke-linejoin="round"/>
<path d="M220.232 139.253V140.633" stroke="white" stroke-linecap="round" stroke-linejoin="round"/>
<path d="M213.493 133.309H214.879" stroke="white" stroke-linecap="round" stroke-linejoin="round"/>
<path d="M224.618 133.314H226.004" stroke="white" stroke-linecap="round" stroke-linejoin="round"/>
<path d="M219.912 133.309L219.918 129.059" stroke="white" stroke-width="0.5" stroke-linecap="round" stroke-linejoin="round"/>
<path d="M220.183 133.586L223.189 136.592" stroke="white" stroke-width="0.5" stroke-linecap="round" stroke-linejoin="round"/>
<path d="M220.583 133.315C220.583 133.448 220.544 133.578 220.47 133.688C220.396 133.798 220.292 133.885 220.169 133.935C220.046 133.986 219.911 133.999 219.781 133.974C219.651 133.948 219.531 133.884 219.437 133.79C219.343 133.696 219.279 133.576 219.253 133.446C219.228 133.316 219.241 133.181 219.292 133.058C219.342 132.935 219.429 132.831 219.539 132.757C219.649 132.683 219.779 132.644 219.912 132.644C220 132.643 220.088 132.66 220.17 132.693C220.252 132.726 220.326 132.776 220.389 132.838C220.451 132.901 220.501 132.975 220.534 133.057C220.567 133.139 220.584 133.227 220.583 133.315Z" fill="white"/>
<path opacity="0.3" d="M219.616 143.971C224.927 143.971 229.232 139.319 229.232 133.579C229.232 127.84 224.927 123.188 219.616 123.188C214.306 123.188 210.001 127.84 210.001 133.579C210.001 139.319 214.306 143.971 219.616 143.971Z" fill="white"/>
<path d="M139.758 223.701C140.83 224.52 162.347 222.204 156.784 184.03C156.784 184.03 166.991 186.624 168.088 186.451C168.088 186.451 183.063 209.409 172.16 220.781C161.256 232.152 145.006 232.848 145.006 232.848L139.758 223.701Z" fill="#3FBA95"/>
<path opacity="0.3" d="M139.758 223.701C140.83 224.52 162.347 222.204 156.784 184.03C156.784 184.03 166.991 186.624 168.088 186.451C168.088 186.451 183.063 209.409 172.16 220.781C161.256 232.152 145.006 232.848 145.006 232.848L139.758 223.701Z" fill="black"/>
<path d="M163.603 189.937C163.659 189.937 157.591 190.054 155.558 187.529C153.526 185.003 152.152 180.488 155.848 177.408C159.544 174.328 181.246 161.022 191.465 159.975C201.685 158.928 212.625 165.519 212.625 165.519L199.245 175.412L170.435 182.385L163.603 189.937Z" fill="#263238"/>
<path d="M143.984 217.688L144.544 223.208L151.173 222.647L150.175 216.974L143.984 217.688Z" fill="#FFC3BD"/>
<path d="M142.696 222.807L152.312 222.672L152.996 227.526C152.996 227.526 143.99 227.649 140.288 227.156C136.586 226.664 137.165 224.735 137.165 224.735C137.165 224.735 141.501 224.84 142.696 222.807Z" fill="#263238"/>
<path d="M226.613 236.778C228.049 222.667 219.53 210.243 207.585 209.028C195.641 207.813 184.795 218.266 183.359 232.377C181.923 246.487 190.442 258.911 202.386 260.126C214.33 261.342 225.177 250.888 226.613 236.778Z" fill="#263238"/>
<path d="M189.876 156.026C189.876 156.026 190.874 178.923 177.556 179.576C164.238 180.229 149.928 178.769 149.928 178.769L154.123 219.912L141.637 220.682C141.637 220.682 132.674 185.779 131.263 177.007C129.853 168.235 131.079 162.032 140.337 158.139C149.596 154.246 189.876 156.026 189.876 156.026Z" fill="#3FBA95"/>
<path d="M115.346 228.671L131.935 180.488L154.111 156.008C154.111 156.008 134.756 156.082 125.455 161.429C116.153 166.775 115.808 173.2 114.102 180.845C112.395 188.489 105.552 224.673 105.552 224.673L115.346 228.671Z" fill="#3FBA95"/>
<path opacity="0.7" d="M189.876 156.027C189.876 156.027 169.264 155.109 154.148 156.027C154.148 156.027 134.793 156.101 125.491 161.448C116.19 166.795 115.808 173.201 114.102 180.846C112.395 188.49 105.552 224.674 105.552 224.674L115.346 228.672L131.935 180.488C134.725 193.843 141.637 220.658 141.637 220.658L154.123 219.912L149.922 178.794C149.922 178.794 164.226 180.254 177.55 179.601C190.874 178.948 189.876 156.027 189.876 156.027Z" fill="black"/>
<path d="M155.848 118.888L148.191 119.818C148.191 119.818 146.861 133.893 145.622 136.628C145.622 136.628 122.073 139.862 112.426 139.585L107.529 142.912L107.356 148.696L112.155 148.838L113.701 145.172C113.701 145.172 116.941 145.031 117.693 143.207C117.693 143.207 142.715 149.25 151.93 142.351C151.943 142.357 157.499 134.195 155.848 118.888Z" fill="#FFC3BD"/>
<path d="M177.79 81.1953C177.79 81.1953 180.186 84.2753 179.274 86.9426C179.023 87.7033 178.579 88.3863 177.987 88.9257C177.395 89.4652 176.673 89.843 175.893 90.0226C175.893 90.0226 175.443 94.2915 172.924 94.4147C170.404 94.5379 171.248 85.0084 171.248 85.0084L177.79 81.1953Z" fill="#263238"/>
<path d="M158.392 156.131L156.71 128.615L146.275 121.678C146.275 121.678 149.688 109.648 156.218 107.609C162.747 105.57 176.989 100.895 185.625 103.217C194.262 105.539 193.27 115.728 191.785 123.286L190.122 123.68C190.122 123.68 189.863 153.464 189.851 156.027L158.392 156.131Z" fill="#263238"/>
<path d="M177.168 104.918C173.749 108.225 166.776 110.197 164.848 108.552C162.92 106.907 165.353 105.398 167.164 103.538C168.143 102.515 168.113 100.599 167.885 99.0717C167.765 98.3019 167.588 97.5422 167.355 96.7986C160.955 96.4475 158.3 93.4538 158.035 88.1746C157.77 82.8955 160.16 76.7663 160.16 76.7663L164.681 72.9102C164.681 72.9102 170.841 73.8342 175.769 77.2222C178.702 79.218 177.833 83.1481 176.62 86.0494C176.105 87.2844 175.487 88.4735 174.772 89.6038C174.082 96.8294 177.168 104.918 177.168 104.918Z" fill="#FFC3BD"/>
<path d="M161.595 89.6284C161.595 89.6284 164.059 89.7454 165.137 88.2178" stroke="#263238" stroke-linecap="round" stroke-linejoin="round"/>
<path d="M165.519 83.3937C165.519 83.8619 165.236 84.2315 164.903 84.2253C164.571 84.2192 164.33 83.8311 164.343 83.3629C164.355 82.8948 164.626 82.5252 164.959 82.5313C165.291 82.5375 165.538 82.9256 165.519 83.3937Z" fill="#263238"/>
<path d="M159.901 83.5422C159.901 84.0103 159.618 84.3799 159.285 84.3737C158.953 84.3676 158.712 83.9795 158.725 83.5114C158.737 83.0432 159.008 82.6736 159.341 82.6798C159.673 82.6859 159.92 83.0802 159.901 83.5422Z" fill="#263238"/>
<path d="M161.854 87.3669L161.601 83.5908L159.797 87.1759C160.078 87.4154 160.427 87.5622 160.795 87.5963C161.163 87.6305 161.533 87.5504 161.854 87.3669Z" fill="#ED847E"/>
<path d="M165.224 80.4372C165.696 80.3074 166.199 80.3495 166.644 80.5559C167.088 80.7623 167.445 81.1197 167.651 81.5645" stroke="#263238" stroke-linecap="round" stroke-linejoin="round"/>
<path d="M158.164 81.1332C158.164 81.1332 159.298 79.9012 160.628 80.2153" stroke="#263238" stroke-linecap="round" stroke-linejoin="round"/>
<path d="M176.663 86.0488C169.616 86.3013 168.741 78.3118 168.741 78.3118C165.254 80.1598 160.185 76.7718 160.185 76.7718L164.706 72.9033C164.706 72.9033 170.866 73.8396 175.794 77.2153C178.745 79.2173 177.876 83.1597 176.663 86.0488Z" fill="#263238"/>
<path d="M157.918 79.1127C157.918 79.1127 154.271 76.6857 155.879 74.9362C157.487 73.1868 167.336 76.5132 174.698 80.5911C174.698 80.5911 157.838 69.3122 153.255 72.8788C149.466 75.8294 157.868 79.9258 157.616 79.9197L157.918 79.1127Z" fill="#3FBA95"/>
<path d="M178.486 78.2875C178.476 79.5648 178.234 80.8297 177.771 82.0205L161.213 74.0125C161.899 73.2203 162.721 72.557 163.64 72.0536C164.62 71.493 165.686 71.0976 166.794 70.8832C167.97 70.6585 169.173 70.6169 170.361 70.76C176.416 71.4561 178.517 76.113 178.486 78.2875Z" fill="#3FBA95"/>
<path d="M105.157 159.834C105.157 159.834 86.4556 185.706 101.856 225.53" stroke="#263238" stroke-linecap="round" stroke-linejoin="round"/>
<path d="M129.84 173.274C129.84 173.274 129.84 173.324 129.84 173.422C129.84 173.521 129.84 173.576 129.84 173.687V173.749C129.618 176.24 129.206 178.711 128.608 181.141C127.758 184.732 126.631 188.151 125.701 190.898C121.759 202.571 122.214 215.15 122.214 215.15C120.908 213.524 118.518 212.366 115.531 211.553C104.652 208.565 86.1846 210.167 86.1846 210.167C82.5625 197.458 83.8561 177.568 87.4597 166.431C91.0633 155.293 101.055 157.807 101.055 157.807C101.055 157.807 111.601 158.115 112.925 157.973C115.349 157.679 117.802 157.729 120.212 158.121C128.356 159.611 130.315 166.049 129.84 173.274Z" fill="#3FBA95"/>
<path d="M211.035 221.76C192.555 238.441 156.883 240.191 130.339 238.343L115.469 211.59L109.445 200.754L128.799 174.667L129.822 173.293C129.822 173.293 129.822 173.342 129.822 173.441C129.822 173.539 129.822 173.595 129.822 173.706V173.767C129.557 178.418 127.845 215.742 141.526 224.895L141.637 224.975C143.488 226.172 145.636 226.829 147.84 226.873C172.942 227.6 172.24 194.841 165.858 187.824L209.415 179.071C209.415 179.071 218.015 200.723 211.035 221.76Z" fill="#3FBA95"/>
<path d="M162.587 180.722C162.587 180.722 158.503 184.11 160.61 188.656C162.716 193.202 183.026 184.375 191.022 182.767C199.017 181.159 208.27 179.588 212.249 178.769C216.228 177.95 215.883 166.535 212.631 165.525C209.378 164.515 177.519 170.145 172.234 173.237C168.744 175.357 165.507 177.868 162.587 180.722Z" fill="#263238"/>
<path d="M172.813 88.8704C172.424 88.452 172.189 87.9141 172.145 87.3447C172.101 86.7752 172.252 86.2078 172.572 85.735C173.558 84.2566 175.548 81.9096 177.457 83.6652C180.131 86.1292 175.566 90.6076 173.675 89.5234C173.358 89.3474 173.068 89.1276 172.813 88.8704Z" fill="#FFC3BD"/>
<path opacity="0.2" d="M157.918 79.1127C157.918 79.1127 154.271 76.6857 155.879 74.9362C156.593 74.1601 158.731 74.3202 161.62 75.1457C163.478 75.6458 165.297 76.2778 167.065 77.0368C169.603 78.1394 172.301 79.5501 174.698 80.5911C174.698 80.5911 157.838 69.3122 153.255 72.8788C149.466 75.8294 157.345 79.6548 157.622 79.9135L157.758 79.4146L157.918 79.1127Z" fill="black"/>
<path d="M159.649 78.0596C159.649 78.0596 155.953 78.6756 158.503 82.6549L159.649 78.0596Z" fill="#263238"/>
<path d="M163.191 75.6324C163.191 75.6324 157.616 73.6735 156.064 74.7823C154.511 75.8911 156.138 78.004 157.912 79.0943L159.335 79.2791L160.172 76.7535L162.341 76.4886L163.191 75.6324Z" fill="#263238"/>
<path opacity="0.3" d="M170.786 72.62L169.449 74.5974L163.64 72.0718C164.62 71.5112 165.686 71.1158 166.794 70.9014L170.786 72.62Z" fill="white"/>
<path opacity="0.1" d="M169.492 96.2559C169.108 97.2782 168.556 98.2295 167.86 99.071C167.74 98.3012 167.563 97.5415 167.33 96.7979C168.077 96.7457 168.809 96.5622 169.492 96.2559Z" fill="black"/>
<path d="M114.268 150.428C114.022 154.697 112.174 158.189 109.907 159.052C109.514 159.203 109.094 159.268 108.675 159.243C105.878 159.082 103.845 154.887 104.129 149.879C104.412 144.871 106.913 140.941 109.71 141.101C110.849 141.163 111.853 141.896 112.636 143.073C113.788 144.76 114.434 147.459 114.268 150.428Z" fill="#F5F5F5"/>
<path d="M114.268 150.427C114.022 154.696 112.174 158.189 109.907 159.051C107.319 158.903 105.441 155.029 105.706 150.427C105.97 145.826 108.274 142.173 110.861 142.321C111.528 142.371 112.159 142.642 112.654 143.091C113.787 144.76 114.434 147.458 114.268 150.427Z" fill="white"/>
<path d="M214.103 210.937C209.341 207.592 190.917 204.309 190.917 204.309C179.724 204.309 169.899 214.38 168.544 227.754C167.435 238.632 172.24 248.507 179.983 253.01C179.983 253.01 180.63 253.281 181.714 253.706C185.816 255.326 196.227 259.25 202.381 260.112" fill="#263238"/>
<path opacity="0.3" d="M226.613 236.778C228.049 222.667 219.53 210.243 207.585 209.028C195.641 207.813 184.795 218.266 183.359 232.377C181.923 246.487 190.442 258.911 202.386 260.126C214.33 261.342 225.177 250.888 226.613 236.778Z" fill="black"/>
<path d="M130.85 235.957C132.286 221.846 123.767 209.422 111.823 208.207C99.8783 206.991 89.0316 217.445 87.5958 231.555C86.1601 245.666 94.6789 258.09 106.623 259.305C118.567 260.52 129.414 250.067 130.85 235.957Z" fill="#263238"/>
<path d="M122.51 212.915L111.496 259.158C109.889 259.418 108.255 259.466 106.636 259.299H106.513C104.4 258.757 105.342 259.343 103.223 258.64C97.8331 256.86 90.0037 253.712 90.0037 253.712C81.7062 249.677 77.0184 239.865 78.158 228.653C79.5379 215.071 89.283 204.925 100.753 205.757C100.753 205.757 106.198 206.761 111.804 208.221C114.268 208.837 116.732 209.57 118.759 210.334C120.1 211.053 121.359 211.919 122.51 212.915Z" fill="#263238"/>
<path opacity="0.3" d="M130.851 235.928C129.619 248.094 121.383 257.537 111.484 259.133C109.877 259.393 108.243 259.441 106.623 259.274H106.5C104.245 259.031 102.053 258.378 100.032 257.346C91.7101 253.127 86.4433 242.876 87.5952 231.542C89.0305 217.442 99.8536 207.001 111.792 208.196H111.822C114.246 208.44 116.599 209.158 118.746 210.309C120.088 211.03 121.347 211.898 122.498 212.896C128.393 218.021 131.824 226.62 130.851 235.928Z" fill="black"/>
<path d="M127.851 219.727C127.49 219.151 127.077 218.609 126.619 218.107C123.865 214.349 117.57 212.945 113.449 213.278C110.29 213.586 107.256 214.674 104.621 216.444C101.615 218.39 99.4655 221.372 96.4841 223.417C90.8292 227.322 82.2483 227.212 76.5688 223.189C76.2485 222.961 75.9439 222.712 75.6571 222.444C75.0783 221.841 74.6922 221.08 74.5483 220.257C74.331 219.229 74.4101 218.161 74.7762 217.177C76.0082 213.715 80.117 210.672 82.7103 208.818C87.9681 205.108 94.1523 202.931 100.574 202.528C118.888 201.266 126.699 216.906 127.851 219.727Z" fill="#3FBA95"/>
<path opacity="0.3" d="M126.582 220.22C122.646 214.54 117.594 212.945 113.473 213.277C110.314 213.586 107.281 214.674 104.646 216.444C101.64 218.39 99.4902 221.372 96.5087 223.417C90.8538 227.322 82.273 227.211 76.5934 223.189C76.2732 222.961 75.9686 222.712 75.6818 222.443C75.1029 221.841 74.7169 221.08 74.573 220.257C74.3557 219.229 74.4347 218.161 74.8009 217.177C76.7043 219.376 82.2483 224.673 89.7574 222.105C99.1206 218.871 101.406 209.261 111.416 209.347C119.368 209.44 124.266 215.6 126.582 220.22Z" fill="black"/>
<g opacity="0.3">
<path opacity="0.3" d="M85.3899 207.124C88.061 205.225 91.0662 203.848 94.248 203.064C97.4328 202.254 100.731 201.983 104.005 202.263C107.274 202.578 110.476 203.393 113.498 204.678L114.619 205.171L115.716 205.719C116.455 206.064 117.151 206.495 117.865 206.89C118.58 207.284 119.239 207.771 119.923 208.208C120.607 208.645 121.247 209.157 121.9 209.643C119.214 207.843 116.346 206.33 113.344 205.128C110.348 203.926 107.191 203.172 103.975 202.892C100.765 202.585 97.5273 202.793 94.3835 203.508C92.8052 203.858 91.258 204.336 89.7573 204.937C88.2344 205.523 86.7717 206.256 85.3899 207.124Z" fill="black"/>
</g>
<g opacity="0.3">
<path opacity="0.3" d="M105.336 202.72C104.568 200.151 104.107 197.5 103.962 194.823C103.759 192.155 103.716 189.476 103.771 186.815C103.827 184.154 104.012 181.468 104.258 178.807L104.708 174.827C104.905 173.503 105.077 172.179 105.324 170.86L104.763 178.868L104.541 182.86C104.504 184.191 104.424 185.521 104.418 186.852C104.313 189.513 104.363 192.174 104.461 194.86C104.504 196.19 104.609 197.515 104.745 198.839C104.853 200.145 105.05 201.441 105.336 202.72Z" fill="black"/>
</g>
<path opacity="0.3" d="M141.495 224.84C128.633 216.567 128.122 195.222 128.559 181.141C128.639 178.72 128.738 176.521 128.812 174.63C128.947 172.737 128.947 170.837 128.812 168.944C127.512 159.273 120.12 158.108 120.12 158.108H120.151C128.337 159.611 130.296 166.049 129.822 173.274C129.822 173.274 129.822 173.324 129.822 173.422C129.822 173.521 129.822 173.576 129.822 173.687V173.749C129.545 178.399 127.832 215.723 141.495 224.84Z" fill="black"/>
<path opacity="0.2" d="M140.448 151.943C139.37 153.07 125.43 150.181 122.997 151.475C121.968 152.017 121.518 153.939 120.483 156.045C117.576 160.665 113.486 161.392 113.233 161.429C118.112 157.733 119.473 148.838 117.052 143.214C114.631 137.59 105.964 139.05 105.471 139.216C106.949 138.566 108.539 138.209 110.153 138.163C114.841 137.916 120.557 139.235 122.159 142.204C125.411 148.259 139.358 146.898 140.639 148.487C141.92 150.076 141.526 150.815 140.448 151.943Z" fill="black"/>
<path d="M129.532 146.565C128.685 148.129 128.347 149.919 128.565 151.684L140.374 153.015C140.978 152.316 141.424 151.496 141.682 150.609C141.941 149.723 142.005 148.791 141.871 147.878C141.871 147.878 130.173 146.701 129.532 146.565Z" fill="#263238"/>
<path d="M93.6751 146.128C93.6751 146.128 92.4986 143.627 93.9092 142.044C90.7553 141.76 88.8026 141.428 86.7698 141.132C86.4679 142.05 86.3201 142.931 87.3858 144.329C88.4515 145.727 93.6751 146.128 93.6751 146.128Z" fill="#263238"/>
<path d="M87.1147 161.78C85.0696 165.113 83.3201 170.447 83.1661 178.967" stroke="#3FBA95" stroke-linecap="round" stroke-linejoin="round"/>
<path d="M93.8476 156.285C92.3598 156.63 90.9919 157.368 89.8867 158.423" stroke="#3FBA95" stroke-linecap="round" stroke-linejoin="round"/>
<path d="M185.712 124.174L177.938 125.122C177.938 125.122 176.583 139.408 175.326 142.186C175.326 142.186 151.419 145.475 141.618 145.186L136.647 148.561L136.475 154.438L141.347 154.58L142.918 150.884C142.918 150.884 146.208 150.742 146.965 148.888C146.965 148.888 172.369 155.048 181.726 148.025C181.72 148.001 187.369 139.716 185.712 124.174Z" fill="#FFC3BD"/>
<path opacity="0.2" d="M122.411 234.08C122.19 241.829 117.114 247.964 111.071 247.792C110.259 247.768 109.454 247.629 108.681 247.379C103.839 245.839 100.353 240.129 100.543 233.445C100.734 226.977 104.301 221.63 108.989 220.146C109.926 219.844 110.907 219.705 111.89 219.733C117.933 219.912 122.639 226.355 122.411 234.08Z" fill="#FAFAFA"/>
<path d="M116.849 234.08C116.658 240.696 113.153 246.136 108.681 247.398C103.839 245.858 100.353 240.148 100.543 233.464C100.734 226.996 104.301 221.65 108.989 220.165C113.646 221.428 117.04 227.231 116.849 234.08Z" fill="#263238"/>
<path opacity="0.2" d="M217.325 234.696C217.097 242.445 212.021 248.587 205.984 248.408C205.172 248.387 204.367 248.248 203.594 247.995C198.746 246.455 195.26 240.751 195.457 234.061C195.642 227.6 199.208 222.247 203.896 220.762C204.833 220.461 205.814 220.321 206.797 220.349C212.84 220.528 217.547 226.959 217.325 234.696Z" fill="#FAFAFA"/>
<path d="M211.762 234.696C211.565 241.306 208.066 246.745 203.594 248.008C198.746 246.468 195.26 240.764 195.457 234.074C195.642 227.612 199.208 222.259 203.896 220.774C208.559 222.037 211.959 227.84 211.762 234.696Z" fill="#263238"/>
<path d="M226.848 214.282C226.953 221.902 215.354 226.947 195.943 230.126C190.711 231.046 185.364 231.108 180.112 230.31C171.488 228.887 167.275 225.241 167.275 225.241C167.275 225.241 169.468 198.907 191.169 195.568C205.953 193.301 217.078 199.264 222.721 205.689C225.376 208.707 226.817 211.843 226.848 214.282Z" fill="#3FBA95"/>
<path opacity="0.3" d="M226.848 214.282C226.953 221.902 215.354 226.947 195.943 230.125C190.711 231.045 185.364 231.108 180.112 230.31C181.042 223.158 185.219 204.401 203.372 202.454C211.608 201.567 217.965 203.231 222.721 205.688C225.376 208.707 226.817 211.842 226.848 214.282Z" fill="black"/>
<g opacity="0.3">
<path opacity="0.3" d="M168.531 225.357C168.931 221.773 169.786 218.254 171.076 214.885C172.344 211.482 174.095 208.279 176.275 205.374C177.376 203.931 178.614 202.596 179.971 201.389C181.315 200.162 182.797 199.096 184.387 198.21C187.551 196.426 191.057 195.332 194.674 195.001C192.902 195.298 191.158 195.747 189.463 196.344C188.607 196.603 187.8 197.003 186.999 197.342C186.196 197.727 185.412 198.152 184.652 198.617C183.876 199.06 183.161 199.596 182.428 200.095C181.695 200.594 181.018 201.186 180.371 201.808C179.056 203.003 177.857 204.321 176.792 205.744C174.628 208.593 172.864 211.725 171.55 215.052C170.867 216.709 170.279 218.404 169.788 220.128C169.265 221.844 168.846 223.591 168.531 225.357Z" fill="black"/>
</g>
<path d="M139.407 216.66L140.688 221.009L154.123 219.888L154.302 213.808L139.407 216.66Z" fill="#3FBA95"/>
<path d="M219.395 186.999L248.956 185.798" stroke="#3FBA95" stroke-linecap="round" stroke-linejoin="round"/>
<path d="M258.726 180.414L263.118 180.235" stroke="#3FBA95" stroke-linecap="round" stroke-linejoin="round"/>
<path d="M233.563 181.437L255.357 180.55" stroke="#3FBA95" stroke-linecap="round" stroke-linejoin="round"/>
<path d="M248.815 196.738L267.079 195.999" stroke="#3FBA95" stroke-linecap="round" stroke-linejoin="round"/>
<path d="M237.523 197.2L245.482 196.873" stroke="#3FBA95" stroke-linecap="round" stroke-linejoin="round"/>
</svg>
