<?xml version="1.0" encoding="iso-8859-1"?>
<!-- Generator: Adobe Illustrator 19.0.0, SVG Export Plug-In . SVG Version: 6.00 Build 0)  -->
<svg version="1.1" id="Layer_1" xmlns="http://www.w3.org/2000/svg" xmlns:xlink="http://www.w3.org/1999/xlink" x="0px" y="0px"
	 viewBox="0 0 244.742 244.742" style="enable-background:new 0 0 244.742 244.742;" xml:space="preserve">
<g>
	<g>
		<g>
			<path d="M243.37,85.341l-45.651-65.307c-1.425-2.037-3.751-3.249-6.236-3.249H55.796c-2.417,0-4.689,1.146-6.122,3.092
				L1.486,85.184C0.522,86.493,0,88.075,0,89.701c0,15.062,10.987,27.581,25.359,30.039v84.546c0,13.051,10.619,23.67,23.67,23.67
				h148.58c13.051,0,23.668-10.619,23.668-23.67V119.23c12.179-3.125,21.454-13.571,22.775-26.366
				C245.17,90.421,244.919,87.558,243.37,85.341z M180.072,212.741H148.37v-64.99h31.702V212.741z M206.059,204.288
				c0.003,4.662-3.791,8.453-8.447,8.453h-2.323v-72.598c0-4.202-3.406-7.609-7.609-7.609h-46.919c-4.202,0-7.609,3.406-7.609,7.609
				v72.598H49.029c-4.662,0-8.453-3.792-8.453-8.453v-85.802c4.994-1.753,9.404-4.755,12.833-8.648
				c5.595,6.356,13.789,10.37,22.899,10.37c9.11,0,17.304-4.015,22.899-10.37c5.595,6.356,13.789,10.37,22.899,10.37
				c9.113,0,17.307-4.015,22.902-10.37c5.595,6.356,13.789,10.37,22.899,10.37c9.11,0,17.304-4.015,22.899-10.37
				c3.969,4.509,9.265,7.806,15.253,9.361V204.288z M213.709,104.992c-8.43,0-15.291-6.86-15.291-15.291
				c0-4.202-3.406-7.609-7.609-7.609c-4.202,0-7.609,3.406-7.609,7.609c0,8.433-6.86,15.291-15.291,15.291
				c-8.431,0-15.291-6.86-15.291-15.291c0-4.202-3.406-7.609-7.609-7.609c-4.202,0-7.609,3.406-7.609,7.609
				c0,8.433-6.86,15.291-15.293,15.291c-8.433,0-15.291-6.86-15.291-15.291c0-4.202-3.406-7.609-7.609-7.609
				s-7.609,3.406-7.609,7.609c0,8.433-6.86,15.291-15.291,15.291c-8.431,0-15.291-6.86-15.291-15.291
				c0-4.202-3.406-7.609-7.609-7.609s-7.609,3.406-7.609,7.609c0,8.433-6.86,15.291-15.291,15.291
				c-7.659,0-14.02-5.658-15.123-13.016l44.251-59.973H187.52l41.406,59.233C228.152,98.951,221.622,104.992,213.709,104.992z"/>
			<path d="M112.13,132.535H60.234c-4.202,0-7.609,3.406-7.609,7.609V187.7c0,4.202,3.406,7.609,7.609,7.609h51.895
				c4.202,0,7.609-3.406,7.609-7.609v-47.556C119.738,135.941,116.332,132.535,112.13,132.535z M104.521,180.091H67.843v-32.339
				h36.678V180.091z"/>
		</g>
	</g>
</g>
<g>
</g>
<g>
</g>
<g>
</g>
<g>
</g>
<g>
</g>
<g>
</g>
<g>
</g>
<g>
</g>
<g>
</g>
<g>
</g>
<g>
</g>
<g>
</g>
<g>
</g>
<g>
</g>
<g>
</g>
</svg>
