<svg width="32" height="32" viewBox="0 0 32 32" fill="none" xmlns="http://www.w3.org/2000/svg">
<circle cx="16" cy="16" r="16" fill="white"/>
<g filter="url(#filter0_d)">
<path d="M16.8392 14.3838L14.1076 15.587L10.9076 24.4684C10.9047 24.4763 10.904 24.4849 10.9057 24.4932C10.9073 24.5015 10.9112 24.5091 10.9169 24.5153C10.9226 24.5214 10.9299 24.5258 10.9379 24.5281C10.9459 24.5303 10.9544 24.5301 10.9624 24.5277L13.4551 23.7844L14.8842 25.9791C14.8888 25.9862 14.8952 25.9918 14.9027 25.9954C14.9102 25.999 14.9186 26.0003 14.9269 25.9994C14.9351 25.9984 14.943 25.9951 14.9495 25.9899C14.956 25.9846 14.961 25.9777 14.9638 25.9697L18.1627 17.0883L16.8392 14.3838Z" fill="#25AEF2"/>
<g style="mix-blend-mode:multiply" opacity="0.5">
<path d="M16.8392 14.3838L14.1076 15.587L10.9076 24.4684C10.9047 24.4763 10.904 24.4849 10.9057 24.4932C10.9073 24.5015 10.9112 24.5091 10.9169 24.5153C10.9226 24.5214 10.9299 24.5258 10.9379 24.5281C10.9459 24.5303 10.9544 24.5301 10.9624 24.5277L13.4551 23.7844L14.8842 25.9791C14.8888 25.9862 14.8952 25.9918 14.9027 25.9954C14.9102 25.999 14.9186 26.0003 14.9269 25.9994C14.9351 25.9984 14.943 25.9951 14.9495 25.9899C14.956 25.9846 14.961 25.9777 14.9638 25.9697L18.1627 17.0883L16.8392 14.3838Z" fill="#25AEF2"/>
</g>
<g style="mix-blend-mode:multiply" opacity="0.5">
<path d="M17.7154 16.1733L16.4167 16.5499L15.8726 23.4483L18.1635 17.0882L17.7154 16.1733Z" fill="#1BAFDD"/>
</g>
<path d="M22.5509 24.0736L18.6346 15.5364L15.812 14.5735L14.7195 17.3824L18.6335 25.915C18.6388 25.9264 18.6471 25.9361 18.6575 25.943C18.6679 25.9499 18.6799 25.9537 18.6923 25.954C18.7047 25.9544 18.717 25.9512 18.7277 25.945C18.7384 25.9387 18.7472 25.9295 18.7531 25.9184L19.9252 23.6993L22.4783 24.1686C22.4903 24.1708 22.5028 24.1697 22.5142 24.1653C22.5257 24.1609 22.5357 24.1533 22.5432 24.1435C22.5507 24.1337 22.5554 24.122 22.5567 24.1096C22.5581 24.0973 22.5561 24.0848 22.5509 24.0736Z" fill="#25AEF2"/>
<g style="mix-blend-mode:multiply" opacity="0.3">
<path d="M16.4169 20.9079C17.8806 20.9103 19.301 20.4046 20.4417 19.4749L18.6348 15.5363L17.1568 15.0321L16.8391 14.3838L16.1484 14.6883L15.8122 14.5734L15.6888 14.8906L14.1075 15.587L12.6388 19.666C13.7365 20.4754 15.0595 20.9103 16.4169 20.9079Z" fill="#1BAFDD"/>
</g>
<path d="M16.4168 20.5498C19.9709 20.5498 22.852 17.629 22.852 14.0261C22.852 10.4231 19.9709 7.50232 16.4168 7.50232C12.8627 7.50232 9.98153 10.4231 9.98153 14.0261C9.98153 17.629 12.8627 20.5498 16.4168 20.5498Z" fill="#F8B805"/>
<g style="mix-blend-mode:screen" opacity="0.5">
<path d="M10.1591 14.2065C10.1591 12.9271 10.5302 11.676 11.2262 10.6088C11.9222 9.54152 12.9124 8.70533 14.0736 8.20423C15.2348 7.70313 16.5157 7.55924 17.757 7.79047C18.9982 8.02171 20.145 8.61784 21.0546 9.50471C20.4619 8.87814 19.7517 8.37781 18.9658 8.03304C18.1798 7.68828 17.3339 7.50602 16.4776 7.49694C15.6213 7.48786 14.7718 7.65215 13.9789 7.98017C13.186 8.3082 12.4657 8.79336 11.8602 9.40723C11.2546 10.0211 10.776 10.7513 10.4525 11.5551C10.1289 12.3589 9.96682 13.2201 9.97577 14.0882C9.98473 14.9563 10.1645 15.8138 10.5046 16.6106C10.8447 17.4073 11.3382 18.1272 11.9563 18.7281C10.8014 17.5143 10.157 15.893 10.1591 14.2065Z" fill="#F8B805"/>
</g>
<g style="mix-blend-mode:multiply" opacity="0.5">
<path d="M21.5463 10.0869C22.4798 11.4966 22.8344 13.2197 22.5348 14.8901C22.2352 16.5606 21.3051 18.0469 19.9419 19.0333C18.5787 20.0197 16.8899 20.4285 15.2342 20.1729C13.5785 19.9173 12.0862 19.0175 11.0745 17.6645C11.5542 18.3889 12.1724 19.0084 12.8924 19.4864C13.6125 19.9644 14.4198 20.2911 15.2667 20.4471C16.1135 20.6032 16.9826 20.5855 17.8225 20.395C18.6625 20.2046 19.4562 19.8453 20.1567 19.3384C20.8573 18.8314 21.4504 18.1872 21.901 17.4438C22.3516 16.7004 22.6505 15.8729 22.7801 15.0103C22.9097 14.1477 22.8672 13.2676 22.6553 12.4219C22.4434 11.5762 22.0663 10.7822 21.5463 10.0869Z" fill="#F8B805"/>
</g>
<g style="mix-blend-mode:multiply" opacity="0.5">
<path d="M20.375 18.0385C22.5611 15.8223 22.5611 12.2292 20.375 10.013C18.1889 7.7968 14.6445 7.7968 12.4583 10.013C10.2722 12.2292 10.2722 15.8223 12.4583 18.0385C14.6445 20.2547 18.1889 20.2547 20.375 18.0385Z" fill="#F8B805"/>
</g>
<path d="M20.1386 17.7988C22.1942 15.715 22.1942 12.3365 20.1386 10.2527C18.0831 8.1689 14.7504 8.1689 12.6949 10.2527C10.6394 12.3365 10.6394 15.715 12.6949 17.7988C14.7504 19.8826 18.0831 19.8826 20.1386 17.7988Z" fill="#F8B805"/>
<path d="M19.9045 17.5612C21.8306 15.6086 21.8306 12.4429 19.9045 10.4903C17.9784 8.53772 14.8556 8.53772 12.9295 10.4903C11.0034 12.4429 11.0034 15.6086 12.9295 17.5612C14.8556 19.5138 17.9784 19.5138 19.9045 17.5612Z" fill="#F8B805"/>
<g style="mix-blend-mode:multiply" opacity="0.5">
<path d="M16.5967 18.0556C16.6846 18.1557 16.7774 18.2558 16.8752 18.3559C16.9314 18.4093 16.9989 18.4489 17.0726 18.4715C17.1131 18.4854 17.1549 18.4951 17.1974 18.5005C17.2424 18.5058 17.2877 18.5077 17.3329 18.5061C17.3805 18.5051 17.428 18.5001 17.4748 18.4911C17.5227 18.4815 17.5699 18.469 17.6162 18.4535C17.7095 18.4213 17.7971 18.374 17.8755 18.3135C17.757 18.2358 17.6448 18.1599 17.5351 18.0755C17.4751 18.0302 17.4069 17.9975 17.3344 17.979C17.2567 17.9571 17.1765 17.9457 17.0959 17.9452C17.0109 17.9438 16.926 17.9525 16.843 17.9711C16.7576 17.9881 16.6748 18.0165 16.5967 18.0556Z" fill="#F8B805"/>
</g>
<g style="mix-blend-mode:multiply" opacity="0.5">
<path d="M17.3366 17.4671C17.37 17.3395 17.3952 17.2066 17.417 17.0801C17.2706 17.0777 17.1265 17.1167 17.0008 17.1927C16.8786 17.263 16.7824 17.3717 16.7267 17.5024C16.6773 17.6238 16.623 17.7458 16.5638 17.8684C16.6472 17.8853 16.7327 17.8884 16.8171 17.8774C16.8992 17.8651 16.9789 17.8398 17.0533 17.8024C17.1222 17.7659 17.1841 17.7173 17.2363 17.6589C17.2836 17.6035 17.3179 17.5379 17.3366 17.4671Z" fill="#F8B805"/>
</g>
<g style="mix-blend-mode:multiply" opacity="0.5">
<path d="M17.5043 17.8332C17.6013 17.9082 17.7032 17.9833 17.8087 18.0535C17.8683 18.0922 17.9361 18.1159 18.0065 18.1226C18.0454 18.1274 18.0847 18.1288 18.1239 18.1267C18.1652 18.1241 18.2062 18.1178 18.2465 18.108C18.2886 18.0981 18.3302 18.0855 18.3709 18.0704C18.4123 18.0538 18.4524 18.034 18.4909 18.0111C18.5294 17.9884 18.5665 17.9634 18.602 17.936C18.6369 17.9071 18.6696 17.8755 18.6997 17.8414C18.6405 17.8164 18.5821 17.7914 18.5246 17.7663C18.4668 17.7401 18.4094 17.7115 18.3531 17.6834C18.2913 17.6536 18.2244 17.6361 18.1561 17.6319C18.0819 17.6246 18.007 17.6287 17.9339 17.644C17.8572 17.657 17.7825 17.6801 17.7117 17.7127C17.6374 17.7429 17.5676 17.7835 17.5043 17.8332Z" fill="#F8B805"/>
</g>
<g style="mix-blend-mode:multiply" opacity="0.5">
<path d="M18.0713 17.1681C18.0754 17.1066 18.0787 17.0469 18.0802 16.9857C18.0817 16.9245 18.0802 16.8633 18.0802 16.8032C18.046 16.8088 18.0124 16.8176 17.9798 16.8295C17.947 16.8394 17.9151 16.8519 17.8843 16.867C17.8542 16.8822 17.8253 16.8996 17.7976 16.9189C17.7695 16.9368 17.743 16.9571 17.7184 16.9797C17.6938 17.0019 17.6709 17.026 17.6499 17.0518C17.6285 17.076 17.6093 17.1022 17.5925 17.1298C17.5586 17.185 17.5349 17.2459 17.5225 17.3097C17.4995 17.4283 17.4725 17.5492 17.4406 17.6708C17.5189 17.6704 17.5966 17.6577 17.671 17.6333C17.7428 17.6057 17.8103 17.5678 17.8713 17.5207C17.9269 17.4747 17.9746 17.4198 18.0124 17.3581C18.0459 17.3001 18.066 17.2351 18.0713 17.1681Z" fill="#F8B805"/>
</g>
<g style="mix-blend-mode:multiply" opacity="0.5">
<path d="M18.3407 17.4374C18.4414 17.4875 18.5452 17.5349 18.6521 17.5797C18.7121 17.6036 18.7768 17.6128 18.841 17.6067C18.9139 17.6014 18.9852 17.583 19.0517 17.5523C19.2003 17.4864 19.3259 17.3766 19.4121 17.2373C19.301 17.2144 19.1851 17.1832 19.0758 17.1521C18.948 17.123 18.8143 17.1361 18.6944 17.1896C18.6272 17.2143 18.5637 17.2484 18.5059 17.291C18.4443 17.3316 18.3887 17.3809 18.3407 17.4374Z" fill="#F8B805"/>
</g>
<g style="mix-blend-mode:multiply" opacity="0.5">
<path d="M18.7359 16.7388C18.7226 16.6262 18.7081 16.5181 18.6863 16.4077C18.5674 16.453 18.4634 16.531 18.3859 16.633C18.3494 16.6815 18.3195 16.7348 18.2971 16.7914C18.276 16.847 18.2651 16.906 18.2648 16.9656C18.2648 17.0767 18.2615 17.1893 18.2548 17.3035C18.3249 17.2888 18.3923 17.2635 18.4548 17.2284C18.5144 17.1909 18.5684 17.145 18.6152 17.0921C18.7026 16.9844 18.7515 16.8594 18.7359 16.7388Z" fill="#F8B805"/>
</g>
<g style="mix-blend-mode:multiply" opacity="0.5">
<path d="M19.1004 16.8634C19.1989 16.889 19.3004 16.913 19.4029 16.9336C19.4596 16.9437 19.5178 16.9409 19.5733 16.9254C19.6368 16.9085 19.6967 16.8798 19.7499 16.8409C19.8693 16.7573 19.9616 16.6397 20.0151 16.503C19.9099 16.4996 19.8044 16.4921 19.7018 16.4831C19.583 16.4782 19.466 16.5129 19.3685 16.5819C19.3133 16.6161 19.2629 16.6577 19.2185 16.7054C19.1728 16.7529 19.1331 16.806 19.1004 16.8634Z" fill="#F8B805"/>
</g>
<g style="mix-blend-mode:multiply" opacity="0.5">
<path d="M19.3307 16.1713C19.3 16.073 19.2689 15.9788 19.2326 15.8845C19.1072 15.9588 19.0132 16.0772 18.9682 16.2171C18.9591 16.2431 18.952 16.2697 18.9471 16.2967C18.9369 16.3502 18.9369 16.4051 18.9471 16.4585C18.9667 16.558 18.9841 16.6583 18.9978 16.7611C19.058 16.7357 19.1135 16.7003 19.1623 16.6564C19.2087 16.6123 19.2487 16.5617 19.2811 16.5062C19.3415 16.3947 19.3648 16.2761 19.3307 16.1713Z" fill="#F8B805"/>
</g>
<g style="mix-blend-mode:multiply" opacity="0.5">
<path d="M19.7061 16.1779C19.7972 16.1832 19.8912 16.1869 19.9838 16.1873C20.0946 16.1802 20.1984 16.1299 20.2734 16.0469C20.3175 16.0009 20.3556 15.9495 20.3867 15.8937C20.4163 15.835 20.4378 15.7725 20.4508 15.7079C20.3572 15.7209 20.2646 15.7318 20.173 15.7405C20.0677 15.7547 19.9701 15.8044 19.896 15.8817C19.8529 15.921 19.8155 15.9662 19.7849 16.0161C19.7522 16.0666 19.7257 16.1209 19.7061 16.1779Z" fill="#F8B805"/>
</g>
<g style="mix-blend-mode:multiply" opacity="0.5">
<path d="M19.7951 15.528C19.7522 15.4459 19.7082 15.3662 19.6633 15.2888C19.5048 15.4349 19.4307 15.6661 19.5033 15.8471C19.5378 15.9315 19.5685 16.0168 19.5992 16.105C19.6479 16.0721 19.6907 16.0311 19.7259 15.9837C19.7595 15.937 19.7864 15.8857 19.8059 15.8313C19.8238 15.7825 19.8321 15.7306 19.8303 15.6786C19.8284 15.6265 19.8165 15.5753 19.7951 15.528Z" fill="#F8B805"/>
</g>
<g style="mix-blend-mode:multiply" opacity="0.5">
<path d="M20.1563 15.4132C20.2363 15.4027 20.317 15.3899 20.3989 15.3756C20.4934 15.3511 20.5754 15.2913 20.6285 15.2082C20.6591 15.1616 20.6834 15.1111 20.7007 15.058C20.7094 15.0305 20.7162 15.0024 20.721 14.9739C20.7252 14.9453 20.7273 14.9165 20.7273 14.8876C20.6488 14.9135 20.5707 14.9371 20.4903 14.9578C20.324 15.0051 20.1874 15.2026 20.1563 15.4132Z" fill="#F8B805"/>
</g>
<g style="mix-blend-mode:multiply" opacity="0.5">
<path d="M20.1312 14.832C20.0838 14.7678 20.0327 14.7047 19.9808 14.6443C19.9662 14.6635 19.9531 14.6839 19.9416 14.7051C19.9048 14.7659 19.8826 14.8345 19.8768 14.9056C19.8635 14.9939 19.8813 15.0842 19.9271 15.1605C19.9696 15.2281 20.0113 15.2975 20.0523 15.3689C20.0888 15.3317 20.1195 15.2892 20.1434 15.2427C20.1647 15.1962 20.1795 15.1469 20.1875 15.0963C20.1914 15.0722 20.1931 15.0479 20.1926 15.0235C20.192 14.9998 20.189 14.9763 20.1838 14.9533C20.1753 14.9094 20.1574 14.8679 20.1312 14.832Z" fill="#F8B805"/>
</g>
<g style="mix-blend-mode:multiply" opacity="0.5">
<path d="M20.445 14.6181C20.5113 14.596 20.5779 14.5727 20.645 14.5475C20.682 14.5329 20.7155 14.5104 20.7431 14.4815C20.7736 14.4489 20.7986 14.4115 20.8172 14.3707C20.8375 14.327 20.8516 14.2806 20.859 14.2329C20.866 14.1831 20.866 14.1326 20.859 14.0828C20.7946 14.1158 20.7304 14.1471 20.6664 14.1766C20.5941 14.2145 20.5364 14.2758 20.5024 14.3508C20.493 14.371 20.4849 14.3916 20.4779 14.4128C20.4534 14.4775 20.443 14.547 20.4476 14.6162L20.445 14.6181Z" fill="#F8B805"/>
</g>
<g style="mix-blend-mode:multiply" opacity="0.5">
<path d="M20.3368 14.123C20.2849 14.0729 20.233 14.0259 20.1809 13.9818C20.1602 14.0188 20.1457 14.059 20.1379 14.1008C20.1297 14.1407 20.1265 14.1814 20.1287 14.2221C20.1309 14.262 20.1394 14.3013 20.1538 14.3385C20.1659 14.3741 20.185 14.4068 20.2101 14.4346C20.257 14.4861 20.3038 14.5393 20.3505 14.5941C20.3753 14.5562 20.3944 14.5147 20.4071 14.471C20.4206 14.4283 20.4264 14.3836 20.4242 14.3388C20.4241 14.2581 20.3927 14.1805 20.3368 14.123Z" fill="#F8B805"/>
</g>
<g style="mix-blend-mode:multiply" opacity="0.5">
<path d="M20.5641 13.9833C20.6189 13.957 20.6707 13.9292 20.7241 13.9007C20.7851 13.8631 20.8298 13.8036 20.8492 13.734C20.873 13.655 20.8745 13.5709 20.8537 13.4911C20.8033 13.5249 20.7507 13.5575 20.6993 13.5894C20.6422 13.6287 20.6004 13.6868 20.5811 13.7539C20.5548 13.8273 20.5489 13.9067 20.5641 13.9833Z" fill="#F8B805"/>
</g>
<g style="mix-blend-mode:multiply" opacity="0.5">
<path d="M20.418 13.5781C20.3699 13.5428 20.3232 13.5083 20.2736 13.4749C20.2464 13.5421 20.2394 13.6161 20.2536 13.6873C20.2631 13.7534 20.2952 13.814 20.3443 13.8585C20.3899 13.8961 20.4377 13.9362 20.481 13.9764C20.5139 13.907 20.5257 13.8292 20.5147 13.753C20.506 13.6842 20.4714 13.6215 20.418 13.5781Z" fill="#F8B805"/>
</g>
<g style="mix-blend-mode:multiply" opacity="0.5">
<path d="M20.5038 12.7961C20.4679 12.8445 20.4426 12.9 20.4297 12.9591C20.4141 13.0299 20.4076 13.1024 20.4104 13.1749C20.4126 13.2127 20.4172 13.2504 20.4241 13.2876C20.4298 13.3219 20.4382 13.3557 20.4493 13.3886C20.4682 13.4456 20.4979 13.4984 20.5367 13.544C20.5797 13.501 20.6112 13.4476 20.6282 13.3889C20.6394 13.3541 20.6478 13.3185 20.6534 13.2823C20.6584 13.243 20.6596 13.2033 20.6571 13.1637C20.6552 13.0874 20.6385 13.0123 20.6078 12.9426C20.5849 12.8862 20.5493 12.836 20.5038 12.7961Z" fill="#F8B805"/>
</g>
<g style="mix-blend-mode:multiply" opacity="0.5">
<path d="M16.2371 18.0543C16.1497 18.1544 16.0569 18.2545 15.9587 18.3546C15.9026 18.408 15.8352 18.4476 15.7616 18.4702C15.721 18.4841 15.679 18.4938 15.6365 18.4991C15.5915 18.5045 15.5462 18.5063 15.5009 18.5048C15.4534 18.5038 15.4061 18.4988 15.3595 18.4898C15.3116 18.4803 15.2643 18.4678 15.218 18.4522C15.1241 18.4202 15.0359 18.3729 14.9569 18.3122C15.0754 18.2345 15.1876 18.1586 15.2972 18.0742C15.3576 18.0283 15.4263 17.9952 15.4994 17.9766C15.5771 17.9546 15.6573 17.9433 15.7379 17.9428C15.823 17.9414 15.9078 17.9501 15.9909 17.9687C16.0764 17.9859 16.1592 18.0147 16.2371 18.0543Z" fill="#F8B805"/>
</g>
<g style="mix-blend-mode:multiply" opacity="0.5">
<path d="M15.4969 17.4671C15.4639 17.3395 15.4384 17.2066 15.4165 17.0801C15.563 17.0778 15.7072 17.1168 15.8331 17.1927C15.9551 17.263 16.0512 17.3717 16.1068 17.5024C16.1562 17.6238 16.2105 17.7458 16.2697 17.8684C16.1039 17.904 15.9311 17.8803 15.7805 17.8012C15.7109 17.765 15.6481 17.7165 15.5954 17.6578C15.5489 17.6025 15.5153 17.5373 15.4969 17.4671Z" fill="#F8B805"/>
</g>
<g style="mix-blend-mode:multiply" opacity="0.5">
<path d="M15.3293 17.8332C15.2321 17.9082 15.1305 17.9817 15.0246 18.0535C14.965 18.0922 14.8972 18.1159 14.8268 18.1226C14.7879 18.1274 14.7486 18.1288 14.7094 18.1267C14.6681 18.1241 14.6271 18.1178 14.5868 18.108C14.5446 18.098 14.5031 18.0855 14.4624 18.0704C14.421 18.0537 14.3809 18.0339 14.3424 18.0111C14.3039 17.9884 14.2668 17.9634 14.2313 17.936C14.1965 17.9069 14.1638 17.8753 14.1335 17.8414C14.1932 17.817 14.2513 17.7919 14.3087 17.7663C14.3661 17.7408 14.4243 17.7115 14.4802 17.6834C14.542 17.6536 14.6089 17.6361 14.6772 17.6319C14.7514 17.6246 14.8263 17.6287 14.8994 17.644C14.9767 17.6568 15.052 17.6799 15.1234 17.7127C15.1971 17.7432 15.2664 17.7837 15.3293 17.8332Z" fill="#F8B805"/>
</g>
<g style="mix-blend-mode:multiply" opacity="0.5">
<path d="M14.7622 17.1681C14.7585 17.1066 14.7548 17.0469 14.7533 16.9857C14.7518 16.9245 14.7533 16.8633 14.7533 16.8032C14.7876 16.8088 14.8213 16.8176 14.854 16.8295C14.8867 16.8394 14.9185 16.852 14.9492 16.867C14.9794 16.8822 15.0084 16.8996 15.0362 16.9189C15.0643 16.9368 15.0908 16.9572 15.1155 16.9797C15.1399 17.002 15.1626 17.0261 15.1836 17.0518C15.205 17.0761 15.2243 17.1022 15.2414 17.1298C15.275 17.1851 15.2986 17.246 15.311 17.3097C15.334 17.4283 15.361 17.5492 15.3929 17.6708C15.3146 17.6704 15.237 17.6577 15.1625 17.6333C15.0907 17.6057 15.0232 17.5678 14.9622 17.5207C14.9067 17.4747 14.8592 17.4198 14.8214 17.3581C14.7877 17.3002 14.7674 17.2352 14.7622 17.1681Z" fill="#F8B805"/>
</g>
<g style="mix-blend-mode:multiply" opacity="0.5">
<path d="M14.493 17.4374C14.3928 17.4875 14.289 17.5349 14.1816 17.5797C14.1217 17.6036 14.0572 17.6128 13.9931 17.6067C13.9201 17.6015 13.8486 17.583 13.782 17.5523C13.6334 17.4864 13.5078 17.3766 13.4217 17.2373C13.5328 17.2144 13.6491 17.1832 13.7583 17.1521C13.886 17.123 14.0196 17.1361 14.1394 17.1896C14.2748 17.2433 14.3959 17.3284 14.493 17.4382V17.4374Z" fill="#F8B805"/>
</g>
<g style="mix-blend-mode:multiply" opacity="0.5">
<path d="M14.0976 16.7388C14.111 16.6262 14.1254 16.5181 14.1476 16.4077C14.2663 16.4531 14.3702 16.5311 14.4476 16.633C14.4841 16.6815 14.514 16.7348 14.5365 16.7914C14.5575 16.847 14.5685 16.906 14.5687 16.9656C14.5687 17.0767 14.572 17.1893 14.5787 17.3035C14.5087 17.2888 14.4413 17.2635 14.3787 17.2284C14.3192 17.1909 14.2652 17.145 14.2184 17.0921C14.131 16.9844 14.0825 16.8594 14.0976 16.7388Z" fill="#F8B805"/>
</g>
<g style="mix-blend-mode:multiply" opacity="0.5">
<path d="M13.7333 16.8645C13.6348 16.89 13.5333 16.914 13.4311 16.9347C13.3739 16.9443 13.3154 16.9408 13.2597 16.9245C13.1962 16.9075 13.1364 16.8788 13.083 16.8401C12.9638 16.7564 12.8716 16.6389 12.8182 16.5022C12.923 16.4988 13.029 16.4913 13.1312 16.4823C13.2499 16.4773 13.367 16.512 13.4645 16.581C13.519 16.6154 13.5688 16.6569 13.6126 16.7045C13.6593 16.7525 13.6999 16.8062 13.7333 16.8645Z" fill="#F8B805"/>
</g>
<g style="mix-blend-mode:multiply" opacity="0.5">
<path d="M13.5032 16.1713C13.5339 16.073 13.565 15.9788 13.6013 15.8845C13.7267 15.9588 13.8208 16.0772 13.8657 16.2171C13.8749 16.2431 13.8819 16.2697 13.8868 16.2967C13.8972 16.3502 13.8972 16.4051 13.8868 16.4585C13.8668 16.558 13.8498 16.6583 13.8357 16.7611C13.7757 16.7358 13.7202 16.7004 13.6717 16.6564C13.625 16.6124 13.5848 16.5618 13.5524 16.5062C13.4924 16.3947 13.4695 16.2761 13.5032 16.1713Z" fill="#F8B805"/>
</g>
<g style="mix-blend-mode:multiply" opacity="0.5">
<path d="M13.1292 16.1779C13.0381 16.1832 12.944 16.1869 12.8514 16.1873C12.7406 16.1802 12.6369 16.1299 12.5618 16.0469C12.5184 16.0009 12.4811 15.9494 12.4507 15.8937C12.4209 15.8351 12.3992 15.7725 12.3863 15.7079C12.48 15.721 12.5715 15.7319 12.6644 15.7405C12.7697 15.7547 12.8671 15.8045 12.9411 15.8817C12.9842 15.921 13.0216 15.9662 13.0522 16.0161C13.0843 16.0667 13.1101 16.121 13.1292 16.1779Z" fill="#F8B805"/>
</g>
<g style="mix-blend-mode:multiply" opacity="0.5">
<path d="M13.038 15.528C13.0805 15.4457 13.1246 15.3662 13.1694 15.2888C13.3279 15.4349 13.4024 15.6661 13.3294 15.8471C13.295 15.9315 13.2642 16.0168 13.2339 16.105C13.185 16.0722 13.1421 16.0312 13.1068 15.9837C13.0732 15.937 13.0463 15.8857 13.0268 15.8313C13.009 15.7825 13.0007 15.7306 13.0026 15.6785C13.0045 15.6265 13.0165 15.5753 13.038 15.528Z" fill="#F8B805"/>
</g>
<g style="mix-blend-mode:multiply" opacity="0.5">
<path d="M12.6773 15.4133C12.5973 15.4028 12.5166 15.39 12.4348 15.3757C12.3402 15.3513 12.2583 15.2914 12.2055 15.2083C12.1741 15.1619 12.1492 15.1114 12.1315 15.0581C12.1224 15.0309 12.1153 15.003 12.11 14.9748C12.1055 14.9462 12.1033 14.9173 12.1033 14.8884C12.1818 14.9143 12.26 14.938 12.3403 14.9586C12.5096 15.0052 12.6481 15.2027 12.6773 15.4133Z" fill="#F8B805"/>
</g>
<g style="mix-blend-mode:multiply" opacity="0.5">
<path d="M12.7024 14.832C12.7498 14.7678 12.8009 14.7047 12.8527 14.6443C12.8674 14.6634 12.8806 14.6838 12.892 14.7051C12.9287 14.7659 12.9509 14.8345 12.9568 14.9056C12.9709 14.9941 12.9533 15.0848 12.9072 15.1612C12.8646 15.2288 12.8231 15.2983 12.782 15.3696C12.7455 15.3326 12.7149 15.29 12.6913 15.2435C12.6698 15.197 12.6549 15.1477 12.6468 15.097C12.6433 15.0729 12.6416 15.0486 12.6416 15.0242C12.6427 15.0006 12.6456 14.9771 12.6505 14.954C12.6586 14.9099 12.6763 14.8682 12.7024 14.832Z" fill="#F8B805"/>
</g>
<g style="mix-blend-mode:multiply" opacity="0.5">
<path d="M12.3893 14.6181C12.323 14.596 12.2564 14.5727 12.1894 14.5475C12.153 14.5327 12.1202 14.5102 12.0931 14.4815C12.0626 14.4489 12.0375 14.4115 12.019 14.3707C11.9987 14.327 11.9846 14.2806 11.9772 14.2329C11.9701 14.1831 11.9701 14.1326 11.9772 14.0828C12.0416 14.1158 12.1058 14.1471 12.1697 14.1766C12.2421 14.2144 12.2999 14.2758 12.3338 14.3508C12.3434 14.3709 12.3517 14.3916 12.3586 14.4128C12.3664 14.4341 12.3728 14.4559 12.3779 14.4781C12.3886 14.5239 12.3924 14.5711 12.3893 14.6181Z" fill="#F8B805"/>
</g>
<g style="mix-blend-mode:multiply" opacity="0.5">
<path d="M12.4974 14.123C12.5487 14.0729 12.6006 14.0259 12.6529 13.9818C12.6736 14.0189 12.6882 14.059 12.6962 14.1008C12.7052 14.1411 12.7087 14.1824 12.7066 14.2236C12.7045 14.2635 12.6961 14.3028 12.6818 14.34C12.6695 14.3755 12.6503 14.4081 12.6255 14.4361C12.5781 14.4875 12.5314 14.5408 12.4848 14.5956C12.4601 14.5576 12.441 14.5161 12.4281 14.4725C12.4147 14.4298 12.4091 14.3851 12.4114 14.3403C12.4109 14.3002 12.4183 14.2603 12.433 14.223C12.4477 14.1857 12.4696 14.1517 12.4974 14.123Z" fill="#F8B805"/>
</g>
<g style="mix-blend-mode:multiply" opacity="0.5">
<path d="M12.2696 13.9833C12.2148 13.957 12.1629 13.9292 12.1096 13.9007C12.0489 13.8633 12.0043 13.8042 11.9844 13.7351C11.9612 13.6556 11.9601 13.5711 11.9815 13.4911C12.0318 13.5249 12.0844 13.5575 12.1359 13.5894C12.1931 13.6286 12.235 13.6868 12.2544 13.7539C12.2801 13.8275 12.2853 13.9068 12.2696 13.9833Z" fill="#F8B805"/>
</g>
<g style="mix-blend-mode:multiply" opacity="0.5">
<path d="M12.4158 13.5781C12.4639 13.5428 12.5106 13.5083 12.5602 13.4749C12.5876 13.5421 12.5946 13.6161 12.5802 13.6873C12.5707 13.7534 12.5386 13.814 12.4895 13.8585C12.4439 13.8961 12.3965 13.9362 12.3528 13.9764C12.3199 13.907 12.3081 13.8292 12.3191 13.753C12.3281 13.6843 12.3627 13.6217 12.4158 13.5781Z" fill="#F8B805"/>
</g>
<g style="mix-blend-mode:multiply" opacity="0.5">
<path d="M12.3297 12.7961C12.3657 12.8444 12.391 12.9 12.4038 12.9591C12.4196 13.0299 12.4261 13.1024 12.4231 13.1749C12.4209 13.2127 12.4163 13.2504 12.4094 13.2876C12.4041 13.322 12.3957 13.3558 12.3842 13.3886C12.3653 13.4455 12.3357 13.4983 12.2972 13.544C12.2532 13.5012 12.2209 13.4477 12.2035 13.3886C12.1923 13.3538 12.1838 13.3181 12.1783 13.2819C12.1733 13.2426 12.172 13.2029 12.1746 13.1633C12.1764 13.087 12.1932 13.0119 12.2238 12.9422C12.2473 12.8857 12.2836 12.8357 12.3297 12.7961Z" fill="#F8B805"/>
</g>
<g style="mix-blend-mode:multiply" opacity="0.8">
<path d="M16.1651 15.8935C16.0883 15.8229 16.0499 15.712 16.0499 15.561L16.0562 15.4831C16.1006 14.9975 16.1541 14.4917 16.2168 13.9655C16.2794 13.4394 16.3329 13.0355 16.3774 12.7537L15.9046 12.9094L15.8319 12.9233C15.7954 12.924 15.7594 12.9146 15.7274 12.896C15.6955 12.8774 15.6688 12.8503 15.65 12.8174C15.6053 12.746 15.5821 12.6622 15.5834 12.5769L15.5894 12.5138C15.5934 12.4346 15.6186 12.3582 15.662 12.2932C15.7021 12.2365 15.7799 12.1799 15.8956 12.1233C16.0633 12.0476 16.2366 11.9861 16.4137 11.9393L16.6682 11.8687C16.7434 11.8477 16.8207 11.8358 16.8985 11.8334C17.0159 11.8334 17.1035 11.8687 17.1623 11.9393C17.2212 12.0099 17.25 12.1092 17.25 12.2365C17.2495 12.2983 17.2435 12.3599 17.232 12.4205C17.1671 12.7885 17.0439 13.8355 16.8622 15.5616C16.8293 15.8539 16.686 16 16.432 16C16.3334 16.0012 16.2381 15.9631 16.1651 15.8935Z" fill="#AD6800"/>
</g>
<g style="mix-blend-mode:multiply" opacity="0.4">
<path d="M19.2613 10.4353L19.2128 10.7942L19.4769 11.0382L19.1251 11.1024L18.978 11.4321L18.8092 11.1129L18.454 11.0731L18.7014 10.8115L18.6292 10.4571L18.9506 10.6148L19.2613 10.4353Z" fill="#F8B805"/>
</g>
<g style="mix-blend-mode:multiply" opacity="0.4">
<path d="M17.9162 9.76392L17.9795 10.1202L18.305 10.2696L17.9899 10.4408L17.9506 10.8008L17.6929 10.5501L17.3429 10.6233L17.4984 10.297L17.3214 9.98241L17.6754 10.0316L17.9162 9.76392Z" fill="#F8B805"/>
</g>
<g style="mix-blend-mode:multiply" opacity="0.4">
<path d="M16.4317 9.54663L16.6006 9.86574L16.9553 9.90591L16.7083 10.1672L16.7806 10.522L16.4587 10.3643L16.1484 10.5434L16.1969 10.1845L15.9329 9.94083L16.2843 9.87663L16.4317 9.54663Z" fill="#F8B805"/>
</g>
<g style="mix-blend-mode:multiply" opacity="0.4">
<path d="M14.9536 9.80457L15.2114 10.0553L15.5614 9.98214L15.4058 10.308L15.5825 10.6226L15.2288 10.5738L14.9881 10.8415L14.9248 10.4848L14.5992 10.3354L14.914 10.1646L14.9536 9.80457Z" fill="#F8B805"/>
</g>
<g style="mix-blend-mode:multiply" opacity="0.4">
<path d="M13.6267 10.5129L13.9486 10.6705L14.2589 10.4915L14.2104 10.8504L14.4744 11.094L14.123 11.1582L13.9756 11.4882L13.8067 11.1691L13.4516 11.1289L13.699 10.8676L13.6267 10.5129Z" fill="#F8B805"/>
</g>
<g style="mix-blend-mode:multiply" opacity="0.4">
<path d="M13.3575 11.7495C13.3575 11.714 13.3471 11.6792 13.3277 11.6496C13.3082 11.6201 13.2805 11.597 13.248 11.5834C13.2156 11.5698 13.18 11.5662 13.1455 11.5732C13.1111 11.5801 13.0795 11.5972 13.0547 11.6224C13.0299 11.6475 13.013 11.6796 13.0062 11.7144C12.9993 11.7493 13.0028 11.7855 13.0163 11.8183C13.0297 11.8512 13.0524 11.8793 13.0816 11.8991C13.1108 11.9188 13.1451 11.9294 13.1802 11.9294C13.2035 11.9294 13.2265 11.9247 13.248 11.9157C13.2696 11.9066 13.2891 11.8934 13.3056 11.8767C13.3221 11.86 13.3351 11.8402 13.344 11.8183C13.353 11.7965 13.3575 11.7731 13.3575 11.7495Z" fill="#F8B805"/>
</g>
<g style="mix-blend-mode:multiply" opacity="0.4">
<path d="M20.0081 11.7495C20.0081 11.714 19.9977 11.6792 19.9782 11.6496C19.9587 11.6201 19.931 11.597 19.8986 11.5834C19.8662 11.5698 19.8305 11.5662 19.7961 11.5732C19.7617 11.5801 19.7301 11.5972 19.7053 11.6224C19.6805 11.6475 19.6636 11.6796 19.6568 11.7144C19.6499 11.7493 19.6534 11.7855 19.6669 11.8183C19.6803 11.8512 19.703 11.8793 19.7322 11.8991C19.7614 11.9188 19.7957 11.9294 19.8307 11.9294C19.854 11.9294 19.8771 11.9247 19.8986 11.9157C19.9202 11.9066 19.9397 11.8934 19.9562 11.8767C19.9727 11.86 19.9857 11.8402 19.9946 11.8183C20.0035 11.7965 20.0081 11.7731 20.0081 11.7495Z" fill="#F8B805"/>
</g>
<g style="mix-blend-mode:screen" opacity="0.3">
<path d="M16.4169 9.02661C16.3058 9.02661 16.1947 9.03074 16.0836 9.03825L11.4963 13.6901C11.4889 13.8028 11.4848 13.9135 11.4848 14.028C11.4838 14.8457 11.6814 15.651 12.0603 16.3729L18.73 9.61152C18.0181 9.22692 17.2236 9.02603 16.4169 9.02661Z" fill="#F8B805"/>
</g>
<g style="mix-blend-mode:screen" opacity="0.3">
<path d="M19.203 9.90063L12.347 16.8509C12.5617 17.1688 12.8119 17.4606 13.0925 17.7203L20.0607 10.6564C19.8044 10.3719 19.5166 10.1183 19.203 9.90063Z" fill="#F8B805"/>
</g>
<g style="mix-blend-mode:screen" opacity="0.3">
<path d="M21.3505 14.0259C21.3506 13.781 21.3329 13.5364 21.2976 13.2942L15.6948 18.9721C16.4603 19.0865 17.2416 19.0175 17.9761 18.7705L21.0969 15.6068C21.2646 15.0971 21.3503 14.5633 21.3505 14.0259Z" fill="#F8B805"/>
</g>
<path d="M16.4168 19.087C13.6641 19.087 11.4258 16.8164 11.4258 14.0259C11.4258 11.2354 13.6641 8.96631 16.4168 8.96631C19.1695 8.96631 21.4092 11.2354 21.4092 14.0259C21.4092 16.8164 19.1695 19.087 16.4168 19.087ZM16.4168 9.08757C13.7308 9.08757 11.5454 11.3026 11.5454 14.0259C11.5454 16.7492 13.7304 18.9646 16.4168 18.9646C19.1032 18.9646 21.2885 16.7496 21.2885 14.0259C21.2885 11.3022 19.1028 9.08757 16.4168 9.08757Z" fill="#F8B805"/>
<g style="mix-blend-mode:screen" opacity="0.5">
<path d="M16.4168 19.087C13.6641 19.087 11.4258 16.8164 11.4258 14.0259C11.4258 11.2354 13.6641 8.96631 16.4168 8.96631C19.1695 8.96631 21.4092 11.2354 21.4092 14.0259C21.4092 16.8164 19.1695 19.087 16.4168 19.087ZM16.4168 9.08757C13.7308 9.08757 11.5454 11.3026 11.5454 14.0259C11.5454 16.7492 13.7304 18.9646 16.4168 18.9646C19.1032 18.9646 21.2885 16.7496 21.2885 14.0259C21.2885 11.3022 19.1028 9.08757 16.4168 9.08757Z" fill="#F8B805"/>
</g>
</g>
<defs>
<filter id="filter0_d" x="6" y="6" width="20" height="21" filterUnits="userSpaceOnUse" color-interpolation-filters="sRGB">
<feFlood flood-opacity="0" result="BackgroundImageFix"/>
<feColorMatrix in="SourceAlpha" type="matrix" values="0 0 0 0 0 0 0 0 0 0 0 0 0 0 0 0 0 0 127 0"/>
<feOffset dy="1"/>
<feColorMatrix type="matrix" values="0 0 0 0 0 0 0 0 0 0 0 0 0 0 0 0 0 0 0.15 0"/>
<feBlend mode="normal" in2="BackgroundImageFix" result="effect1_dropShadow"/>
<feBlend mode="normal" in="SourceGraphic" in2="effect1_dropShadow" result="shape"/>
</filter>
</defs>
</svg>
